<svg width="495" height="93" viewBox="0 0 495 93" fill="none" xmlns="http://www.w3.org/2000/svg">
<path d="M46.304 47.112V45.096C46.304 40.808 45.696 37.096 44.48 33.96C43.264 30.824 41.6 28.232 39.488 26.184C37.44 24.136 35.04 22.6 32.288 21.576C29.536 20.552 26.624 20.04 23.552 20.04C20.288 20.04 17.28 20.616 14.528 21.768C11.776 22.856 9.376 24.488 7.328 26.664C5.28 28.776 3.68 31.368 2.528 34.44C1.376 37.448 0.8 40.872 0.8 44.712C0.8 47.912 1.28 51.048 2.24 54.12C3.264 57.128 4.768 59.848 6.752 62.28C8.8 64.648 11.36 66.568 14.432 68.04C17.568 69.448 21.248 70.152 25.472 70.152C29.568 70.152 33.344 69.448 36.8 68.04C40.256 66.568 43.264 64.488 45.824 61.8L42.752 58.728C41.408 59.88 40.128 60.936 38.912 61.896C37.76 62.856 36.576 63.656 35.36 64.296C34.144 64.936 32.864 65.448 31.52 65.832C30.24 66.152 28.8 66.312 27.2 66.312C25.408 66.312 23.488 66.056 21.44 65.544C19.456 64.968 17.6 63.976 15.872 62.568C14.144 61.16 12.704 59.208 11.552 56.712C10.4 54.216 9.824 51.016 9.824 47.112H46.304ZM9.824 43.272C9.824 40.712 10.08 38.248 10.592 35.88C11.168 33.448 12 31.304 13.088 29.448C14.24 27.592 15.68 26.12 17.408 25.032C19.136 23.88 21.184 23.304 23.552 23.304C28.096 23.304 31.616 25.096 34.112 28.68C36.672 32.2 37.952 37.064 37.952 43.272H9.824ZM74.741 49.128L89.429 69H99.221L79.637 42.696L95.765 21H90.197L76.853 38.952L63.701 21H54.005L71.957 45.384L54.101 69H59.765L74.741 49.128ZM109.805 93H117.965V61.128H118.349C118.989 62.792 119.821 64.2 120.845 65.352C121.933 66.504 123.149 67.432 124.493 68.136C125.837 68.84 127.245 69.352 128.717 69.672C130.253 69.992 131.789 70.152 133.325 70.152C136.525 70.152 139.469 69.576 142.157 68.424C144.845 67.208 147.149 65.512 149.069 63.336C151.053 61.16 152.589 58.536 153.677 55.464C154.765 52.328 155.309 48.872 155.309 45.096C155.309 41.256 154.765 37.8 153.677 34.728C152.589 31.656 151.053 29.032 149.069 26.856C147.149 24.616 144.845 22.92 142.157 21.768C139.469 20.552 136.525 19.944 133.325 19.944C125.709 19.944 120.717 22.888 118.349 28.776H117.965V21H109.805V93ZM117.965 40.2C117.965 38.088 118.285 36.104 118.925 34.248C119.629 32.328 120.589 30.696 121.805 29.352C123.021 27.944 124.429 26.856 126.029 26.088C127.693 25.256 129.453 24.84 131.309 24.84C133.293 24.84 135.181 25.224 136.973 25.992C138.829 26.696 140.429 27.848 141.773 29.448C143.117 31.048 144.173 33.128 144.941 35.688C145.773 38.248 146.189 41.32 146.189 44.904C146.189 48.552 145.773 51.656 144.941 54.216C144.173 56.776 143.085 58.888 141.677 60.552C140.333 62.152 138.765 63.336 136.973 64.104C135.181 64.808 133.293 65.16 131.309 65.16C129.517 65.16 127.821 64.808 126.221 64.104C124.621 63.336 123.213 62.248 121.997 60.84C120.781 59.368 119.789 57.608 119.021 55.56C118.317 53.512 117.965 51.176 117.965 48.552V40.2ZM210.367 47.112V45.096C210.367 40.808 209.759 37.096 208.542 33.96C207.327 30.824 205.663 28.232 203.551 26.184C201.503 24.136 199.103 22.6 196.351 21.576C193.599 20.552 190.687 20.04 187.615 20.04C184.351 20.04 181.343 20.616 178.591 21.768C175.839 22.856 173.439 24.488 171.391 26.664C169.343 28.776 167.743 31.368 166.591 34.44C165.439 37.448 164.863 40.872 164.863 44.712C164.863 47.912 165.343 51.048 166.303 54.12C167.327 57.128 168.831 59.848 170.815 62.28C172.863 64.648 175.423 66.568 178.495 68.04C181.631 69.448 185.311 70.152 189.535 70.152C193.631 70.152 197.407 69.448 200.863 68.04C204.319 66.568 207.327 64.488 209.887 61.8L206.815 58.728C205.471 59.88 204.191 60.936 202.975 61.896C201.823 62.856 200.639 63.656 199.423 64.296C198.207 64.936 196.927 65.448 195.583 65.832C194.303 66.152 192.863 66.312 191.263 66.312C189.471 66.312 187.551 66.056 185.503 65.544C183.519 64.968 181.663 63.976 179.935 62.568C178.207 61.16 176.767 59.208 175.615 56.712C174.463 54.216 173.887 51.016 173.887 47.112H210.367ZM173.887 43.272C173.887 40.712 174.143 38.248 174.655 35.88C175.231 33.448 176.063 31.304 177.151 29.448C178.303 27.592 179.743 26.12 181.471 25.032C183.199 23.88 185.247 23.304 187.615 23.304C192.159 23.304 195.679 25.096 198.175 28.68C200.735 32.2 202.015 37.064 202.015 43.272H173.887ZM222.868 21V69H231.028V40.008C231.028 37.384 231.316 35.176 231.892 33.384C232.532 31.528 233.332 30.024 234.292 28.872C235.252 27.72 236.308 26.888 237.46 26.376C238.612 25.864 239.732 25.608 240.82 25.608C242.292 25.608 243.636 26.088 244.852 27.048C246.132 28.008 247.06 28.904 247.636 29.736L250.9 23.784C250.324 23.016 249.62 22.376 248.788 21.864C248.02 21.352 247.22 20.968 246.388 20.712C245.62 20.392 244.884 20.2 244.18 20.136C243.54 20.008 243.06 19.944 242.74 19.944C240.052 19.944 237.812 20.68 236.02 22.152C234.228 23.624 232.756 25.8 231.604 28.68H231.028V21H222.868ZM262.596 21V69H270.756V21H262.596ZM261.444 5.832C261.444 7.24 261.956 8.456 262.98 9.48C264.004 10.504 265.22 11.016 266.628 11.016C268.036 11.016 269.252 10.504 270.276 9.48C271.3 8.456 271.812 7.24 271.812 5.832C271.812 4.424 271.3 3.208 270.276 2.184C269.252 1.16 268.036 0.647999 266.628 0.647999C265.22 0.647999 264.004 1.16 262.98 2.184C261.956 3.208 261.444 4.424 261.444 5.832ZM331.679 47.112V45.096C331.679 40.808 331.071 37.096 329.855 33.96C328.639 30.824 326.975 28.232 324.863 26.184C322.815 24.136 320.415 22.6 317.663 21.576C314.911 20.552 311.999 20.04 308.927 20.04C305.663 20.04 302.655 20.616 299.903 21.768C297.151 22.856 294.751 24.488 292.703 26.664C290.655 28.776 289.055 31.368 287.903 34.44C286.751 37.448 286.175 40.872 286.175 44.712C286.175 47.912 286.655 51.048 287.615 54.12C288.639 57.128 290.143 59.848 292.127 62.28C294.175 64.648 296.735 66.568 299.807 68.04C302.943 69.448 306.623 70.152 310.847 70.152C314.943 70.152 318.719 69.448 322.175 68.04C325.631 66.568 328.639 64.488 331.199 61.8L328.127 58.728C326.783 59.88 325.503 60.936 324.287 61.896C323.135 62.856 321.951 63.656 320.735 64.296C319.519 64.936 318.239 65.448 316.895 65.832C315.615 66.152 314.175 66.312 312.575 66.312C310.783 66.312 308.863 66.056 306.815 65.544C304.831 64.968 302.975 63.976 301.247 62.568C299.519 61.16 298.079 59.208 296.927 56.712C295.775 54.216 295.199 51.016 295.199 47.112H331.679ZM295.199 43.272C295.199 40.712 295.455 38.248 295.967 35.88C296.543 33.448 297.375 31.304 298.463 29.448C299.615 27.592 301.055 26.12 302.783 25.032C304.511 23.88 306.559 23.304 308.927 23.304C313.471 23.304 316.991 25.096 319.487 28.68C322.047 32.2 323.327 37.064 323.327 43.272H295.199ZM384.308 69V37.896C384.308 36.744 384.212 35.176 384.02 33.192C383.828 31.144 383.188 29.16 382.1 27.24C381.076 25.256 379.412 23.56 377.108 22.152C374.804 20.68 371.54 19.944 367.316 19.944C365.46 19.88 363.38 20.264 361.076 21.096C358.772 21.864 356.5 23.368 354.26 25.608L352.724 27.144H352.34V21H344.18V69H352.34V39.336C352.34 36.84 352.692 34.696 353.396 32.904C354.1 31.112 355.06 29.608 356.276 28.392C357.492 27.176 358.868 26.28 360.404 25.704C362.004 25.128 363.636 24.84 365.3 24.84C367.988 24.84 370.068 25.384 371.54 26.472C373.012 27.496 374.068 28.712 374.708 30.12C375.412 31.528 375.828 32.936 375.956 34.344C376.084 35.752 376.148 36.776 376.148 37.416V69H384.308ZM424.057 65.16C421.753 65.16 419.513 64.808 417.337 64.104C415.225 63.4 413.337 62.28 411.673 60.744C410.009 59.144 408.665 57.064 407.641 54.504C406.681 51.88 406.201 48.68 406.201 44.904C406.201 41 406.745 37.704 407.833 35.016C408.921 32.264 410.265 30.088 411.865 28.488C413.529 26.824 415.353 25.64 417.337 24.936C419.321 24.168 421.209 23.784 423.001 23.784C425.945 23.784 428.505 24.552 430.681 26.088C432.857 27.624 434.297 29.512 435.001 31.752H441.625C440.985 29.448 439.961 27.56 438.553 26.088C437.145 24.552 435.513 23.336 433.657 22.44C431.865 21.48 429.913 20.84 427.801 20.52C425.753 20.136 423.769 19.944 421.849 19.944C417.817 19.944 414.265 20.616 411.193 21.96C408.121 23.24 405.529 25 403.417 27.24C401.305 29.48 399.705 32.104 398.617 35.112C397.593 38.12 397.081 41.32 397.081 44.712C397.081 48.296 397.657 51.656 398.809 54.792C399.961 57.864 401.593 60.552 403.705 62.856C405.881 65.096 408.473 66.888 411.481 68.232C414.489 69.512 417.881 70.152 421.657 70.152C425.881 70.152 429.561 69.448 432.697 68.04C435.897 66.632 438.585 65.096 440.761 63.432L437.977 59.784C435.737 61.64 433.497 63.016 431.257 63.912C429.081 64.744 426.681 65.16 424.057 65.16ZM494.804 47.112V45.096C494.804 40.808 494.196 37.096 492.98 33.96C491.764 30.824 490.1 28.232 487.988 26.184C485.94 24.136 483.54 22.6 480.788 21.576C478.036 20.552 475.124 20.04 472.052 20.04C468.788 20.04 465.78 20.616 463.028 21.768C460.276 22.856 457.876 24.488 455.828 26.664C453.78 28.776 452.18 31.368 451.028 34.44C449.876 37.448 449.3 40.872 449.3 44.712C449.3 47.912 449.78 51.048 450.74 54.12C451.764 57.128 453.268 59.848 455.252 62.28C457.3 64.648 459.86 66.568 462.932 68.04C466.068 69.448 469.748 70.152 473.972 70.152C478.068 70.152 481.844 69.448 485.3 68.04C488.756 66.568 491.764 64.488 494.324 61.8L491.252 58.728C489.908 59.88 488.628 60.936 487.412 61.896C486.26 62.856 485.076 63.656 483.86 64.296C482.644 64.936 481.364 65.448 480.02 65.832C478.74 66.152 477.3 66.312 475.7 66.312C473.908 66.312 471.988 66.056 469.94 65.544C467.956 64.968 466.1 63.976 464.372 62.568C462.644 61.16 461.204 59.208 460.052 56.712C458.9 54.216 458.324 51.016 458.324 47.112H494.804ZM458.324 43.272C458.324 40.712 458.58 38.248 459.092 35.88C459.668 33.448 460.5 31.304 461.588 29.448C462.74 27.592 464.18 26.12 465.908 25.032C467.636 23.88 469.684 23.304 472.052 23.304C476.596 23.304 480.116 25.096 482.612 28.68C485.172 32.2 486.452 37.064 486.452 43.272H458.324Z" fill="#D7E3C4"/>
</svg>
