<svg width="360" height="93" viewBox="0 0 360 93" fill="none" xmlns="http://www.w3.org/2000/svg">
<path d="M0.680001 93H8.84V61.128H9.224C9.864 62.792 10.696 64.2 11.72 65.352C12.808 66.504 14.024 67.432 15.368 68.136C16.712 68.84 18.12 69.352 19.592 69.672C21.128 69.992 22.664 70.152 24.2 70.152C27.4 70.152 30.344 69.576 33.032 68.424C35.72 67.208 38.024 65.512 39.944 63.336C41.928 61.16 43.464 58.536 44.552 55.464C45.64 52.328 46.184 48.872 46.184 45.096C46.184 41.256 45.64 37.8 44.552 34.728C43.464 31.656 41.928 29.032 39.944 26.856C38.024 24.616 35.72 22.92 33.032 21.768C30.344 20.552 27.4 19.944 24.2 19.944C16.584 19.944 11.592 22.888 9.224 28.776H8.84V21H0.680001V93ZM8.84 40.2C8.84 38.088 9.16 36.104 9.8 34.248C10.504 32.328 11.464 30.696 12.68 29.352C13.896 27.944 15.304 26.856 16.904 26.088C18.568 25.256 20.328 24.84 22.184 24.84C24.168 24.84 26.056 25.224 27.848 25.992C29.704 26.696 31.304 27.848 32.648 29.448C33.992 31.048 35.048 33.128 35.816 35.688C36.648 38.248 37.064 41.32 37.064 44.904C37.064 48.552 36.648 51.656 35.816 54.216C35.048 56.776 33.96 58.888 32.552 60.552C31.208 62.152 29.64 63.336 27.848 64.104C26.056 64.808 24.168 65.16 22.184 65.16C20.392 65.16 18.696 64.808 17.096 64.104C15.496 63.336 14.088 62.248 12.872 60.84C11.656 59.368 10.664 57.608 9.896 55.56C9.192 53.512 8.84 51.176 8.84 48.552V40.2ZM58.6175 21V69H66.7775V40.008C66.7775 37.384 67.0655 35.176 67.6415 33.384C68.2815 31.528 69.0815 30.024 70.0415 28.872C71.0015 27.72 72.0575 26.888 73.2095 26.376C74.3615 25.864 75.4815 25.608 76.5695 25.608C78.0415 25.608 79.3855 26.088 80.6015 27.048C81.8815 28.008 82.8095 28.904 83.3855 29.736L86.6495 23.784C86.0735 23.016 85.3695 22.376 84.5375 21.864C83.7695 21.352 82.9695 20.968 82.1375 20.712C81.3695 20.392 80.6335 20.2 79.9295 20.136C79.2895 20.008 78.8095 19.944 78.4895 19.944C75.8015 19.944 73.5615 20.68 71.7695 22.152C69.9775 23.624 68.5055 25.8 67.3535 28.68H66.7775V21H58.6175ZM142.122 45.096C142.122 48.424 141.546 51.624 140.394 54.696C139.242 57.704 137.578 60.36 135.402 62.664C133.29 64.968 130.698 66.792 127.626 68.136C124.618 69.48 121.226 70.152 117.45 70.152C113.61 70.152 110.122 69.48 106.986 68.136C103.914 66.728 101.29 64.872 99.1138 62.568C97.0018 60.264 95.3378 57.608 94.1218 54.6C92.9698 51.528 92.3938 48.36 92.3938 45.096C92.3938 41.768 92.9698 38.6 94.1218 35.592C95.3378 32.52 97.0018 29.832 99.1138 27.528C101.29 25.224 103.914 23.4 106.986 22.056C110.122 20.648 113.61 19.944 117.45 19.944C121.226 19.944 124.618 20.648 127.626 22.056C130.698 23.4 133.29 25.224 135.402 27.528C137.578 29.832 139.242 32.52 140.394 35.592C141.546 38.6 142.122 41.768 142.122 45.096ZM133.002 45.096C133.002 40.616 132.522 37 131.562 34.248C130.602 31.432 129.354 29.256 127.818 27.72C126.282 26.184 124.586 25.16 122.73 24.648C120.874 24.072 119.082 23.784 117.354 23.784C115.626 23.784 113.834 24.072 111.978 24.648C110.122 25.16 108.394 26.184 106.794 27.72C105.258 29.256 103.978 31.432 102.954 34.248C101.994 37 101.514 40.616 101.514 45.096C101.514 49.512 101.994 53.128 102.954 55.944C103.978 58.696 105.258 60.84 106.794 62.376C108.394 63.912 110.122 64.968 111.978 65.544C113.834 66.056 115.626 66.312 117.354 66.312C119.082 66.312 120.874 66.056 122.73 65.544C124.586 64.968 126.282 63.912 127.818 62.376C129.354 60.84 130.602 58.696 131.562 55.944C132.522 53.128 133.002 49.512 133.002 45.096ZM157.786 21V77.832C157.786 79.304 157.722 80.712 157.594 82.056C157.466 83.464 157.178 84.712 156.73 85.8C156.346 86.888 155.738 87.752 154.906 88.392C154.138 89.032 153.114 89.352 151.834 89.352C150.234 89.352 149.018 88.968 148.186 88.2C147.418 87.432 146.681 86.216 145.977 84.552L141.177 88.296C142.585 90.152 144.249 91.4 146.169 92.04C148.026 92.68 149.978 93 152.026 93C153.434 93 154.938 92.744 156.538 92.232C158.202 91.72 159.738 90.728 161.146 89.256C162.554 87.848 163.706 85.864 164.602 83.304C165.562 80.808 166.042 77.544 166.042 73.512V21H157.786ZM156.826 5.832C156.826 7.24 157.306 8.456 158.266 9.48C159.29 10.504 160.538 11.016 162.01 11.016C163.418 11.016 164.634 10.504 165.658 9.48C166.682 8.456 167.194 7.24 167.194 5.832C167.194 4.424 166.682 3.208 165.658 2.184C164.634 1.16 163.418 0.647999 162.01 0.647999C160.538 0.647999 159.29 1.16 158.266 2.184C157.306 3.208 156.826 4.424 156.826 5.832ZM225.179 47.112V45.096C225.179 40.808 224.571 37.096 223.355 33.96C222.139 30.824 220.475 28.232 218.363 26.184C216.315 24.136 213.915 22.6 211.163 21.576C208.411 20.552 205.499 20.04 202.427 20.04C199.163 20.04 196.155 20.616 193.403 21.768C190.651 22.856 188.251 24.488 186.203 26.664C184.155 28.776 182.555 31.368 181.403 34.44C180.251 37.448 179.675 40.872 179.675 44.712C179.675 47.912 180.155 51.048 181.115 54.12C182.139 57.128 183.643 59.848 185.627 62.28C187.675 64.648 190.235 66.568 193.307 68.04C196.443 69.448 200.123 70.152 204.347 70.152C208.443 70.152 212.219 69.448 215.675 68.04C219.131 66.568 222.139 64.488 224.699 61.8L221.627 58.728C220.283 59.88 219.003 60.936 217.787 61.896C216.635 62.856 215.451 63.656 214.235 64.296C213.019 64.936 211.739 65.448 210.395 65.832C209.115 66.152 207.675 66.312 206.075 66.312C204.283 66.312 202.363 66.056 200.315 65.544C198.331 64.968 196.475 63.976 194.747 62.568C193.019 61.16 191.579 59.208 190.427 56.712C189.275 54.216 188.699 51.016 188.699 47.112H225.179ZM188.699 43.272C188.699 40.712 188.955 38.248 189.467 35.88C190.043 33.448 190.875 31.304 191.963 29.448C193.115 27.592 194.555 26.12 196.283 25.032C198.011 23.88 200.059 23.304 202.427 23.304C206.971 23.304 210.491 25.096 212.987 28.68C215.547 32.2 216.827 37.064 216.827 43.272H188.699ZM261.776 65.16C259.472 65.16 257.232 64.808 255.056 64.104C252.944 63.4 251.056 62.28 249.392 60.744C247.728 59.144 246.384 57.064 245.36 54.504C244.4 51.88 243.92 48.68 243.92 44.904C243.92 41 244.464 37.704 245.552 35.016C246.64 32.264 247.984 30.088 249.584 28.488C251.248 26.824 253.072 25.64 255.056 24.936C257.04 24.168 258.928 23.784 260.72 23.784C263.664 23.784 266.224 24.552 268.4 26.088C270.576 27.624 272.016 29.512 272.72 31.752H279.344C278.704 29.448 277.68 27.56 276.272 26.088C274.864 24.552 273.232 23.336 271.376 22.44C269.584 21.48 267.632 20.84 265.52 20.52C263.472 20.136 261.488 19.944 259.568 19.944C255.536 19.944 251.984 20.616 248.912 21.96C245.84 23.24 243.248 25 241.136 27.24C239.024 29.48 237.424 32.104 236.336 35.112C235.312 38.12 234.8 41.32 234.8 44.712C234.8 48.296 235.376 51.656 236.528 54.792C237.68 57.864 239.312 60.552 241.424 62.856C243.6 65.096 246.192 66.888 249.2 68.232C252.208 69.512 255.6 70.152 259.376 70.152C263.6 70.152 267.28 69.448 270.416 68.04C273.616 66.632 276.304 65.096 278.48 63.432L275.696 59.784C273.456 61.64 271.216 63.016 268.976 63.912C266.8 64.744 264.4 65.16 261.776 65.16ZM285.099 24.84V21H293.451V6.216H301.611V21H313.227V24.84H301.611V56.712C301.611 57.48 301.643 58.376 301.707 59.4C301.771 60.36 301.963 61.288 302.283 62.184C302.603 63.016 303.083 63.72 303.723 64.296C304.427 64.872 305.387 65.16 306.603 65.16C308.139 65.16 309.419 64.584 310.443 63.432C311.467 62.28 312.299 61.032 312.939 59.688L317.451 64.296C314.315 67.432 310.763 69 306.795 69C305.131 69 303.499 68.712 301.899 68.136C300.299 67.56 298.859 66.696 297.579 65.544C296.363 64.328 295.371 62.792 294.603 60.936C293.835 59.08 293.451 56.904 293.451 54.408V24.84H285.099ZM356.523 31.944C356.523 30.216 356.075 28.616 355.179 27.144C354.283 25.672 353.035 24.424 351.435 23.4C349.899 22.312 348.075 21.48 345.963 20.904C343.915 20.264 341.707 19.944 339.339 19.944C337.099 19.944 334.987 20.232 333.003 20.808C331.083 21.384 329.387 22.248 327.915 23.4C326.507 24.552 325.387 25.992 324.555 27.72C323.723 29.384 323.307 31.336 323.307 33.576C323.307 36.648 324.011 39.08 325.419 40.872C326.827 42.664 328.587 44.104 330.699 45.192C332.811 46.28 335.083 47.176 337.515 47.88C340.011 48.52 342.315 49.256 344.427 50.088C346.539 50.856 348.299 51.848 349.707 53.064C351.115 54.28 351.819 55.944 351.819 58.056C351.819 58.952 351.659 59.88 351.339 60.84C351.083 61.8 350.571 62.696 349.803 63.528C349.035 64.296 347.979 64.968 346.635 65.544C345.291 66.056 343.595 66.312 341.547 66.312C338.987 66.312 336.811 65.928 335.019 65.16C333.291 64.328 331.851 63.368 330.699 62.28C329.611 61.128 328.811 59.976 328.299 58.824C327.851 57.672 327.627 56.712 327.627 55.944H321.387C321.387 57.736 321.803 59.496 322.635 61.224C323.467 62.888 324.715 64.392 326.379 65.736C328.107 67.08 330.187 68.168 332.619 69C335.115 69.768 337.995 70.152 341.259 70.152C347.147 70.152 351.563 68.872 354.507 66.312C357.515 63.688 359.019 60.264 359.019 56.04C359.019 52.968 358.283 50.504 356.811 48.648C355.403 46.792 353.611 45.32 351.435 44.232C349.259 43.08 346.891 42.152 344.331 41.448C341.835 40.744 339.499 40.008 337.323 39.24C335.147 38.472 333.323 37.544 331.851 36.456C330.443 35.368 329.739 33.832 329.739 31.848C329.739 31.016 329.899 30.152 330.219 29.256C330.539 28.296 331.083 27.432 331.851 26.664C332.619 25.832 333.643 25.16 334.923 24.648C336.203 24.072 337.803 23.784 339.723 23.784C341.643 23.784 343.307 24.072 344.715 24.648C346.123 25.16 347.307 25.832 348.267 26.664C349.227 27.432 349.931 28.296 350.379 29.256C350.827 30.216 351.051 31.112 351.051 31.944H356.523Z" fill="#B9E1E7"/>
</svg>
