<svg width="184" height="31" viewBox="0 0 184 31" fill="none" xmlns="http://www.w3.org/2000/svg">
<path d="M0.00800014 1.6H4.168V24H0.00800014V1.6ZM11.1548 0.0319996C11.9014 0.0319996 12.5201 0.277333 13.0108 0.768C13.5014 1.25867 13.7468 1.888 13.7468 2.656C13.7468 3.04 13.6934 3.41333 13.5868 3.776C13.5014 4.13867 13.3201 4.68267 13.0428 5.408L11.3788 9.952H8.78675L10.0668 5.024C9.59742 4.85333 9.22408 4.56533 8.94675 4.16C8.69075 3.73333 8.56275 3.232 8.56275 2.656C8.56275 1.888 8.80808 1.25867 9.29875 0.768C9.78942 0.277333 10.4081 0.0319996 11.1548 0.0319996ZM39.2233 6.72C41.3779 6.72 43.0846 7.34933 44.3433 8.608C45.6019 9.84533 46.2313 11.712 46.2313 14.208V24H42.2313V14.72C42.2313 13.2267 41.9006 12.1067 41.2393 11.36C40.5779 10.592 39.6286 10.208 38.3913 10.208C37.0473 10.208 35.9699 10.656 35.1593 11.552C34.3486 12.4267 33.9433 13.6853 33.9433 15.328V24H29.9433V14.72C29.9433 13.2267 29.6126 12.1067 28.9513 11.36C28.2899 10.592 27.3406 10.208 26.1033 10.208C24.7379 10.208 23.6499 10.6453 22.8393 11.52C22.0499 12.3947 21.6553 13.664 21.6553 15.328V24H17.6553V6.912H21.4633V9.088C22.1033 8.32 22.9033 7.73333 23.8633 7.328C24.8233 6.92267 25.8899 6.72 27.0633 6.72C28.3433 6.72 29.4739 6.96533 30.4553 7.456C31.4579 7.92533 32.2473 8.62933 32.8233 9.568C33.5273 8.672 34.4339 7.97867 35.5433 7.488C36.6526 6.976 37.8793 6.72 39.2233 6.72ZM70.9385 24.32C68.6772 24.32 66.6292 23.8293 64.7945 22.848C62.9812 21.8453 61.5518 20.4693 60.5065 18.72C59.4825 16.9707 58.9705 14.9973 58.9705 12.8C58.9705 10.6027 59.4932 8.62933 60.5385 6.88C61.5838 5.13067 63.0132 3.76533 64.8265 2.784C66.6612 1.78133 68.7092 1.28 70.9705 1.28C72.8052 1.28 74.4798 1.6 75.9945 2.24C77.5092 2.88 78.7892 3.808 79.8345 5.024L77.1465 7.552C75.5252 5.80267 73.5305 4.928 71.1625 4.928C69.6265 4.928 68.2505 5.26933 67.0345 5.952C65.8185 6.61333 64.8692 7.54133 64.1865 8.736C63.5038 9.93067 63.1625 11.2853 63.1625 12.8C63.1625 14.3147 63.5038 15.6693 64.1865 16.864C64.8692 18.0587 65.8185 18.9973 67.0345 19.68C68.2505 20.3413 69.6265 20.672 71.1625 20.672C73.5305 20.672 75.5252 19.7867 77.1465 18.016L79.8345 20.576C78.7892 21.792 77.4985 22.72 75.9625 23.36C74.4478 24 72.7732 24.32 70.9385 24.32ZM93.1325 6.72C95.2872 6.72 97.0152 7.34933 98.3165 8.608C99.6178 9.86667 100.269 11.7333 100.269 14.208V24H96.2685V14.72C96.2685 13.2267 95.9165 12.1067 95.2125 11.36C94.5085 10.592 93.5058 10.208 92.2045 10.208C90.7325 10.208 89.5698 10.656 88.7165 11.552C87.8632 12.4267 87.4365 13.696 87.4365 15.36V24H83.4365V0.255999H87.4365V8.896C88.0978 8.192 88.9085 7.65867 89.8685 7.296C90.8498 6.912 91.9378 6.72 93.1325 6.72ZM121.563 15.552C121.563 15.8293 121.542 16.224 121.499 16.736H108.091C108.326 17.9947 108.934 18.9973 109.915 19.744C110.918 20.4693 112.155 20.832 113.627 20.832C115.504 20.832 117.051 20.2133 118.267 18.976L120.411 21.44C119.643 22.3573 118.672 23.0507 117.499 23.52C116.326 23.9893 115.003 24.224 113.531 24.224C111.654 24.224 110 23.8507 108.571 23.104C107.142 22.3573 106.032 21.3227 105.243 20C104.475 18.656 104.091 17.1413 104.091 15.456C104.091 13.792 104.464 12.2987 105.211 10.976C105.979 9.632 107.035 8.58667 108.379 7.84C109.723 7.09333 111.238 6.72 112.923 6.72C114.587 6.72 116.07 7.09333 117.371 7.84C118.694 8.56533 119.718 9.6 120.443 10.944C121.19 12.2667 121.563 13.8027 121.563 15.552ZM112.923 9.92C111.643 9.92 110.555 10.304 109.659 11.072C108.784 11.8187 108.251 12.8213 108.059 14.08H117.755C117.584 12.8427 117.062 11.84 116.187 11.072C115.312 10.304 114.224 9.92 112.923 9.92ZM129.213 9.408C130.365 7.616 132.392 6.72 135.293 6.72V10.528C134.952 10.464 134.643 10.432 134.365 10.432C132.808 10.432 131.592 10.8907 130.717 11.808C129.843 12.704 129.405 14.0053 129.405 15.712V24H125.405V6.912H129.213V9.408ZM155.312 6.912L147.312 25.376C146.565 27.232 145.658 28.5333 144.592 29.28C143.525 30.048 142.234 30.432 140.72 30.432C139.866 30.432 139.024 30.2933 138.192 30.016C137.36 29.7387 136.677 29.3547 136.143 28.864L137.743 25.92C138.128 26.2827 138.576 26.5707 139.088 26.784C139.621 26.9973 140.154 27.104 140.688 27.104C141.392 27.104 141.968 26.9227 142.416 26.56C142.885 26.1973 143.312 25.5893 143.696 24.736L143.984 24.064L136.527 6.912H140.688L146.064 19.552L151.472 6.912H155.312ZM157.812 0.255999H161.812V24H157.812V0.255999ZM179.137 24.336C178.049 24.336 177.121 23.968 176.353 23.232C175.585 22.464 175.201 21.504 175.201 20.352C175.201 19.168 175.569 18.208 176.305 17.472C177.073 16.736 178.017 16.368 179.137 16.368C180.257 16.368 181.185 16.736 181.921 17.472C182.689 18.208 183.073 19.168 183.073 20.352C183.073 21.504 182.689 22.464 181.921 23.232C181.153 23.968 180.225 24.336 179.137 24.336Z" fill="white"/>
</svg>
