<svg width="258" height="70" viewBox="0 0 258 70" fill="none" xmlns="http://www.w3.org/2000/svg">
<path d="M22.344 18.944C27.016 18.944 30.632 19.616 33.192 20.96C35.752 22.24 37.608 23.936 38.76 26.048C39.976 28.16 40.68 30.592 40.872 33.344C41.064 36.096 41.16 38.912 41.16 41.792V68H33.384V63.296C31.528 65.088 29.16 66.528 26.28 67.616C23.4 68.64 20.52 69.152 17.64 69.152C14.888 69.152 12.456 68.672 10.344 67.712C8.232 66.752 6.472 65.504 5.064 63.968C3.656 62.432 2.6 60.704 1.896 58.784C1.192 56.864 0.84 54.912 0.84 52.928C0.84 50.88 1.224 48.832 1.992 46.784C2.76 44.736 3.912 42.912 5.448 41.312C6.984 39.648 8.872 38.304 11.112 37.28C13.352 36.256 15.912 35.744 18.792 35.744C21.672 35.744 24.392 36.32 26.952 37.472C29.576 38.56 31.72 40.128 33.384 42.176V38.048C33.384 32.8 32.584 28.896 30.984 26.336C29.448 23.776 26.6 22.496 22.44 22.496C20.648 22.496 19.08 22.72 17.736 23.168C16.392 23.616 15.176 24.256 14.088 25.088C13.064 25.856 12.104 26.848 11.208 28.064C10.312 29.216 9.416 30.528 8.52 32L3.528 27.008C4.424 26.048 5.352 25.088 6.312 24.128C7.336 23.168 8.552 22.304 9.96 21.536C11.432 20.768 13.16 20.16 15.144 19.712C17.128 19.2 19.528 18.944 22.344 18.944ZM33.384 48.992C33.064 48.224 32.584 47.328 31.944 46.304C31.368 45.28 30.6 44.288 29.64 43.328C28.68 42.368 27.528 41.568 26.184 40.928C24.84 40.224 23.24 39.872 21.384 39.872C19.528 39.872 17.832 40.256 16.296 41.024C14.76 41.728 13.448 42.688 12.36 43.904C11.336 45.056 10.536 46.432 9.96 48.032C9.384 49.632 9.096 51.296 9.096 53.024C9.096 55.072 9.448 56.864 10.152 58.4C10.92 59.872 11.88 61.152 13.032 62.24C14.184 63.264 15.464 64.032 16.872 64.544C18.28 65.056 19.624 65.312 20.904 65.312C22.12 65.312 23.336 65.088 24.552 64.64C25.832 64.192 27.016 63.584 28.104 62.816C29.256 61.984 30.28 61.024 31.176 59.936C32.072 58.848 32.808 57.664 33.384 56.384V48.992ZM56.5238 0.799995H64.6838V27.872H65.0678C65.7078 26.208 66.5398 24.832 67.5638 23.744C68.6518 22.592 69.8678 21.664 71.2118 20.96C72.5558 20.256 73.9638 19.744 75.4358 19.424C76.9718 19.104 78.5078 18.944 80.0438 18.944C83.2438 18.944 86.1878 19.552 88.8758 20.768C91.5638 21.92 93.8678 23.584 95.7878 25.76C97.7718 27.936 99.3078 30.56 100.396 33.632C101.484 36.704 102.028 40.128 102.028 43.904C102.028 47.744 101.484 51.232 100.396 54.368C99.3078 57.44 97.7718 60.096 95.7878 62.336C93.8678 64.512 91.5638 66.208 88.8758 67.424C86.1878 68.576 83.2438 69.152 80.0438 69.152C72.4278 69.152 67.4358 66.176 65.0678 60.224H64.6838V68H56.5238V0.799995ZM64.6838 48.8C64.6838 50.912 65.0038 52.928 65.6438 54.848C66.3478 56.704 67.3078 58.336 68.5238 59.744C69.7398 61.088 71.1478 62.176 72.7478 63.008C74.4118 63.776 76.1718 64.16 78.0278 64.16C80.0118 64.16 81.8998 63.808 83.6918 63.104C85.5478 62.336 87.1478 61.152 88.4918 59.552C89.8358 57.952 90.8918 55.872 91.6598 53.312C92.4918 50.752 92.9078 47.68 92.9078 44.096C92.9078 40.448 92.4918 37.344 91.6598 34.784C90.8918 32.224 89.8038 30.144 88.3958 28.544C87.0518 26.88 85.4838 25.696 83.6918 24.992C81.8998 24.224 80.0118 23.84 78.0278 23.84C76.2358 23.84 74.5398 24.224 72.9398 24.992C71.3398 25.696 69.9318 26.784 68.7158 28.256C67.4998 29.664 66.5078 31.392 65.7398 33.44C65.0358 35.488 64.6838 37.824 64.6838 40.448V48.8ZM161.309 44.096C161.309 47.424 160.733 50.624 159.581 53.696C158.429 56.704 156.765 59.36 154.589 61.664C152.477 63.968 149.885 65.792 146.813 67.136C143.805 68.48 140.413 69.152 136.637 69.152C132.797 69.152 129.309 68.48 126.173 67.136C123.101 65.728 120.477 63.872 118.301 61.568C116.189 59.264 114.525 56.608 113.309 53.6C112.157 50.528 111.581 47.36 111.581 44.096C111.581 40.768 112.157 37.6 113.309 34.592C114.525 31.52 116.189 28.832 118.301 26.528C120.477 24.224 123.101 22.4 126.173 21.056C129.309 19.648 132.797 18.944 136.637 18.944C140.413 18.944 143.805 19.648 146.813 21.056C149.885 22.4 152.477 24.224 154.589 26.528C156.765 28.832 158.429 31.52 159.581 34.592C160.733 37.6 161.309 40.768 161.309 44.096ZM152.189 44.096C152.189 39.616 151.709 36 150.749 33.248C149.789 30.432 148.541 28.256 147.005 26.72C145.469 25.184 143.773 24.16 141.917 23.648C140.061 23.072 138.269 22.784 136.541 22.784C134.813 22.784 133.021 23.072 131.165 23.648C129.309 24.16 127.581 25.184 125.981 26.72C124.445 28.256 123.165 30.432 122.141 33.248C121.181 36 120.701 39.616 120.701 44.096C120.701 48.512 121.181 52.128 122.141 54.944C123.165 57.696 124.445 59.84 125.981 61.376C127.581 62.912 129.309 63.968 131.165 64.544C133.021 65.056 134.813 65.312 136.541 65.312C138.269 65.312 140.061 65.056 141.917 64.544C143.773 63.968 145.469 62.912 147.005 61.376C148.541 59.84 149.789 57.696 150.749 54.944C151.709 52.128 152.189 48.512 152.189 44.096ZM173.805 20V51.2C173.805 52.352 173.901 53.952 174.093 56C174.349 57.984 175.021 59.968 176.109 61.952C177.197 63.872 178.893 65.568 181.197 67.04C183.565 68.448 186.861 69.152 191.085 69.152C192.941 69.216 194.957 68.832 197.133 68C199.373 67.232 201.613 65.728 203.853 63.488L205.389 61.952H205.773V68H213.933V20H205.773V49.76C205.773 52.256 205.421 54.4 204.717 56.192C204.013 57.984 203.085 59.488 201.933 60.704C200.781 61.856 199.437 62.72 197.901 63.296C196.365 63.872 194.765 64.16 193.101 64.16C190.413 64.16 188.301 63.648 186.765 62.624C185.293 61.536 184.173 60.288 183.405 58.88C182.701 57.472 182.285 56.096 182.157 54.752C182.029 53.344 181.965 52.32 181.965 51.68V20H173.805ZM224.786 23.84V20H233.138V5.216H241.298V20H252.914V23.84H241.298V55.712C241.298 56.48 241.33 57.376 241.394 58.4C241.458 59.36 241.65 60.288 241.97 61.184C242.29 62.016 242.77 62.72 243.41 63.296C244.114 63.872 245.074 64.16 246.29 64.16C247.826 64.16 249.106 63.584 250.13 62.432C251.154 61.28 251.986 60.032 252.626 58.688L257.138 63.296C254.002 66.432 250.45 68 246.482 68C244.818 68 243.186 67.712 241.586 67.136C239.986 66.56 238.546 65.696 237.266 64.544C236.05 63.328 235.058 61.792 234.29 59.936C233.522 58.08 233.138 55.904 233.138 53.408V23.84H224.786Z" fill="#D0E0E9"/>
</svg>
