<svg width="806" height="373" viewBox="0 0 806 373" fill="none" xmlns="http://www.w3.org/2000/svg">
<rect x="0.5" y="0.5" width="805" height="372" fill="#EEEEEE" stroke="#C0C0C0"/>
<path d="M235.161 185.368C235.234 186.67 235.541 187.727 236.082 188.54C237.114 190.06 238.931 190.821 241.536 190.821C242.702 190.821 243.765 190.654 244.723 190.321C246.577 189.675 247.504 188.519 247.504 186.852C247.504 185.602 247.114 184.711 246.332 184.18C245.541 183.659 244.301 183.206 242.614 182.821L239.504 182.118C237.473 181.659 236.036 181.154 235.192 180.602C233.734 179.644 233.004 178.211 233.004 176.305C233.004 174.243 233.718 172.55 235.145 171.227C236.572 169.904 238.593 169.243 241.207 169.243C243.614 169.243 245.655 169.826 247.332 170.993C249.02 172.149 249.864 174.003 249.864 176.555H246.942C246.786 175.326 246.452 174.383 245.942 173.727C244.994 172.529 243.385 171.93 241.114 171.93C239.28 171.93 237.963 172.316 237.161 173.086C236.359 173.857 235.957 174.753 235.957 175.774C235.957 176.899 236.426 177.722 237.364 178.243C237.978 178.576 239.369 178.993 241.536 179.493L244.754 180.227C246.306 180.581 247.504 181.066 248.348 181.68C249.806 182.753 250.536 184.31 250.536 186.352C250.536 188.894 249.609 190.711 247.754 191.805C245.911 192.899 243.765 193.446 241.317 193.446C238.463 193.446 236.228 192.717 234.614 191.258C232.999 189.81 232.207 187.847 232.239 185.368H235.161ZM277.265 169.196C280.171 169.196 282.426 169.961 284.031 171.493C285.635 173.024 286.525 174.764 286.702 176.711H283.671C283.327 175.232 282.64 174.06 281.609 173.196C280.588 172.331 279.15 171.899 277.296 171.899C275.036 171.899 273.208 172.696 271.812 174.29C270.426 175.873 269.734 178.305 269.734 181.586C269.734 184.274 270.359 186.456 271.609 188.133C272.869 189.8 274.744 190.633 277.234 190.633C279.525 190.633 281.27 189.753 282.468 187.993C283.103 187.066 283.577 185.847 283.89 184.336H286.921C286.65 186.753 285.755 188.779 284.234 190.415C282.411 192.383 279.952 193.368 276.859 193.368C274.192 193.368 271.952 192.56 270.14 190.946C267.755 188.81 266.562 185.514 266.562 181.055C266.562 177.67 267.458 174.894 269.249 172.727C271.187 170.373 273.859 169.196 277.265 169.196ZM314.51 180.336C315.968 180.336 317.119 180.045 317.963 179.461C318.817 178.878 319.244 177.826 319.244 176.305C319.244 174.67 318.651 173.555 317.463 172.961C316.828 172.649 315.979 172.493 314.916 172.493H307.322V180.336H314.51ZM304.213 169.821H314.838C316.588 169.821 318.031 170.076 319.166 170.586C321.322 171.566 322.401 173.373 322.401 176.008C322.401 177.383 322.114 178.508 321.541 179.383C320.979 180.258 320.187 180.961 319.166 181.493C320.062 181.857 320.734 182.336 321.182 182.93C321.64 183.524 321.895 184.487 321.947 185.821L322.057 188.899C322.088 189.774 322.161 190.425 322.276 190.852C322.463 191.581 322.796 192.05 323.276 192.258V192.774H319.463C319.359 192.576 319.276 192.321 319.213 192.008C319.151 191.696 319.098 191.092 319.057 190.196L318.869 186.368C318.796 184.868 318.239 183.862 317.197 183.352C316.604 183.071 315.671 182.93 314.401 182.93H307.322V192.774H304.213V169.821ZM340.38 169.821H357.114V172.633H343.411V179.602H356.083V182.258H343.411V190.04H357.349V192.774H340.38V169.821ZM374.844 169.821H391.578V172.633H377.875V179.602H390.547V182.258H377.875V190.04H391.812V192.774H374.844V169.821ZM409.011 169.821H412.682L424.276 188.415V169.821H427.229V192.774H423.745L411.979 174.196V192.774H409.011V169.821ZM447.287 185.368C447.36 186.67 447.667 187.727 448.209 188.54C449.24 190.06 451.058 190.821 453.662 190.821C454.829 190.821 455.891 190.654 456.849 190.321C458.704 189.675 459.631 188.519 459.631 186.852C459.631 185.602 459.24 184.711 458.459 184.18C457.667 183.659 456.427 183.206 454.74 182.821L451.631 182.118C449.599 181.659 448.162 181.154 447.318 180.602C445.86 179.644 445.131 178.211 445.131 176.305C445.131 174.243 445.844 172.55 447.271 171.227C448.698 169.904 450.719 169.243 453.334 169.243C455.74 169.243 457.782 169.826 459.459 170.993C461.146 172.149 461.99 174.003 461.99 176.555H459.068C458.912 175.326 458.579 174.383 458.068 173.727C457.12 172.529 455.511 171.93 453.24 171.93C451.407 171.93 450.089 172.316 449.287 173.086C448.485 173.857 448.084 174.753 448.084 175.774C448.084 176.899 448.552 177.722 449.49 178.243C450.105 178.576 451.495 178.993 453.662 179.493L456.881 180.227C458.433 180.581 459.631 181.066 460.474 181.68C461.933 182.753 462.662 184.31 462.662 186.352C462.662 188.894 461.735 190.711 459.881 191.805C458.037 192.899 455.891 193.446 453.443 193.446C450.589 193.446 448.355 192.717 446.74 191.258C445.125 189.81 444.334 187.847 444.365 185.368H447.287ZM479.797 169.821H482.938V179.305H494.876V169.821H498.016V192.774H494.876V182.04H482.938V192.774H479.797V169.821ZM525.871 169.196C529.923 169.196 532.923 170.498 534.871 173.102C536.391 175.133 537.152 177.732 537.152 180.899C537.152 184.326 536.282 187.175 534.542 189.446C532.501 192.112 529.589 193.446 525.808 193.446C522.277 193.446 519.501 192.279 517.48 189.946C515.678 187.696 514.777 184.852 514.777 181.415C514.777 178.31 515.548 175.654 517.089 173.446C519.068 170.612 521.996 169.196 525.871 169.196ZM526.183 190.665C528.923 190.665 530.902 189.685 532.121 187.727C533.35 185.758 533.964 183.498 533.964 180.946C533.964 178.248 533.256 176.076 531.839 174.43C530.433 172.784 528.506 171.961 526.058 171.961C523.683 171.961 521.746 172.779 520.246 174.415C518.746 176.04 517.996 178.441 517.996 181.618C517.996 184.159 518.636 186.305 519.917 188.055C521.209 189.795 523.298 190.665 526.183 190.665ZM570.694 169.821V172.555H562.959V192.774H559.803V172.555H552.069V169.821H570.694Z" fill="#F9F9F9"/>
</svg>
