<svg width="257" height="156" viewBox="0 0 257 156" fill="none" xmlns="http://www.w3.org/2000/svg">
<path d="M0.6 16L14.44 56H18.76L28.04 29.2H28.36L38.76 56H42.52L57.08 16H52.92L42.04 45.92H41.72L30.36 16H28.76L18.28 46.16H17.96L7.56 16H0.6ZM104.128 36.08C104.128 38.8533 103.648 41.52 102.688 44.08C101.728 46.5867 100.341 48.8 98.5275 50.72C96.7675 52.64 94.6075 54.16 92.0475 55.28C89.5408 56.4 86.7142 56.96 83.5675 56.96C80.3675 56.96 77.4608 56.4 74.8475 55.28C72.2875 54.1067 70.1008 52.56 68.2875 50.64C66.5275 48.72 65.1408 46.5067 64.1275 44C63.1675 41.44 62.6875 38.8 62.6875 36.08C62.6875 33.3067 63.1675 30.6667 64.1275 28.16C65.1408 25.6 66.5275 23.36 68.2875 21.44C70.1008 19.52 72.2875 18 74.8475 16.88C77.4608 15.7067 80.3675 15.12 83.5675 15.12C86.7142 15.12 89.5408 15.7067 92.0475 16.88C94.6075 18 96.7675 19.52 98.5275 21.44C100.341 23.36 101.728 25.6 102.688 28.16C103.648 30.6667 104.128 33.3067 104.128 36.08ZM96.5275 36.08C96.5275 32.3467 96.1275 29.3333 95.3275 27.04C94.5275 24.6933 93.4875 22.88 92.2075 21.6C90.9275 20.32 89.5142 19.4667 87.9675 19.04C86.4208 18.56 84.9275 18.32 83.4875 18.32C82.0475 18.32 80.5542 18.56 79.0075 19.04C77.4608 19.4667 76.0208 20.32 74.6875 21.6C73.4075 22.88 72.3408 24.6933 71.4875 27.04C70.6875 29.3333 70.2875 32.3467 70.2875 36.08C70.2875 39.76 70.6875 42.7733 71.4875 45.12C72.3408 47.4133 73.4075 49.2 74.6875 50.48C76.0208 51.76 77.4608 52.64 79.0075 53.12C80.5542 53.5467 82.0475 53.76 83.4875 53.76C84.9275 53.76 86.4208 53.5467 87.9675 53.12C89.5142 52.64 90.9275 51.76 92.2075 50.48C93.4875 49.2 94.5275 47.4133 95.3275 45.12C96.1275 42.7733 96.5275 39.76 96.5275 36.08ZM114.541 16V56H121.341V31.84C121.341 29.6533 121.581 27.8133 122.061 26.32C122.594 24.7733 123.261 23.52 124.061 22.56C124.861 21.6 125.741 20.9067 126.701 20.48C127.661 20.0533 128.594 19.84 129.501 19.84C130.727 19.84 131.847 20.24 132.861 21.04C133.927 21.84 134.701 22.5867 135.181 23.28L137.901 18.32C137.421 17.68 136.834 17.1467 136.141 16.72C135.501 16.2933 134.834 15.9733 134.141 15.76C133.501 15.4933 132.887 15.3333 132.301 15.28C131.767 15.1733 131.367 15.12 131.101 15.12C128.861 15.12 126.994 15.7333 125.501 16.96C124.007 18.1867 122.781 20 121.821 22.4H121.341V16H114.541ZM151.888 -3.8147e-06H145.088V56H151.888V40.96L156.528 36.24L172.608 56H181.568L161.488 31.36L176.768 16H171.568L151.888 35.84V-3.8147e-06ZM5.4 80V136H12.2V112.88C12.2 111.813 12.28 110.507 12.44 108.96C12.6 107.413 13.0267 105.92 13.72 104.48C14.4667 103.04 15.56 101.813 17 100.8C18.44 99.7333 20.44 99.2 23 99.2C24.8133 99.2 26.2533 99.5467 27.32 100.24C28.44 100.88 29.2933 101.76 29.88 102.88C30.4667 104 30.84 105.307 31 106.8C31.2133 108.293 31.32 109.84 31.32 111.44V136H38.12V109.6C38.12 106.613 37.6933 104.187 36.84 102.32C35.9867 100.4 34.92 98.9067 33.64 97.84C32.36 96.7733 30.9467 96.0533 29.4 95.68C27.9067 95.3067 26.4667 95.12 25.08 95.12C23.2133 95.12 21.24 95.4933 19.16 96.24C17.1333 96.9333 15.2133 98.2933 13.4 100.32L12.52 101.44H12.2V80H5.4ZM53.5069 96V136H60.3069V96H53.5069ZM52.5469 83.36C52.5469 84.5333 52.9735 85.5467 53.8269 86.4C54.6802 87.2533 55.6935 87.68 56.8669 87.68C58.0402 87.68 59.0535 87.2533 59.9069 86.4C60.7602 85.5467 61.1869 84.5333 61.1869 83.36C61.1869 82.1867 60.7602 81.1733 59.9069 80.32C59.0535 79.4667 58.0402 79.04 56.8669 79.04C55.6935 79.04 54.6802 79.4667 53.8269 80.32C52.9735 81.1733 52.5469 82.1867 52.5469 83.36ZM101.076 105.12C101.076 103.68 100.703 102.347 99.9563 101.12C99.2096 99.8933 98.1696 98.8533 96.8363 98C95.5563 97.0933 94.0363 96.4 92.2763 95.92C90.5696 95.3867 88.7296 95.12 86.7563 95.12C84.8896 95.12 83.1296 95.36 81.4763 95.84C79.8763 96.32 78.4629 97.04 77.2363 98C76.0629 98.96 75.1296 100.16 74.4362 101.6C73.7429 102.987 73.3963 104.613 73.3963 106.48C73.3963 109.04 73.9829 111.067 75.1563 112.56C76.3296 114.053 77.7963 115.253 79.5563 116.16C81.3163 117.067 83.2096 117.813 85.2363 118.4C87.3163 118.933 89.2363 119.547 90.9963 120.24C92.7563 120.88 94.2229 121.707 95.3963 122.72C96.5696 123.733 97.1563 125.12 97.1563 126.88C97.1563 127.627 97.0229 128.4 96.7563 129.2C96.5429 130 96.1163 130.747 95.4763 131.44C94.8363 132.08 93.9563 132.64 92.8363 133.12C91.7163 133.547 90.3029 133.76 88.5963 133.76C86.4629 133.76 84.6496 133.44 83.1563 132.8C81.7163 132.107 80.5163 131.307 79.5563 130.4C78.6496 129.44 77.9829 128.48 77.5563 127.52C77.1829 126.56 76.9963 125.76 76.9963 125.12H71.7962C71.7962 126.613 72.1429 128.08 72.8363 129.52C73.5296 130.907 74.5696 132.16 75.9563 133.28C77.3963 134.4 79.1296 135.307 81.1563 136C83.2363 136.64 85.6363 136.96 88.3563 136.96C93.2629 136.96 96.9429 135.893 99.3963 133.76C101.903 131.573 103.156 128.72 103.156 125.2C103.156 122.64 102.543 120.587 101.316 119.04C100.143 117.493 98.6496 116.267 96.8363 115.36C95.0229 114.4 93.0496 113.627 90.9163 113.04C88.8363 112.453 86.8896 111.84 85.0763 111.2C83.2629 110.56 81.7429 109.787 80.5163 108.88C79.3429 107.973 78.7563 106.693 78.7563 105.04C78.7563 104.347 78.8896 103.627 79.1562 102.88C79.4229 102.08 79.8763 101.36 80.5163 100.72C81.1563 100.027 82.0096 99.4667 83.0763 99.04C84.1429 98.56 85.4763 98.32 87.0763 98.32C88.6763 98.32 90.0629 98.56 91.2363 99.04C92.4096 99.4667 93.3963 100.027 94.1963 100.72C94.9963 101.36 95.5829 102.08 95.9563 102.88C96.3296 103.68 96.5163 104.427 96.5163 105.12H101.076ZM109.994 99.2V96H116.954V83.68H123.754V96H133.434V99.2H123.754V125.76C123.754 126.4 123.78 127.147 123.834 128C123.887 128.8 124.047 129.573 124.314 130.32C124.58 131.013 124.98 131.6 125.514 132.08C126.1 132.56 126.9 132.8 127.914 132.8C129.194 132.8 130.26 132.32 131.114 131.36C131.967 130.4 132.66 129.36 133.194 128.24L136.954 132.08C134.34 134.693 131.38 136 128.074 136C126.687 136 125.327 135.76 123.994 135.28C122.66 134.8 121.46 134.08 120.394 133.12C119.38 132.107 118.554 130.827 117.914 129.28C117.274 127.733 116.954 125.92 116.954 123.84V99.2H109.994ZM183.034 116.08C183.034 118.853 182.554 121.52 181.594 124.08C180.634 126.587 179.247 128.8 177.434 130.72C175.674 132.64 173.514 134.16 170.954 135.28C168.447 136.4 165.62 136.96 162.474 136.96C159.274 136.96 156.367 136.4 153.754 135.28C151.194 134.107 149.007 132.56 147.194 130.64C145.434 128.72 144.047 126.507 143.034 124C142.074 121.44 141.594 118.8 141.594 116.08C141.594 113.307 142.074 110.667 143.034 108.16C144.047 105.6 145.434 103.36 147.194 101.44C149.007 99.52 151.194 98 153.754 96.88C156.367 95.7067 159.274 95.12 162.474 95.12C165.62 95.12 168.447 95.7067 170.954 96.88C173.514 98 175.674 99.52 177.434 101.44C179.247 103.36 180.634 105.6 181.594 108.16C182.554 110.667 183.034 113.307 183.034 116.08ZM175.434 116.08C175.434 112.347 175.034 109.333 174.234 107.04C173.434 104.693 172.394 102.88 171.114 101.6C169.834 100.32 168.42 99.4667 166.874 99.04C165.327 98.56 163.834 98.32 162.394 98.32C160.954 98.32 159.46 98.56 157.914 99.04C156.367 99.4667 154.927 100.32 153.594 101.6C152.314 102.88 151.247 104.693 150.394 107.04C149.594 109.333 149.194 112.347 149.194 116.08C149.194 119.76 149.594 122.773 150.394 125.12C151.247 127.413 152.314 129.2 153.594 130.48C154.927 131.76 156.367 132.64 157.914 133.12C159.46 133.547 160.954 133.76 162.394 133.76C163.834 133.76 165.327 133.547 166.874 133.12C168.42 132.64 169.834 131.76 171.114 130.48C172.394 129.2 173.434 127.413 174.234 125.12C175.034 122.773 175.434 119.76 175.434 116.08ZM193.447 96V136H200.247V111.84C200.247 109.653 200.487 107.813 200.967 106.32C201.5 104.773 202.167 103.52 202.967 102.56C203.767 101.6 204.647 100.907 205.607 100.48C206.567 100.053 207.5 99.84 208.407 99.84C209.634 99.84 210.754 100.24 211.767 101.04C212.834 101.84 213.607 102.587 214.087 103.28L216.807 98.32C216.327 97.68 215.74 97.1467 215.047 96.72C214.407 96.2933 213.74 95.9733 213.047 95.76C212.407 95.4933 211.794 95.3333 211.207 95.28C210.674 95.1733 210.274 95.12 210.007 95.12C207.767 95.12 205.9 95.7333 204.407 96.96C202.914 98.1867 201.687 100 200.727 102.4H200.247V96H193.447ZM239.514 126.64L225.674 96H218.394L236.314 135.52L232.074 145.92C231.594 147.147 230.954 148.133 230.154 148.88C229.407 149.627 228.527 150 227.514 150C226.554 150 225.62 149.707 224.714 149.12C223.86 148.587 223.194 147.787 222.714 146.72L219.194 153.36C220.207 154.267 221.327 154.933 222.554 155.36C223.78 155.787 224.927 156 225.994 156C227.487 156 228.794 155.627 229.914 154.88C231.034 154.133 232.02 153.147 232.874 151.92C233.727 150.747 234.474 149.413 235.114 147.92C235.754 146.48 236.367 145.04 236.954 143.6L256.314 96H252.394L239.834 126.64H239.514Z" fill="#D7E3C4"/>
</svg>
