<svg width="252" height="46" viewBox="0 0 252 46" fill="none" xmlns="http://www.w3.org/2000/svg">
<path d="M4.60019 12.16C3.93885 12.16 3.33085 11.9947 2.77619 11.664C2.22152 11.3333 1.77885 10.8587 1.44819 10.24C1.11752 9.61067 0.952188 8.864 0.952188 8C0.952188 7.11467 1.12819 6.36267 1.48019 5.744C1.83219 5.12533 2.29619 4.656 2.87219 4.336C3.44819 4.00533 4.06685 3.84 4.72819 3.84C5.38952 3.84 5.96019 4.01067 6.44019 4.352C6.93085 4.69333 7.25619 5.14667 7.41619 5.712L7.25619 5.824V0.32H8.53619V12H7.41619L7.30419 10.064L7.48019 9.968C7.40552 10.4373 7.22419 10.8373 6.93619 11.168C6.65885 11.488 6.31219 11.7333 5.89619 11.904C5.49085 12.0747 5.05885 12.16 4.60019 12.16ZM4.72819 11.04C5.24019 11.04 5.68285 10.912 6.05619 10.656C6.44019 10.4 6.73352 10.0373 6.93619 9.568C7.14952 9.088 7.25619 8.528 7.25619 7.888C7.25619 7.28 7.14952 6.75733 6.93619 6.32C6.73352 5.88267 6.44552 5.54667 6.07219 5.312C5.70952 5.07733 5.28285 4.96 4.79219 4.96C3.98152 4.96 3.35219 5.23733 2.90419 5.792C2.45619 6.34667 2.23219 7.08267 2.23219 8C2.23219 8.91733 2.45085 9.65333 2.88819 10.208C3.32552 10.7627 3.93885 11.04 4.72819 11.04ZM16.4554 12.16C15.6981 12.16 15.0208 11.9947 14.4234 11.664C13.8368 11.3333 13.3781 10.8587 13.0474 10.24C12.7168 9.61067 12.5514 8.864 12.5514 8C12.5514 7.136 12.7168 6.39467 13.0474 5.776C13.3781 5.14667 13.8314 4.66667 14.4074 4.336C14.9834 4.00533 15.6394 3.84 16.3754 3.84C17.1221 3.84 17.7568 4 18.2794 4.32C18.8128 4.64 19.2181 5.07733 19.4954 5.632C19.7728 6.176 19.9114 6.78933 19.9114 7.472C19.9114 7.65333 19.9061 7.81867 19.8954 7.968C19.8848 8.11733 19.8688 8.25067 19.8474 8.368H13.3834V7.232H19.2874L18.6314 7.36C18.6314 6.592 18.4181 6 17.9914 5.584C17.5754 5.168 17.0261 4.96 16.3434 4.96C15.8208 4.96 15.3674 5.08267 14.9834 5.328C14.6101 5.56267 14.3168 5.90933 14.1034 6.368C13.9008 6.816 13.7994 7.36 13.7994 8C13.7994 8.62933 13.9061 9.17333 14.1194 9.632C14.3328 10.0907 14.6314 10.4427 15.0154 10.688C15.4101 10.9227 15.8794 11.04 16.4234 11.04C17.0101 11.04 17.4848 10.928 17.8474 10.704C18.2208 10.48 18.5194 10.176 18.7434 9.792L19.7514 10.384C19.5488 10.7467 19.2874 11.0613 18.9674 11.328C18.6581 11.5947 18.2901 11.8027 17.8634 11.952C17.4474 12.0907 16.9781 12.16 16.4554 12.16ZM26.8258 12.16C26.0471 12.16 25.3271 11.9947 24.6658 11.664C24.0151 11.3333 23.5138 10.864 23.1618 10.256L24.2498 9.472C24.4845 9.96267 24.8258 10.3467 25.2738 10.624C25.7325 10.9013 26.2818 11.04 26.9218 11.04C27.4871 11.04 27.9298 10.9333 28.2498 10.72C28.5698 10.496 28.7298 10.208 28.7298 9.856C28.7298 9.632 28.6551 9.42933 28.5058 9.248C28.3671 9.056 28.0951 8.91733 27.6898 8.832L25.7698 8.432C24.9911 8.272 24.4311 8.00533 24.0898 7.632C23.7591 7.25867 23.5938 6.79467 23.5938 6.24C23.5938 5.80267 23.7165 5.40267 23.9618 5.04C24.2178 4.67733 24.5751 4.38933 25.0338 4.176C25.5031 3.952 26.0525 3.84 26.6818 3.84C27.4711 3.84 28.1378 3.99467 28.6818 4.304C29.2258 4.61333 29.6311 5.05067 29.8978 5.616L28.8258 6.32C28.6445 5.85067 28.3511 5.50933 27.9458 5.296C27.5405 5.072 27.1191 4.96 26.6818 4.96C26.2978 4.96 25.9671 5.01333 25.6898 5.12C25.4231 5.22667 25.2151 5.376 25.0658 5.568C24.9271 5.74933 24.8578 5.95733 24.8578 6.192C24.8578 6.42667 24.9378 6.64533 25.0978 6.848C25.2578 7.04 25.5565 7.17867 25.9938 7.264L27.9938 7.68C28.7405 7.82933 29.2631 8.07467 29.5618 8.416C29.8605 8.75733 30.0098 9.17333 30.0098 9.664C30.0098 10.1653 29.8765 10.608 29.6098 10.992C29.3431 11.3653 28.9698 11.6533 28.4898 11.856C28.0098 12.0587 27.4551 12.16 26.8258 12.16ZM34.6233 2.464C34.3353 2.464 34.1006 2.37867 33.9193 2.208C33.7486 2.02667 33.6633 1.792 33.6633 1.504C33.6633 1.216 33.7486 0.986666 33.9193 0.815999C34.1006 0.634666 34.3353 0.544 34.6233 0.544C34.9113 0.544 35.1406 0.634666 35.3113 0.815999C35.4926 0.986666 35.5833 1.216 35.5833 1.504C35.5833 1.792 35.4926 2.02667 35.3113 2.208C35.1406 2.37867 34.9113 2.464 34.6233 2.464ZM35.2633 4V12H33.9833V4H35.2633ZM46.5693 2.528L46.8573 3.664C46.8466 3.664 46.8306 3.664 46.8093 3.664C46.788 3.664 46.7666 3.664 46.7453 3.664C46.2226 3.664 45.8173 3.77067 45.5293 3.984C45.252 4.18667 45.1133 4.51733 45.1133 4.976L44.3293 4.576C44.3293 4.16 44.4253 3.79733 44.6173 3.488C44.8093 3.17867 45.0706 2.944 45.4013 2.784C45.732 2.61333 46.0946 2.528 46.4893 2.528C46.5 2.528 46.5106 2.528 46.5213 2.528C46.5426 2.528 46.5586 2.528 46.5693 2.528ZM44.1373 10.976C44.8946 10.976 45.4866 11.152 45.9133 11.504C46.34 11.8453 46.5533 12.304 46.5533 12.88C46.5533 13.4027 46.3773 13.856 46.0253 14.24C45.684 14.624 45.22 14.9173 44.6333 15.12C44.0573 15.3333 43.4066 15.44 42.6813 15.44C41.4226 15.44 40.4786 15.2267 39.8493 14.8C39.2306 14.3733 38.9213 13.8613 38.9213 13.264C38.9213 12.8373 39.06 12.4533 39.3373 12.112C39.6253 11.7813 40.1053 11.5947 40.7773 11.552L40.6653 11.792C40.3026 11.696 39.9933 11.536 39.7373 11.312C39.492 11.0773 39.3693 10.7413 39.3693 10.304C39.3693 9.86667 39.5293 9.49333 39.8493 9.184C40.18 8.864 40.6653 8.66667 41.3053 8.592L42.1533 9.024H41.9933C41.4706 9.07733 41.0973 9.21067 40.8733 9.424C40.66 9.62667 40.5533 9.85067 40.5533 10.096C40.5533 10.3947 40.66 10.6187 40.8733 10.768C41.0973 10.9067 41.4066 10.976 41.8013 10.976H44.1373ZM42.6653 14.368C43.284 14.368 43.7906 14.304 44.1853 14.176C44.5906 14.048 44.8893 13.8827 45.0813 13.68C45.2733 13.4773 45.3693 13.2587 45.3693 13.024C45.3693 12.736 45.252 12.5067 45.0173 12.336C44.7933 12.1653 44.3826 12.08 43.7853 12.08H41.3213C40.98 12.08 40.692 12.1653 40.4573 12.336C40.2226 12.5173 40.1053 12.7627 40.1053 13.072C40.1053 13.4667 40.3293 13.7813 40.7773 14.016C41.236 14.2507 41.8653 14.368 42.6653 14.368ZM42.5533 3.84C43.1933 3.84 43.7586 3.95733 44.2493 4.192C44.7506 4.416 45.14 4.73067 45.4173 5.136C45.6946 5.54133 45.8333 6.01067 45.8333 6.544C45.8333 7.06667 45.6946 7.536 45.4173 7.952C45.14 8.35733 44.7506 8.67733 44.2493 8.912C43.7586 9.136 43.1933 9.248 42.5533 9.248C41.4973 9.248 40.6866 8.99733 40.1213 8.496C39.556 7.984 39.2733 7.33333 39.2733 6.544C39.2733 6.01067 39.412 5.54133 39.6893 5.136C39.9773 4.73067 40.3666 4.416 40.8573 4.192C41.348 3.95733 41.9133 3.84 42.5533 3.84ZM42.5533 4.88C41.9986 4.88 41.5346 5.03467 41.1613 5.344C40.788 5.64267 40.6013 6.04267 40.6013 6.544C40.6013 7.03467 40.788 7.43467 41.1613 7.744C41.5346 8.05333 41.9986 8.208 42.5533 8.208C43.108 8.208 43.572 8.05333 43.9453 7.744C44.3186 7.43467 44.5053 7.03467 44.5053 6.544C44.5053 6.04267 44.3186 5.64267 43.9453 5.344C43.572 5.03467 43.108 4.88 42.5533 4.88ZM49.9489 12V4H51.0689L51.1809 5.792L50.9729 5.616C51.1436 5.18933 51.3729 4.848 51.6609 4.592C51.9489 4.32533 52.2796 4.13333 52.6529 4.016C53.0369 3.89867 53.4316 3.84 53.8369 3.84C54.4129 3.84 54.9356 3.952 55.4049 4.176C55.8743 4.38933 56.2476 4.72 56.5249 5.168C56.8129 5.616 56.9569 6.18667 56.9569 6.88V12H55.6769V7.328C55.6769 6.44267 55.4849 5.82933 55.1009 5.488C54.7276 5.136 54.2636 4.96 53.7089 4.96C53.3249 4.96 52.9409 5.05067 52.5569 5.232C52.1729 5.41333 51.8529 5.70667 51.5969 6.112C51.3516 6.51733 51.2289 7.06133 51.2289 7.744V12H49.9489ZM64.7992 12.16C64.0419 12.16 63.3645 11.9947 62.7672 11.664C62.1805 11.3333 61.7219 10.8587 61.3912 10.24C61.0605 9.61067 60.8952 8.864 60.8952 8C60.8952 7.136 61.0605 6.39467 61.3912 5.776C61.7219 5.14667 62.1752 4.66667 62.7512 4.336C63.3272 4.00533 63.9832 3.84 64.7192 3.84C65.4659 3.84 66.1005 4 66.6232 4.32C67.1565 4.64 67.5619 5.07733 67.8392 5.632C68.1165 6.176 68.2552 6.78933 68.2552 7.472C68.2552 7.65333 68.2499 7.81867 68.2392 7.968C68.2285 8.11733 68.2125 8.25067 68.1912 8.368H61.7272V7.232H67.6312L66.9752 7.36C66.9752 6.592 66.7619 6 66.3352 5.584C65.9192 5.168 65.3699 4.96 64.6872 4.96C64.1645 4.96 63.7112 5.08267 63.3272 5.328C62.9539 5.56267 62.6605 5.90933 62.4472 6.368C62.2445 6.816 62.1432 7.36 62.1432 8C62.1432 8.62933 62.2499 9.17333 62.4632 9.632C62.6765 10.0907 62.9752 10.4427 63.3592 10.688C63.7539 10.9227 64.2232 11.04 64.7672 11.04C65.3539 11.04 65.8285 10.928 66.1912 10.704C66.5645 10.48 66.8632 10.176 67.0872 9.792L68.0952 10.384C67.8925 10.7467 67.6312 11.0613 67.3112 11.328C67.0019 11.5947 66.6339 11.8027 66.2072 11.952C65.7912 12.0907 65.3219 12.16 64.7992 12.16ZM75.4096 12.16C74.7482 12.16 74.1402 11.9947 73.5856 11.664C73.0309 11.3333 72.5882 10.8587 72.2576 10.24C71.9269 9.61067 71.7616 8.864 71.7616 8C71.7616 7.11467 71.9376 6.36267 72.2896 5.744C72.6416 5.12533 73.1056 4.656 73.6816 4.336C74.2576 4.00533 74.8762 3.84 75.5376 3.84C76.1989 3.84 76.7696 4.01067 77.2496 4.352C77.7402 4.69333 78.0656 5.14667 78.2256 5.712L78.0656 5.824V0.32H79.3456V12H78.2256L78.1136 10.064L78.2896 9.968C78.2149 10.4373 78.0336 10.8373 77.7456 11.168C77.4682 11.488 77.1216 11.7333 76.7056 11.904C76.3002 12.0747 75.8682 12.16 75.4096 12.16ZM75.5376 11.04C76.0496 11.04 76.4922 10.912 76.8656 10.656C77.2496 10.4 77.5429 10.0373 77.7456 9.568C77.9589 9.088 78.0656 8.528 78.0656 7.888C78.0656 7.28 77.9589 6.75733 77.7456 6.32C77.5429 5.88267 77.2549 5.54667 76.8816 5.312C76.5189 5.07733 76.0922 4.96 75.6016 4.96C74.7909 4.96 74.1616 5.23733 73.7136 5.792C73.2656 6.34667 73.0416 7.08267 73.0416 8C73.0416 8.91733 73.2602 9.65333 73.6976 10.208C74.1349 10.7627 74.7482 11.04 75.5376 11.04ZM95.6459 6.832C95.6459 6.23467 95.4859 5.776 95.1659 5.456C94.8459 5.12533 94.3926 4.96 93.8059 4.96C93.2513 4.96 92.7819 5.08267 92.3979 5.328C92.0139 5.56267 91.7313 5.94667 91.5499 6.48L90.5099 5.84C90.7233 5.24267 91.1179 4.76267 91.6939 4.4C92.2699 4.02667 92.9846 3.84 93.8379 3.84C94.4139 3.84 94.9366 3.94133 95.4059 4.144C95.8753 4.336 96.2433 4.63467 96.5099 5.04C96.7873 5.43467 96.9259 5.94667 96.9259 6.576V10.448C96.9259 10.832 97.1286 11.024 97.5339 11.024C97.7366 11.024 97.9339 10.9973 98.1259 10.944L98.0619 11.952C97.8486 12.0587 97.5713 12.112 97.2299 12.112C96.9206 12.112 96.6433 12.0533 96.3979 11.936C96.1526 11.8187 95.9606 11.6427 95.8219 11.408C95.6833 11.1627 95.6139 10.8587 95.6139 10.496V10.336L95.9339 10.384C95.8059 10.8 95.5873 11.1413 95.2779 11.408C94.9686 11.664 94.6219 11.856 94.2379 11.984C93.8539 12.1013 93.4753 12.16 93.1019 12.16C92.6326 12.16 92.1953 12.08 91.7899 11.92C91.3846 11.76 91.0593 11.52 90.8139 11.2C90.5793 10.8693 90.4619 10.464 90.4619 9.984C90.4619 9.38667 90.6593 8.896 91.0539 8.512C91.4593 8.11733 92.0193 7.85067 92.7339 7.712L95.9019 7.088V8.144L93.3259 8.672C92.8033 8.77867 92.4139 8.928 92.1579 9.12C91.9019 9.312 91.7739 9.57867 91.7739 9.92C91.7739 10.2507 91.9019 10.5227 92.1579 10.736C92.4246 10.9387 92.7979 11.04 93.2779 11.04C93.5873 11.04 93.8806 11.0027 94.1579 10.928C94.4459 10.8427 94.7019 10.72 94.9259 10.56C95.1499 10.3893 95.3259 10.1813 95.4539 9.936C95.5819 9.68 95.6459 9.38133 95.6459 9.04V6.832ZM101.636 12V4H102.756L102.868 5.792L102.66 5.616C102.831 5.18933 103.06 4.848 103.348 4.592C103.636 4.32533 103.967 4.13333 104.34 4.016C104.724 3.89867 105.119 3.84 105.524 3.84C106.1 3.84 106.623 3.952 107.092 4.176C107.562 4.38933 107.935 4.72 108.212 5.168C108.5 5.616 108.644 6.18667 108.644 6.88V12H107.364V7.328C107.364 6.44267 107.172 5.82933 106.788 5.488C106.415 5.136 105.951 4.96 105.396 4.96C105.012 4.96 104.628 5.05067 104.244 5.232C103.86 5.41333 103.54 5.70667 103.284 6.112C103.039 6.51733 102.916 7.06133 102.916 7.744V12H101.636ZM116.263 12.16C115.601 12.16 114.993 11.9947 114.439 11.664C113.884 11.3333 113.441 10.8587 113.111 10.24C112.78 9.61067 112.615 8.864 112.615 8C112.615 7.11467 112.791 6.36267 113.143 5.744C113.495 5.12533 113.959 4.656 114.535 4.336C115.111 4.00533 115.729 3.84 116.391 3.84C117.052 3.84 117.623 4.01067 118.103 4.352C118.593 4.69333 118.919 5.14667 119.079 5.712L118.919 5.824V0.32H120.199V12H119.079L118.967 10.064L119.143 9.968C119.068 10.4373 118.887 10.8373 118.599 11.168C118.321 11.488 117.975 11.7333 117.559 11.904C117.153 12.0747 116.721 12.16 116.263 12.16ZM116.391 11.04C116.903 11.04 117.345 10.912 117.719 10.656C118.103 10.4 118.396 10.0373 118.599 9.568C118.812 9.088 118.919 8.528 118.919 7.888C118.919 7.28 118.812 6.75733 118.599 6.32C118.396 5.88267 118.108 5.54667 117.735 5.312C117.372 5.07733 116.945 4.96 116.455 4.96C115.644 4.96 115.015 5.23733 114.567 5.792C114.119 6.34667 113.895 7.08267 113.895 8C113.895 8.91733 114.113 9.65333 114.551 10.208C114.988 10.7627 115.601 11.04 116.391 11.04ZM134.947 12.16C134.286 12.16 133.678 11.9947 133.123 11.664C132.568 11.3333 132.126 10.8587 131.795 10.24C131.464 9.61067 131.299 8.864 131.299 8C131.299 7.11467 131.475 6.36267 131.827 5.744C132.179 5.12533 132.643 4.656 133.219 4.336C133.795 4.00533 134.414 3.84 135.075 3.84C135.736 3.84 136.307 4.01067 136.787 4.352C137.278 4.69333 137.603 5.14667 137.763 5.712L137.603 5.824V0.32H138.883V12H137.763L137.651 10.064L137.827 9.968C137.752 10.4373 137.571 10.8373 137.283 11.168C137.006 11.488 136.659 11.7333 136.243 11.904C135.838 12.0747 135.406 12.16 134.947 12.16ZM135.075 11.04C135.587 11.04 136.03 10.912 136.403 10.656C136.787 10.4 137.08 10.0373 137.283 9.568C137.496 9.088 137.603 8.528 137.603 7.888C137.603 7.28 137.496 6.75733 137.283 6.32C137.08 5.88267 136.792 5.54667 136.419 5.312C136.056 5.07733 135.63 4.96 135.139 4.96C134.328 4.96 133.699 5.23733 133.251 5.792C132.803 6.34667 132.579 7.08267 132.579 8C132.579 8.91733 132.798 9.65333 133.235 10.208C133.672 10.7627 134.286 11.04 135.075 11.04ZM146.802 12.16C146.045 12.16 145.368 11.9947 144.77 11.664C144.184 11.3333 143.725 10.8587 143.394 10.24C143.064 9.61067 142.898 8.864 142.898 8C142.898 7.136 143.064 6.39467 143.394 5.776C143.725 5.14667 144.178 4.66667 144.754 4.336C145.33 4.00533 145.986 3.84 146.722 3.84C147.469 3.84 148.104 4 148.626 4.32C149.16 4.64 149.565 5.07733 149.842 5.632C150.12 6.176 150.258 6.78933 150.258 7.472C150.258 7.65333 150.253 7.81867 150.242 7.968C150.232 8.11733 150.216 8.25067 150.194 8.368H143.73V7.232H149.634L148.978 7.36C148.978 6.592 148.765 6 148.338 5.584C147.922 5.168 147.373 4.96 146.69 4.96C146.168 4.96 145.714 5.08267 145.33 5.328C144.957 5.56267 144.664 5.90933 144.45 6.368C144.248 6.816 144.146 7.36 144.146 8C144.146 8.62933 144.253 9.17333 144.466 9.632C144.68 10.0907 144.978 10.4427 145.362 10.688C145.757 10.9227 146.226 11.04 146.77 11.04C147.357 11.04 147.832 10.928 148.194 10.704C148.568 10.48 148.866 10.176 149.09 9.792L150.098 10.384C149.896 10.7467 149.634 11.0613 149.314 11.328C149.005 11.5947 148.637 11.8027 148.21 11.952C147.794 12.0907 147.325 12.16 146.802 12.16ZM159.37 4H160.714L157.386 12H156.106L152.778 4H154.234L156.762 10.704L159.37 4ZM167.33 12.16C166.573 12.16 165.896 11.9947 165.298 11.664C164.712 11.3333 164.253 10.8587 163.922 10.24C163.592 9.61067 163.426 8.864 163.426 8C163.426 7.136 163.592 6.39467 163.922 5.776C164.253 5.14667 164.706 4.66667 165.282 4.336C165.858 4.00533 166.514 3.84 167.25 3.84C167.997 3.84 168.632 4 169.154 4.32C169.688 4.64 170.093 5.07733 170.37 5.632C170.648 6.176 170.786 6.78933 170.786 7.472C170.786 7.65333 170.781 7.81867 170.77 7.968C170.76 8.11733 170.744 8.25067 170.722 8.368H164.258V7.232H170.162L169.506 7.36C169.506 6.592 169.293 6 168.866 5.584C168.45 5.168 167.901 4.96 167.218 4.96C166.696 4.96 166.242 5.08267 165.858 5.328C165.485 5.56267 165.192 5.90933 164.978 6.368C164.776 6.816 164.674 7.36 164.674 8C164.674 8.62933 164.781 9.17333 164.994 9.632C165.208 10.0907 165.506 10.4427 165.89 10.688C166.285 10.9227 166.754 11.04 167.298 11.04C167.885 11.04 168.36 10.928 168.722 10.704C169.096 10.48 169.394 10.176 169.618 9.792L170.626 10.384C170.424 10.7467 170.162 11.0613 169.842 11.328C169.533 11.5947 169.165 11.8027 168.738 11.952C168.322 12.0907 167.853 12.16 167.33 12.16ZM176.037 0.32V9.968C176.037 10.3733 176.111 10.656 176.261 10.816C176.41 10.9653 176.65 11.04 176.981 11.04C177.194 11.04 177.37 11.024 177.509 10.992C177.647 10.96 177.834 10.9013 178.069 10.816L177.861 11.936C177.69 12.0107 177.503 12.064 177.301 12.096C177.098 12.1387 176.89 12.16 176.677 12.16C176.026 12.16 175.541 11.984 175.221 11.632C174.911 11.28 174.757 10.7413 174.757 10.016V0.32H176.037ZM184.623 3.84C185.381 3.84 186.047 4.00533 186.623 4.336C187.21 4.66667 187.669 5.14667 187.999 5.776C188.33 6.39467 188.495 7.136 188.495 8C188.495 8.864 188.33 9.61067 187.999 10.24C187.669 10.8587 187.21 11.3333 186.623 11.664C186.047 11.9947 185.381 12.16 184.623 12.16C183.877 12.16 183.21 11.9947 182.623 11.664C182.037 11.3333 181.578 10.8587 181.247 10.24C180.917 9.61067 180.751 8.864 180.751 8C180.751 7.136 180.917 6.39467 181.247 5.776C181.578 5.14667 182.037 4.66667 182.623 4.336C183.21 4.00533 183.877 3.84 184.623 3.84ZM184.623 4.944C184.079 4.944 183.615 5.06667 183.231 5.312C182.847 5.55733 182.549 5.90933 182.335 6.368C182.133 6.816 182.031 7.36 182.031 8C182.031 8.62933 182.133 9.17333 182.335 9.632C182.549 10.0907 182.847 10.4427 183.231 10.688C183.615 10.9333 184.079 11.056 184.623 11.056C185.167 11.056 185.631 10.9333 186.015 10.688C186.399 10.4427 186.693 10.0907 186.895 9.632C187.109 9.17333 187.215 8.62933 187.215 8C187.215 7.36 187.109 6.816 186.895 6.368C186.693 5.90933 186.399 5.55733 186.015 5.312C185.631 5.06667 185.167 4.944 184.623 4.944ZM192.505 15.36V4H193.625L193.737 5.952L193.561 5.728C193.7 5.35467 193.908 5.02933 194.185 4.752C194.463 4.464 194.799 4.24 195.193 4.08C195.588 3.92 196.015 3.84 196.473 3.84C197.124 3.84 197.721 4.00533 198.265 4.336C198.82 4.66667 199.263 5.14133 199.593 5.76C199.924 6.37867 200.089 7.12533 200.089 8C200.089 8.864 199.919 9.61067 199.577 10.24C199.247 10.8587 198.804 11.3333 198.249 11.664C197.695 11.9947 197.087 12.16 196.425 12.16C195.764 12.16 195.183 12 194.681 11.68C194.191 11.3493 193.839 10.9333 193.625 10.432L193.785 10.192V15.36H192.505ZM196.297 11.04C197.087 11.04 197.7 10.7627 198.137 10.208C198.585 9.65333 198.809 8.91733 198.809 8C198.809 7.08267 198.591 6.34667 198.153 5.792C197.727 5.23733 197.124 4.96 196.345 4.96C195.833 4.96 195.385 5.088 195.001 5.344C194.617 5.58933 194.319 5.94133 194.105 6.4C193.892 6.848 193.785 7.38133 193.785 8C193.785 8.608 193.887 9.14133 194.089 9.6C194.303 10.0587 194.596 10.416 194.969 10.672C195.353 10.9173 195.796 11.04 196.297 11.04ZM207.48 12.16C206.723 12.16 206.046 11.9947 205.448 11.664C204.862 11.3333 204.403 10.8587 204.072 10.24C203.742 9.61067 203.576 8.864 203.576 8C203.576 7.136 203.742 6.39467 204.072 5.776C204.403 5.14667 204.856 4.66667 205.432 4.336C206.008 4.00533 206.664 3.84 207.4 3.84C208.147 3.84 208.782 4 209.304 4.32C209.838 4.64 210.243 5.07733 210.52 5.632C210.798 6.176 210.936 6.78933 210.936 7.472C210.936 7.65333 210.931 7.81867 210.92 7.968C210.91 8.11733 210.894 8.25067 210.872 8.368H204.408V7.232H210.312L209.656 7.36C209.656 6.592 209.443 6 209.016 5.584C208.6 5.168 208.051 4.96 207.368 4.96C206.846 4.96 206.392 5.08267 206.008 5.328C205.635 5.56267 205.342 5.90933 205.128 6.368C204.926 6.816 204.824 7.36 204.824 8C204.824 8.62933 204.931 9.17333 205.144 9.632C205.358 10.0907 205.656 10.4427 206.04 10.688C206.435 10.9227 206.904 11.04 207.448 11.04C208.035 11.04 208.51 10.928 208.872 10.704C209.246 10.48 209.544 10.176 209.768 9.792L210.776 10.384C210.574 10.7467 210.312 11.0613 209.992 11.328C209.683 11.5947 209.315 11.8027 208.888 11.952C208.472 12.0907 208.003 12.16 207.48 12.16ZM218.091 12.16C217.429 12.16 216.821 11.9947 216.267 11.664C215.712 11.3333 215.269 10.8587 214.939 10.24C214.608 9.61067 214.443 8.864 214.443 8C214.443 7.11467 214.619 6.36267 214.971 5.744C215.323 5.12533 215.787 4.656 216.363 4.336C216.939 4.00533 217.557 3.84 218.219 3.84C218.88 3.84 219.451 4.01067 219.931 4.352C220.421 4.69333 220.747 5.14667 220.907 5.712L220.747 5.824V0.32H222.027V12H220.907L220.795 10.064L220.971 9.968C220.896 10.4373 220.715 10.8373 220.427 11.168C220.149 11.488 219.803 11.7333 219.387 11.904C218.981 12.0747 218.549 12.16 218.091 12.16ZM218.219 11.04C218.731 11.04 219.173 10.912 219.547 10.656C219.931 10.4 220.224 10.0373 220.427 9.568C220.64 9.088 220.747 8.528 220.747 7.888C220.747 7.28 220.64 6.75733 220.427 6.32C220.224 5.88267 219.936 5.54667 219.563 5.312C219.2 5.07733 218.773 4.96 218.283 4.96C217.472 4.96 216.843 5.23733 216.395 5.792C215.947 6.34667 215.723 7.08267 215.723 8C215.723 8.91733 215.941 9.65333 216.379 10.208C216.816 10.7627 217.429 11.04 218.219 11.04ZM237.575 12.16C237.127 12.16 236.711 12.08 236.327 11.92C235.943 11.76 235.613 11.536 235.335 11.248C235.058 10.96 234.85 10.6347 234.711 10.272L234.887 10.048L234.775 12H233.655V0.32H234.935V5.808L234.775 5.568C234.989 5.06667 235.346 4.656 235.847 4.336C236.359 4.00533 236.941 3.84 237.591 3.84C238.253 3.84 238.861 4.00533 239.415 4.336C239.97 4.66667 240.413 5.14133 240.743 5.76C241.074 6.37867 241.239 7.12533 241.239 8C241.239 8.864 241.069 9.61067 240.727 10.24C240.397 10.8587 239.954 11.3333 239.399 11.664C238.845 11.9947 238.237 12.16 237.575 12.16ZM237.447 11.04C238.237 11.04 238.85 10.7627 239.287 10.208C239.735 9.65333 239.959 8.91733 239.959 8C239.959 7.08267 239.741 6.34667 239.303 5.792C238.866 5.23733 238.253 4.96 237.463 4.96C236.962 4.96 236.519 5.088 236.135 5.344C235.762 5.6 235.469 5.95733 235.255 6.416C235.042 6.87467 234.935 7.41333 234.935 8.032C234.935 8.64 235.037 9.17333 235.239 9.632C235.453 10.08 235.746 10.4267 236.119 10.672C236.503 10.9173 236.946 11.04 237.447 11.04ZM251.628 4L247.868 13.344C247.665 13.8667 247.441 14.2773 247.196 14.576C246.961 14.8853 246.695 15.104 246.396 15.232C246.108 15.3707 245.772 15.44 245.388 15.44C245.025 15.44 244.689 15.3867 244.38 15.28C244.081 15.184 243.815 15.0507 243.58 14.88L243.932 13.76C244.145 13.952 244.369 14.0907 244.604 14.176C244.849 14.272 245.089 14.32 245.324 14.32C245.601 14.32 245.863 14.2347 246.108 14.064C246.353 13.8933 246.577 13.5467 246.78 13.024L247.196 11.984L246.396 10.08L243.852 4H245.308L247.308 9.216L247.804 10.64L248.38 9.056L250.252 4H251.628ZM30.7791 39.296C30.5551 39.8933 30.2351 40.4107 29.8191 40.848C29.4031 41.2747 28.9124 41.6 28.3471 41.824C27.7924 42.048 27.1844 42.16 26.5231 42.16C25.5204 42.16 24.6511 41.9413 23.9151 41.504C23.1897 41.056 22.6244 40.4267 22.2191 39.616C21.8244 38.8053 21.6271 37.84 21.6271 36.72C21.6271 35.6 21.8244 34.6347 22.2191 33.824C22.6244 33.0133 23.1897 32.3893 23.9151 31.952C24.6511 31.504 25.5097 31.28 26.4911 31.28C27.1737 31.28 27.7817 31.376 28.3151 31.568C28.8484 31.7493 29.3017 32.0267 29.6751 32.4C30.0591 32.7627 30.3631 33.2107 30.5871 33.744L29.3231 34.336C29.0884 33.728 28.7471 33.2693 28.2991 32.96C27.8617 32.64 27.2911 32.48 26.5871 32.48C25.8724 32.48 25.2431 32.6507 24.6991 32.992C24.1551 33.3227 23.7284 33.8027 23.4191 34.432C23.1204 35.0613 22.9711 35.824 22.9711 36.72C22.9711 37.6053 23.1151 38.368 23.4031 39.008C23.6911 39.6373 24.1017 40.1227 24.6351 40.464C25.1684 40.7947 25.7977 40.96 26.5231 40.96C27.2271 40.96 27.8404 40.784 28.3631 40.432C28.8857 40.0693 29.2644 39.5307 29.4991 38.816L30.7791 39.296ZM34.5958 42V30.32H35.8758V35.2C36.1531 34.72 36.5211 34.3733 36.9798 34.16C37.4385 33.9467 37.9398 33.84 38.4838 33.84C39.0598 33.84 39.5825 33.952 40.0518 34.176C40.5211 34.3893 40.8945 34.72 41.1718 35.168C41.4598 35.616 41.6038 36.1867 41.6038 36.88V42H40.3238V37.328C40.3238 36.4427 40.1318 35.8293 39.7478 35.488C39.3745 35.136 38.9105 34.96 38.3558 34.96C37.9718 34.96 37.5878 35.0507 37.2038 35.232C36.8198 35.4133 36.4998 35.712 36.2438 36.128C35.9985 36.5333 35.8758 37.0773 35.8758 37.76V42H34.5958ZM49.4461 42.16C48.6887 42.16 48.0114 41.9947 47.4141 41.664C46.8274 41.3333 46.3687 40.8587 46.0381 40.24C45.7074 39.6107 45.5421 38.864 45.5421 38C45.5421 37.136 45.7074 36.3947 46.0381 35.776C46.3687 35.1467 46.8221 34.6667 47.3981 34.336C47.9741 34.0053 48.6301 33.84 49.3661 33.84C50.1127 33.84 50.7474 34 51.2701 34.32C51.8034 34.64 52.2087 35.0773 52.4861 35.632C52.7634 36.176 52.9021 36.7893 52.9021 37.472C52.9021 37.6533 52.8967 37.8187 52.8861 37.968C52.8754 38.1173 52.8594 38.2507 52.8381 38.368H46.3741V37.232H52.2781L51.6221 37.36C51.6221 36.592 51.4087 36 50.9821 35.584C50.5661 35.168 50.0167 34.96 49.3341 34.96C48.8114 34.96 48.3581 35.0827 47.9741 35.328C47.6007 35.5627 47.3074 35.9093 47.0941 36.368C46.8914 36.816 46.7901 37.36 46.7901 38C46.7901 38.6293 46.8967 39.1733 47.1101 39.632C47.3234 40.0907 47.6221 40.4427 48.0061 40.688C48.4007 40.9227 48.8701 41.04 49.4141 41.04C50.0007 41.04 50.4754 40.928 50.8381 40.704C51.2114 40.48 51.5101 40.176 51.7341 39.792L52.7421 40.384C52.5394 40.7467 52.2781 41.0613 51.9581 41.328C51.6487 41.5947 51.2807 41.8027 50.8541 41.952C50.4381 42.0907 49.9687 42.16 49.4461 42.16ZM56.9364 42V34H57.9764L58.1524 35.312C58.3764 34.8213 58.7018 34.4533 59.1284 34.208C59.5658 33.9627 60.0938 33.84 60.7124 33.84C60.8511 33.84 61.0004 33.8507 61.1604 33.872C61.3311 33.8933 61.4751 33.936 61.5924 34L61.3684 35.168C61.2511 35.1253 61.1231 35.0933 60.9844 35.072C60.8458 35.0507 60.6484 35.04 60.3924 35.04C60.0618 35.04 59.7258 35.136 59.3844 35.328C59.0538 35.52 58.7764 35.8133 58.5524 36.208C58.3284 36.592 58.2164 37.0827 58.2164 37.68V42H56.9364ZM71.6437 34L67.8837 43.344C67.681 43.8667 67.457 44.2773 67.2117 44.576C66.977 44.8853 66.7104 45.104 66.4117 45.232C66.1237 45.3707 65.7877 45.44 65.4037 45.44C65.041 45.44 64.705 45.3867 64.3957 45.28C64.097 45.184 63.8304 45.0507 63.5957 44.88L63.9477 43.76C64.161 43.952 64.385 44.0907 64.6197 44.176C64.865 44.272 65.105 44.32 65.3397 44.32C65.617 44.32 65.8784 44.2347 66.1237 44.064C66.369 43.8933 66.593 43.5467 66.7957 43.024L67.2117 41.984L66.4117 40.08L63.8677 34H65.3237L67.3237 39.216L67.8197 40.64L68.3957 39.056L70.2677 34H71.6437ZM76.1337 30.32V39.968C76.1337 40.3733 76.2084 40.656 76.3577 40.816C76.507 40.9653 76.747 41.04 77.0777 41.04C77.291 41.04 77.467 41.024 77.6057 40.992C77.7444 40.96 77.931 40.9013 78.1657 40.816L77.9577 41.936C77.787 42.0107 77.6004 42.064 77.3977 42.096C77.195 42.1387 76.987 42.16 76.7737 42.16C76.123 42.16 75.6377 41.984 75.3177 41.632C75.0084 41.28 74.8537 40.7413 74.8537 40.016V30.32H76.1337ZM89.7163 42L86.5963 31.44H87.9243L90.5323 40.832L93.0123 31.44H94.4683L96.9483 40.864L99.5563 31.44H100.82L97.7163 42H96.1323L94.2603 35.152L93.7163 32.768H93.7003L93.1563 35.152L91.3003 42H89.7163ZM108.515 36.832C108.515 36.2347 108.355 35.776 108.035 35.456C107.715 35.1253 107.261 34.96 106.675 34.96C106.12 34.96 105.651 35.0827 105.267 35.328C104.883 35.5627 104.6 35.9467 104.419 36.48L103.379 35.84C103.592 35.2427 103.987 34.7627 104.563 34.4C105.139 34.0267 105.853 33.84 106.707 33.84C107.283 33.84 107.805 33.9413 108.275 34.144C108.744 34.336 109.112 34.6347 109.379 35.04C109.656 35.4347 109.795 35.9467 109.795 36.576V40.448C109.795 40.832 109.997 41.024 110.403 41.024C110.605 41.024 110.803 40.9973 110.995 40.944L110.931 41.952C110.717 42.0587 110.44 42.112 110.099 42.112C109.789 42.112 109.512 42.0533 109.267 41.936C109.021 41.8187 108.829 41.6427 108.691 41.408C108.552 41.1627 108.483 40.8587 108.483 40.496V40.336L108.803 40.384C108.675 40.8 108.456 41.1413 108.147 41.408C107.837 41.664 107.491 41.856 107.107 41.984C106.723 42.1013 106.344 42.16 105.971 42.16C105.501 42.16 105.064 42.08 104.659 41.92C104.253 41.76 103.928 41.52 103.683 41.2C103.448 40.8693 103.331 40.464 103.331 39.984C103.331 39.3867 103.528 38.896 103.923 38.512C104.328 38.1173 104.888 37.8507 105.603 37.712L108.771 37.088V38.144L106.195 38.672C105.672 38.7787 105.283 38.928 105.027 39.12C104.771 39.312 104.643 39.5787 104.643 39.92C104.643 40.2507 104.771 40.5227 105.027 40.736C105.293 40.9387 105.667 41.04 106.147 41.04C106.456 41.04 106.749 41.0027 107.027 40.928C107.315 40.8427 107.571 40.72 107.795 40.56C108.019 40.3893 108.195 40.1813 108.323 39.936C108.451 39.68 108.515 39.3813 108.515 39.04V36.832ZM114.505 42V34H115.625L115.737 35.792L115.529 35.616C115.7 35.1893 115.929 34.848 116.217 34.592C116.505 34.3253 116.836 34.1333 117.209 34.016C117.593 33.8987 117.988 33.84 118.393 33.84C118.969 33.84 119.492 33.952 119.961 34.176C120.431 34.3893 120.804 34.72 121.081 35.168C121.369 35.616 121.513 36.1867 121.513 36.88V42H120.233V37.328C120.233 36.4427 120.041 35.8293 119.657 35.488C119.284 35.136 118.82 34.96 118.265 34.96C117.881 34.96 117.497 35.0507 117.113 35.232C116.729 35.4133 116.409 35.7067 116.153 36.112C115.908 36.5173 115.785 37.0613 115.785 37.744V42H114.505ZM132.747 32.528L133.035 33.664C133.025 33.664 133.009 33.664 132.987 33.664C132.966 33.664 132.945 33.664 132.923 33.664C132.401 33.664 131.995 33.7707 131.707 33.984C131.43 34.1867 131.291 34.5173 131.291 34.976L130.507 34.576C130.507 34.16 130.603 33.7973 130.795 33.488C130.987 33.1787 131.249 32.944 131.579 32.784C131.91 32.6133 132.273 32.528 132.667 32.528C132.678 32.528 132.689 32.528 132.699 32.528C132.721 32.528 132.737 32.528 132.747 32.528ZM130.315 40.976C131.073 40.976 131.665 41.152 132.091 41.504C132.518 41.8453 132.731 42.304 132.731 42.88C132.731 43.4027 132.555 43.856 132.203 44.24C131.862 44.624 131.398 44.9173 130.811 45.12C130.235 45.3333 129.585 45.44 128.859 45.44C127.601 45.44 126.657 45.2267 126.027 44.8C125.409 44.3733 125.099 43.8613 125.099 43.264C125.099 42.8373 125.238 42.4533 125.515 42.112C125.803 41.7813 126.283 41.5947 126.955 41.552L126.843 41.792C126.481 41.696 126.171 41.536 125.915 41.312C125.67 41.0773 125.547 40.7413 125.547 40.304C125.547 39.8667 125.707 39.4933 126.027 39.184C126.358 38.864 126.843 38.6667 127.483 38.592L128.331 39.024H128.171C127.649 39.0773 127.275 39.2107 127.051 39.424C126.838 39.6267 126.731 39.8507 126.731 40.096C126.731 40.3947 126.838 40.6187 127.051 40.768C127.275 40.9067 127.585 40.976 127.979 40.976H130.315ZM128.843 44.368C129.462 44.368 129.969 44.304 130.363 44.176C130.769 44.048 131.067 43.8827 131.259 43.68C131.451 43.4773 131.547 43.2587 131.547 43.024C131.547 42.736 131.43 42.5067 131.195 42.336C130.971 42.1653 130.561 42.08 129.963 42.08H127.499C127.158 42.08 126.87 42.1653 126.635 42.336C126.401 42.5173 126.283 42.7627 126.283 43.072C126.283 43.4667 126.507 43.7813 126.955 44.016C127.414 44.2507 128.043 44.368 128.843 44.368ZM128.731 33.84C129.371 33.84 129.937 33.9573 130.427 34.192C130.929 34.416 131.318 34.7307 131.595 35.136C131.873 35.5413 132.011 36.0107 132.011 36.544C132.011 37.0667 131.873 37.536 131.595 37.952C131.318 38.3573 130.929 38.6773 130.427 38.912C129.937 39.136 129.371 39.248 128.731 39.248C127.675 39.248 126.865 38.9973 126.299 38.496C125.734 37.984 125.451 37.3333 125.451 36.544C125.451 36.0107 125.59 35.5413 125.867 35.136C126.155 34.7307 126.545 34.416 127.035 34.192C127.526 33.9573 128.091 33.84 128.731 33.84ZM128.731 34.88C128.177 34.88 127.713 35.0347 127.339 35.344C126.966 35.6427 126.779 36.0427 126.779 36.544C126.779 37.0347 126.966 37.4347 127.339 37.744C127.713 38.0533 128.177 38.208 128.731 38.208C129.286 38.208 129.75 38.0533 130.123 37.744C130.497 37.4347 130.683 37.0347 130.683 36.544C130.683 36.0427 130.497 35.6427 130.123 35.344C129.75 35.0347 129.286 34.88 128.731 34.88ZM136.767 40.08C137.023 40.08 137.236 40.1493 137.407 40.288C137.588 40.416 137.727 40.5973 137.823 40.832C137.919 41.056 137.967 41.3227 137.967 41.632C137.967 41.984 137.903 42.3307 137.775 42.672C137.658 43.0133 137.471 43.328 137.215 43.616C136.959 43.904 136.628 44.144 136.223 44.336L135.551 43.712C135.839 43.616 136.09 43.4827 136.303 43.312C136.527 43.1413 136.708 42.9493 136.847 42.736C136.986 42.5227 137.076 42.304 137.119 42.08L137.055 42.048C137.012 42.08 136.959 42.1067 136.895 42.128C136.831 42.1493 136.735 42.16 136.607 42.16C136.479 42.16 136.346 42.1227 136.207 42.048C136.079 41.9733 135.967 41.8667 135.871 41.728C135.775 41.5787 135.727 41.3867 135.727 41.152C135.727 40.96 135.775 40.784 135.871 40.624C135.967 40.4533 136.09 40.32 136.239 40.224C136.399 40.128 136.575 40.08 136.767 40.08ZM157.046 42H155.686L154.566 39.072H149.782L148.662 42H147.318L151.43 31.44H152.95L157.046 42ZM150.246 37.872H154.102L152.166 32.672L150.246 37.872ZM164.52 31.44C165.235 31.44 165.853 31.5733 166.376 31.84C166.909 32.096 167.325 32.464 167.624 32.944C167.923 33.424 168.072 33.9947 168.072 34.656C168.072 35.3173 167.923 35.888 167.624 36.368C167.325 36.848 166.909 37.2213 166.376 37.488C165.853 37.744 165.235 37.872 164.52 37.872H162.072V42H160.792V31.44H164.52ZM164.328 36.672C165.16 36.672 165.768 36.5013 166.152 36.16C166.536 35.808 166.728 35.3067 166.728 34.656C166.728 33.9947 166.536 33.4933 166.152 33.152C165.768 32.8107 165.16 32.64 164.328 32.64H162.072V36.672H164.328ZM176.158 31.44C177.235 31.44 178.099 31.7173 178.75 32.272C179.4 32.8267 179.726 33.5787 179.726 34.528C179.726 35.4773 179.395 36.2187 178.734 36.752C178.083 37.2747 177.219 37.536 176.142 37.536L176.03 37.616H173.438V42H172.158V31.44H176.158ZM176.142 36.416C176.899 36.416 177.459 36.2613 177.822 35.952C178.195 35.632 178.382 35.1573 178.382 34.528C178.382 33.8987 178.195 33.4293 177.822 33.12C177.459 32.8 176.899 32.64 176.142 32.64H173.438V36.416H176.142ZM176.878 36.672L180.366 42H178.846L175.806 37.376L176.878 36.672ZM190.907 42V40.96C191.963 40.1813 192.843 39.4987 193.547 38.912C194.262 38.3253 194.833 37.792 195.259 37.312C195.686 36.832 195.99 36.3787 196.171 35.952C196.353 35.5147 196.443 35.0613 196.443 34.592C196.443 33.9627 196.241 33.456 195.835 33.072C195.441 32.6773 194.897 32.48 194.203 32.48C193.478 32.48 192.897 32.72 192.459 33.2C192.022 33.6693 191.766 34.2987 191.691 35.088L190.571 34.416C190.667 33.7973 190.865 33.2533 191.163 32.784C191.473 32.3147 191.883 31.9467 192.395 31.68C192.918 31.4133 193.537 31.28 194.251 31.28C194.795 31.28 195.281 31.36 195.707 31.52C196.145 31.68 196.518 31.9093 196.827 32.208C197.137 32.496 197.371 32.8427 197.531 33.248C197.702 33.6533 197.787 34.1013 197.787 34.592C197.787 35.2533 197.627 35.904 197.307 36.544C196.987 37.1733 196.459 37.8347 195.723 38.528C194.987 39.2213 193.99 39.9893 192.731 40.832V40.848C192.849 40.8373 193.009 40.832 193.211 40.832C193.425 40.8213 193.633 40.816 193.835 40.816C194.049 40.8053 194.209 40.8 194.315 40.8H198.011V42H190.907ZM205.628 42.16C204.433 42.16 203.478 41.696 202.764 40.768C202.049 39.84 201.692 38.4907 201.692 36.72C201.692 34.9493 202.049 33.6 202.764 32.672C203.478 31.744 204.433 31.28 205.628 31.28C206.833 31.28 207.788 31.744 208.492 32.672C209.206 33.6 209.564 34.9493 209.564 36.72C209.564 38.4907 209.206 39.84 208.492 40.768C207.788 41.696 206.833 42.16 205.628 42.16ZM205.628 41.008C206.193 41.008 206.668 40.848 207.052 40.528C207.446 40.1973 207.74 39.712 207.932 39.072C208.134 38.432 208.236 37.648 208.236 36.72C208.236 35.792 208.134 35.008 207.932 34.368C207.74 33.728 207.446 33.248 207.052 32.928C206.668 32.5973 206.193 32.432 205.628 32.432C205.062 32.432 204.582 32.5973 204.188 32.928C203.804 33.248 203.51 33.728 203.308 34.368C203.116 35.008 203.02 35.792 203.02 36.72C203.02 37.648 203.116 38.432 203.308 39.072C203.51 39.712 203.804 40.1973 204.188 40.528C204.582 40.848 205.062 41.008 205.628 41.008ZM213.389 42V40.96C214.445 40.1813 215.325 39.4987 216.029 38.912C216.743 38.3253 217.314 37.792 217.741 37.312C218.167 36.832 218.471 36.3787 218.653 35.952C218.834 35.5147 218.925 35.0613 218.925 34.592C218.925 33.9627 218.722 33.456 218.317 33.072C217.922 32.6773 217.378 32.48 216.685 32.48C215.959 32.48 215.378 32.72 214.941 33.2C214.503 33.6693 214.247 34.2987 214.173 35.088L213.053 34.416C213.149 33.7973 213.346 33.2533 213.645 32.784C213.954 32.3147 214.365 31.9467 214.877 31.68C215.399 31.4133 216.018 31.28 216.733 31.28C217.277 31.28 217.762 31.36 218.189 31.52C218.626 31.68 218.999 31.9093 219.309 32.208C219.618 32.496 219.853 32.8427 220.013 33.248C220.183 33.6533 220.269 34.1013 220.269 34.592C220.269 35.2533 220.109 35.904 219.789 36.544C219.469 37.1733 218.941 37.8347 218.205 38.528C217.469 39.2213 216.471 39.9893 215.213 40.832V40.848C215.33 40.8373 215.49 40.832 215.693 40.832C215.906 40.8213 216.114 40.816 216.317 40.816C216.53 40.8053 216.69 40.8 216.797 40.8H220.493V42H213.389ZM224.317 42V40.96C225.373 40.1813 226.253 39.4987 226.957 38.912C227.671 38.3253 228.242 37.792 228.669 37.312C229.095 36.832 229.399 36.3787 229.581 35.952C229.762 35.5147 229.853 35.0613 229.853 34.592C229.853 33.9627 229.65 33.456 229.245 33.072C228.85 32.6773 228.306 32.48 227.613 32.48C226.887 32.48 226.306 32.72 225.869 33.2C225.431 33.6693 225.175 34.2987 225.101 35.088L223.981 34.416C224.077 33.7973 224.274 33.2533 224.573 32.784C224.882 32.3147 225.293 31.9467 225.805 31.68C226.327 31.4133 226.946 31.28 227.661 31.28C228.205 31.28 228.69 31.36 229.117 31.52C229.554 31.68 229.927 31.9093 230.237 32.208C230.546 32.496 230.781 32.8427 230.941 33.248C231.111 33.6533 231.197 34.1013 231.197 34.592C231.197 35.2533 231.037 35.904 230.717 36.544C230.397 37.1733 229.869 37.8347 229.133 38.528C228.397 39.2213 227.399 39.9893 226.141 40.832V40.848C226.258 40.8373 226.418 40.832 226.621 40.832C226.834 40.8213 227.042 40.816 227.245 40.816C227.458 40.8053 227.618 40.8 227.725 40.8H231.421V42H224.317Z" fill="#B0C0C9"/>
</svg>
