<svg width="471" height="16" viewBox="0 0 471 16" fill="none" xmlns="http://www.w3.org/2000/svg">
<path d="M4.608 12.16C3.94667 12.16 3.33867 11.9947 2.784 11.664C2.22933 11.3333 1.78667 10.8587 1.456 10.24C1.12533 9.61067 0.96 8.864 0.96 8C0.96 7.11467 1.136 6.36267 1.488 5.744C1.84 5.12533 2.304 4.656 2.88 4.336C3.456 4.00533 4.07467 3.84 4.736 3.84C5.39733 3.84 5.968 4.01067 6.448 4.352C6.93867 4.69333 7.264 5.14667 7.424 5.712L7.264 5.824V0.32H8.544V12H7.424L7.312 10.064L7.488 9.968C7.41333 10.4373 7.232 10.8373 6.944 11.168C6.66667 11.488 6.32 11.7333 5.904 11.904C5.49867 12.0747 5.06667 12.16 4.608 12.16ZM4.736 11.04C5.248 11.04 5.69067 10.912 6.064 10.656C6.448 10.4 6.74133 10.0373 6.944 9.568C7.15733 9.088 7.264 8.528 7.264 7.888C7.264 7.28 7.15733 6.75733 6.944 6.32C6.74133 5.88267 6.45333 5.54667 6.08 5.312C5.71733 5.07733 5.29067 4.96 4.8 4.96C3.98933 4.96 3.36 5.23733 2.912 5.792C2.464 6.34667 2.24 7.08267 2.24 8C2.24 8.91733 2.45867 9.65333 2.896 10.208C3.33333 10.7627 3.94667 11.04 4.736 11.04ZM16.4633 12.16C15.7059 12.16 15.0286 11.9947 14.4313 11.664C13.8446 11.3333 13.3859 10.8587 13.0553 10.24C12.7246 9.61067 12.5593 8.864 12.5593 8C12.5593 7.136 12.7246 6.39467 13.0553 5.776C13.3859 5.14667 13.8393 4.66667 14.4153 4.336C14.9913 4.00533 15.6473 3.84 16.3833 3.84C17.1299 3.84 17.7646 4 18.2873 4.32C18.8206 4.64 19.2259 5.07733 19.5033 5.632C19.7806 6.176 19.9193 6.78933 19.9193 7.472C19.9193 7.65333 19.9139 7.81867 19.9033 7.968C19.8926 8.11733 19.8766 8.25067 19.8553 8.368H13.3913V7.232H19.2953L18.6393 7.36C18.6393 6.592 18.4259 6 17.9993 5.584C17.5833 5.168 17.0339 4.96 16.3513 4.96C15.8286 4.96 15.3753 5.08267 14.9913 5.328C14.6179 5.56267 14.3246 5.90933 14.1113 6.368C13.9086 6.816 13.8073 7.36 13.8073 8C13.8073 8.62933 13.9139 9.17333 14.1273 9.632C14.3406 10.0907 14.6393 10.4427 15.0233 10.688C15.4179 10.9227 15.8873 11.04 16.4313 11.04C17.0179 11.04 17.4926 10.928 17.8553 10.704C18.2286 10.48 18.5273 10.176 18.7513 9.792L19.7593 10.384C19.5566 10.7467 19.2953 11.0613 18.9753 11.328C18.6659 11.5947 18.2979 11.8027 17.8713 11.952C17.4553 12.0907 16.9859 12.16 16.4633 12.16ZM26.8336 12.16C26.055 12.16 25.335 11.9947 24.6736 11.664C24.023 11.3333 23.5216 10.864 23.1696 10.256L24.2576 9.472C24.4923 9.96267 24.8336 10.3467 25.2816 10.624C25.7403 10.9013 26.2896 11.04 26.9296 11.04C27.495 11.04 27.9376 10.9333 28.2576 10.72C28.5776 10.496 28.7376 10.208 28.7376 9.856C28.7376 9.632 28.663 9.42933 28.5136 9.248C28.375 9.056 28.103 8.91733 27.6976 8.832L25.7776 8.432C24.999 8.272 24.439 8.00533 24.0976 7.632C23.767 7.25867 23.6016 6.79467 23.6016 6.24C23.6016 5.80267 23.7243 5.40267 23.9696 5.04C24.2256 4.67733 24.583 4.38933 25.0416 4.176C25.511 3.952 26.0603 3.84 26.6896 3.84C27.479 3.84 28.1456 3.99467 28.6896 4.304C29.2336 4.61333 29.639 5.05067 29.9056 5.616L28.8336 6.32C28.6523 5.85067 28.359 5.50933 27.9536 5.296C27.5483 5.072 27.127 4.96 26.6896 4.96C26.3056 4.96 25.975 5.01333 25.6976 5.12C25.431 5.22667 25.223 5.376 25.0736 5.568C24.935 5.74933 24.8656 5.95733 24.8656 6.192C24.8656 6.42667 24.9456 6.64533 25.1056 6.848C25.2656 7.04 25.5643 7.17867 26.0016 7.264L28.0016 7.68C28.7483 7.82933 29.271 8.07467 29.5696 8.416C29.8683 8.75733 30.0176 9.17333 30.0176 9.664C30.0176 10.1653 29.8843 10.608 29.6176 10.992C29.351 11.3653 28.9776 11.6533 28.4976 11.856C28.0176 12.0587 27.463 12.16 26.8336 12.16ZM34.6311 2.464C34.3431 2.464 34.1085 2.37867 33.9271 2.208C33.7565 2.02667 33.6711 1.792 33.6711 1.504C33.6711 1.216 33.7565 0.986666 33.9271 0.815999C34.1085 0.634666 34.3431 0.544 34.6311 0.544C34.9191 0.544 35.1485 0.634666 35.3191 0.815999C35.5005 0.986666 35.5911 1.216 35.5911 1.504C35.5911 1.792 35.5005 2.02667 35.3191 2.208C35.1485 2.37867 34.9191 2.464 34.6311 2.464ZM35.2711 4V12H33.9911V4H35.2711ZM46.5771 2.528L46.8651 3.664C46.8545 3.664 46.8385 3.664 46.8171 3.664C46.7958 3.664 46.7745 3.664 46.7531 3.664C46.2305 3.664 45.8251 3.77067 45.5371 3.984C45.2598 4.18667 45.1211 4.51733 45.1211 4.976L44.3371 4.576C44.3371 4.16 44.4331 3.79733 44.6251 3.488C44.8171 3.17867 45.0785 2.944 45.4091 2.784C45.7398 2.61333 46.1025 2.528 46.4971 2.528C46.5078 2.528 46.5185 2.528 46.5291 2.528C46.5505 2.528 46.5665 2.528 46.5771 2.528ZM44.1451 10.976C44.9025 10.976 45.4945 11.152 45.9211 11.504C46.3478 11.8453 46.5611 12.304 46.5611 12.88C46.5611 13.4027 46.3851 13.856 46.0331 14.24C45.6918 14.624 45.2278 14.9173 44.6411 15.12C44.0651 15.3333 43.4145 15.44 42.6891 15.44C41.4305 15.44 40.4865 15.2267 39.8571 14.8C39.2385 14.3733 38.9291 13.8613 38.9291 13.264C38.9291 12.8373 39.0678 12.4533 39.3451 12.112C39.6331 11.7813 40.1131 11.5947 40.7851 11.552L40.6731 11.792C40.3105 11.696 40.0011 11.536 39.7451 11.312C39.4998 11.0773 39.3771 10.7413 39.3771 10.304C39.3771 9.86667 39.5371 9.49333 39.8571 9.184C40.1878 8.864 40.6731 8.66667 41.3131 8.592L42.1611 9.024H42.0011C41.4785 9.07733 41.1051 9.21067 40.8811 9.424C40.6678 9.62667 40.5611 9.85067 40.5611 10.096C40.5611 10.3947 40.6678 10.6187 40.8811 10.768C41.1051 10.9067 41.4145 10.976 41.8091 10.976H44.1451ZM42.6731 14.368C43.2918 14.368 43.7985 14.304 44.1931 14.176C44.5985 14.048 44.8971 13.8827 45.0891 13.68C45.2811 13.4773 45.3771 13.2587 45.3771 13.024C45.3771 12.736 45.2598 12.5067 45.0251 12.336C44.8011 12.1653 44.3905 12.08 43.7931 12.08H41.3291C40.9878 12.08 40.6998 12.1653 40.4651 12.336C40.2305 12.5173 40.1131 12.7627 40.1131 13.072C40.1131 13.4667 40.3371 13.7813 40.7851 14.016C41.2438 14.2507 41.8731 14.368 42.6731 14.368ZM42.5611 3.84C43.2011 3.84 43.7665 3.95733 44.2571 4.192C44.7585 4.416 45.1478 4.73067 45.4251 5.136C45.7025 5.54133 45.8411 6.01067 45.8411 6.544C45.8411 7.06667 45.7025 7.536 45.4251 7.952C45.1478 8.35733 44.7585 8.67733 44.2571 8.912C43.7665 9.136 43.2011 9.248 42.5611 9.248C41.5051 9.248 40.6945 8.99733 40.1291 8.496C39.5638 7.984 39.2811 7.33333 39.2811 6.544C39.2811 6.01067 39.4198 5.54133 39.6971 5.136C39.9851 4.73067 40.3745 4.416 40.8651 4.192C41.3558 3.95733 41.9211 3.84 42.5611 3.84ZM42.5611 4.88C42.0065 4.88 41.5425 5.03467 41.1691 5.344C40.7958 5.64267 40.6091 6.04267 40.6091 6.544C40.6091 7.03467 40.7958 7.43467 41.1691 7.744C41.5425 8.05333 42.0065 8.208 42.5611 8.208C43.1158 8.208 43.5798 8.05333 43.9531 7.744C44.3265 7.43467 44.5131 7.03467 44.5131 6.544C44.5131 6.04267 44.3265 5.64267 43.9531 5.344C43.5798 5.03467 43.1158 4.88 42.5611 4.88ZM49.9568 12V4H51.0768L51.1888 5.792L50.9808 5.616C51.1514 5.18933 51.3808 4.848 51.6688 4.592C51.9568 4.32533 52.2874 4.13333 52.6608 4.016C53.0448 3.89867 53.4394 3.84 53.8448 3.84C54.4208 3.84 54.9434 3.952 55.4128 4.176C55.8821 4.38933 56.2554 4.72 56.5328 5.168C56.8208 5.616 56.9648 6.18667 56.9648 6.88V12H55.6848V7.328C55.6848 6.44267 55.4928 5.82933 55.1088 5.488C54.7354 5.136 54.2714 4.96 53.7168 4.96C53.3328 4.96 52.9488 5.05067 52.5648 5.232C52.1808 5.41333 51.8608 5.70667 51.6048 6.112C51.3594 6.51733 51.2368 7.06133 51.2368 7.744V12H49.9568ZM64.807 12.16C64.0497 12.16 63.3723 11.9947 62.775 11.664C62.1883 11.3333 61.7297 10.8587 61.399 10.24C61.0683 9.61067 60.903 8.864 60.903 8C60.903 7.136 61.0683 6.39467 61.399 5.776C61.7297 5.14667 62.183 4.66667 62.759 4.336C63.335 4.00533 63.991 3.84 64.727 3.84C65.4737 3.84 66.1083 4 66.631 4.32C67.1643 4.64 67.5697 5.07733 67.847 5.632C68.1243 6.176 68.263 6.78933 68.263 7.472C68.263 7.65333 68.2577 7.81867 68.247 7.968C68.2363 8.11733 68.2203 8.25067 68.199 8.368H61.735V7.232H67.639L66.983 7.36C66.983 6.592 66.7697 6 66.343 5.584C65.927 5.168 65.3777 4.96 64.695 4.96C64.1723 4.96 63.719 5.08267 63.335 5.328C62.9617 5.56267 62.6683 5.90933 62.455 6.368C62.2523 6.816 62.151 7.36 62.151 8C62.151 8.62933 62.2577 9.17333 62.471 9.632C62.6843 10.0907 62.983 10.4427 63.367 10.688C63.7617 10.9227 64.231 11.04 64.775 11.04C65.3617 11.04 65.8363 10.928 66.199 10.704C66.5723 10.48 66.871 10.176 67.095 9.792L68.103 10.384C67.9003 10.7467 67.639 11.0613 67.319 11.328C67.0097 11.5947 66.6417 11.8027 66.215 11.952C65.799 12.0907 65.3297 12.16 64.807 12.16ZM75.4174 12.16C74.756 12.16 74.148 11.9947 73.5934 11.664C73.0387 11.3333 72.596 10.8587 72.2654 10.24C71.9347 9.61067 71.7694 8.864 71.7694 8C71.7694 7.11467 71.9454 6.36267 72.2974 5.744C72.6494 5.12533 73.1134 4.656 73.6894 4.336C74.2654 4.00533 74.884 3.84 75.5454 3.84C76.2067 3.84 76.7774 4.01067 77.2574 4.352C77.748 4.69333 78.0734 5.14667 78.2334 5.712L78.0734 5.824V0.32H79.3534V12H78.2334L78.1214 10.064L78.2974 9.968C78.2227 10.4373 78.0414 10.8373 77.7534 11.168C77.476 11.488 77.1294 11.7333 76.7134 11.904C76.308 12.0747 75.876 12.16 75.4174 12.16ZM75.5454 11.04C76.0574 11.04 76.5 10.912 76.8734 10.656C77.2574 10.4 77.5507 10.0373 77.7534 9.568C77.9667 9.088 78.0734 8.528 78.0734 7.888C78.0734 7.28 77.9667 6.75733 77.7534 6.32C77.5507 5.88267 77.2627 5.54667 76.8894 5.312C76.5267 5.07733 76.1 4.96 75.6094 4.96C74.7987 4.96 74.1694 5.23733 73.7214 5.792C73.2734 6.34667 73.0494 7.08267 73.0494 8C73.0494 8.91733 73.268 9.65333 73.7054 10.208C74.1427 10.7627 74.756 11.04 75.5454 11.04ZM95.6538 6.832C95.6538 6.23467 95.4938 5.776 95.1738 5.456C94.8538 5.12533 94.4004 4.96 93.8138 4.96C93.2591 4.96 92.7898 5.08267 92.4058 5.328C92.0218 5.56267 91.7391 5.94667 91.5578 6.48L90.5178 5.84C90.7311 5.24267 91.1258 4.76267 91.7018 4.4C92.2778 4.02667 92.9924 3.84 93.8458 3.84C94.4218 3.84 94.9444 3.94133 95.4138 4.144C95.8831 4.336 96.2511 4.63467 96.5178 5.04C96.7951 5.43467 96.9338 5.94667 96.9338 6.576V10.448C96.9338 10.832 97.1364 11.024 97.5418 11.024C97.7444 11.024 97.9418 10.9973 98.1338 10.944L98.0698 11.952C97.8564 12.0587 97.5791 12.112 97.2378 12.112C96.9284 12.112 96.6511 12.0533 96.4058 11.936C96.1604 11.8187 95.9684 11.6427 95.8298 11.408C95.6911 11.1627 95.6218 10.8587 95.6218 10.496V10.336L95.9418 10.384C95.8138 10.8 95.5951 11.1413 95.2858 11.408C94.9764 11.664 94.6298 11.856 94.2458 11.984C93.8618 12.1013 93.4831 12.16 93.1098 12.16C92.6404 12.16 92.2031 12.08 91.7978 11.92C91.3924 11.76 91.0671 11.52 90.8218 11.2C90.5871 10.8693 90.4698 10.464 90.4698 9.984C90.4698 9.38667 90.6671 8.896 91.0618 8.512C91.4671 8.11733 92.0271 7.85067 92.7418 7.712L95.9098 7.088V8.144L93.3338 8.672C92.8111 8.77867 92.4218 8.928 92.1658 9.12C91.9098 9.312 91.7818 9.57867 91.7818 9.92C91.7818 10.2507 91.9098 10.5227 92.1658 10.736C92.4324 10.9387 92.8058 11.04 93.2858 11.04C93.5951 11.04 93.8884 11.0027 94.1658 10.928C94.4538 10.8427 94.7098 10.72 94.9338 10.56C95.1578 10.3893 95.3338 10.1813 95.4618 9.936C95.5898 9.68 95.6538 9.38133 95.6538 9.04V6.832ZM101.644 12V4H102.764L102.876 5.792L102.668 5.616C102.839 5.18933 103.068 4.848 103.356 4.592C103.644 4.32533 103.975 4.13333 104.348 4.016C104.732 3.89867 105.127 3.84 105.532 3.84C106.108 3.84 106.631 3.952 107.1 4.176C107.57 4.38933 107.943 4.72 108.22 5.168C108.508 5.616 108.652 6.18667 108.652 6.88V12H107.372V7.328C107.372 6.44267 107.18 5.82933 106.796 5.488C106.423 5.136 105.959 4.96 105.404 4.96C105.02 4.96 104.636 5.05067 104.252 5.232C103.868 5.41333 103.548 5.70667 103.292 6.112C103.047 6.51733 102.924 7.06133 102.924 7.744V12H101.644ZM116.27 12.16C115.609 12.16 115.001 11.9947 114.446 11.664C113.892 11.3333 113.449 10.8587 113.118 10.24C112.788 9.61067 112.622 8.864 112.622 8C112.622 7.11467 112.798 6.36267 113.15 5.744C113.502 5.12533 113.966 4.656 114.542 4.336C115.118 4.00533 115.737 3.84 116.398 3.84C117.06 3.84 117.63 4.01067 118.11 4.352C118.601 4.69333 118.926 5.14667 119.086 5.712L118.926 5.824V0.32H120.206V12H119.086L118.974 10.064L119.15 9.968C119.076 10.4373 118.894 10.8373 118.606 11.168C118.329 11.488 117.982 11.7333 117.566 11.904C117.161 12.0747 116.729 12.16 116.27 12.16ZM116.398 11.04C116.91 11.04 117.353 10.912 117.726 10.656C118.11 10.4 118.404 10.0373 118.606 9.568C118.82 9.088 118.926 8.528 118.926 7.888C118.926 7.28 118.82 6.75733 118.606 6.32C118.404 5.88267 118.116 5.54667 117.742 5.312C117.38 5.07733 116.953 4.96 116.462 4.96C115.652 4.96 115.022 5.23733 114.574 5.792C114.126 6.34667 113.902 7.08267 113.902 8C113.902 8.91733 114.121 9.65333 114.558 10.208C114.996 10.7627 115.609 11.04 116.398 11.04ZM134.955 12.16C134.294 12.16 133.686 11.9947 133.131 11.664C132.576 11.3333 132.134 10.8587 131.803 10.24C131.472 9.61067 131.307 8.864 131.307 8C131.307 7.11467 131.483 6.36267 131.835 5.744C132.187 5.12533 132.651 4.656 133.227 4.336C133.803 4.00533 134.422 3.84 135.083 3.84C135.744 3.84 136.315 4.01067 136.795 4.352C137.286 4.69333 137.611 5.14667 137.771 5.712L137.611 5.824V0.32H138.891V12H137.771L137.659 10.064L137.835 9.968C137.76 10.4373 137.579 10.8373 137.291 11.168C137.014 11.488 136.667 11.7333 136.251 11.904C135.846 12.0747 135.414 12.16 134.955 12.16ZM135.083 11.04C135.595 11.04 136.038 10.912 136.411 10.656C136.795 10.4 137.088 10.0373 137.291 9.568C137.504 9.088 137.611 8.528 137.611 7.888C137.611 7.28 137.504 6.75733 137.291 6.32C137.088 5.88267 136.8 5.54667 136.427 5.312C136.064 5.07733 135.638 4.96 135.147 4.96C134.336 4.96 133.707 5.23733 133.259 5.792C132.811 6.34667 132.587 7.08267 132.587 8C132.587 8.91733 132.806 9.65333 133.243 10.208C133.68 10.7627 134.294 11.04 135.083 11.04ZM146.81 12.16C146.053 12.16 145.375 11.9947 144.778 11.664C144.191 11.3333 143.733 10.8587 143.402 10.24C143.071 9.61067 142.906 8.864 142.906 8C142.906 7.136 143.071 6.39467 143.402 5.776C143.733 5.14667 144.186 4.66667 144.762 4.336C145.338 4.00533 145.994 3.84 146.73 3.84C147.477 3.84 148.111 4 148.634 4.32C149.167 4.64 149.573 5.07733 149.85 5.632C150.127 6.176 150.266 6.78933 150.266 7.472C150.266 7.65333 150.261 7.81867 150.25 7.968C150.239 8.11733 150.223 8.25067 150.202 8.368H143.738V7.232H149.642L148.986 7.36C148.986 6.592 148.773 6 148.346 5.584C147.93 5.168 147.381 4.96 146.698 4.96C146.175 4.96 145.722 5.08267 145.338 5.328C144.965 5.56267 144.671 5.90933 144.458 6.368C144.255 6.816 144.154 7.36 144.154 8C144.154 8.62933 144.261 9.17333 144.474 9.632C144.687 10.0907 144.986 10.4427 145.37 10.688C145.765 10.9227 146.234 11.04 146.778 11.04C147.365 11.04 147.839 10.928 148.202 10.704C148.575 10.48 148.874 10.176 149.098 9.792L150.106 10.384C149.903 10.7467 149.642 11.0613 149.322 11.328C149.013 11.5947 148.645 11.8027 148.218 11.952C147.802 12.0907 147.333 12.16 146.81 12.16ZM159.378 4H160.722L157.394 12H156.114L152.786 4H154.242L156.77 10.704L159.378 4ZM167.338 12.16C166.581 12.16 165.904 11.9947 165.306 11.664C164.72 11.3333 164.261 10.8587 163.93 10.24C163.6 9.61067 163.434 8.864 163.434 8C163.434 7.136 163.6 6.39467 163.93 5.776C164.261 5.14667 164.714 4.66667 165.29 4.336C165.866 4.00533 166.522 3.84 167.258 3.84C168.005 3.84 168.64 4 169.162 4.32C169.696 4.64 170.101 5.07733 170.378 5.632C170.656 6.176 170.794 6.78933 170.794 7.472C170.794 7.65333 170.789 7.81867 170.778 7.968C170.768 8.11733 170.752 8.25067 170.73 8.368H164.266V7.232H170.17L169.514 7.36C169.514 6.592 169.301 6 168.874 5.584C168.458 5.168 167.909 4.96 167.226 4.96C166.704 4.96 166.25 5.08267 165.866 5.328C165.493 5.56267 165.2 5.90933 164.986 6.368C164.784 6.816 164.682 7.36 164.682 8C164.682 8.62933 164.789 9.17333 165.002 9.632C165.216 10.0907 165.514 10.4427 165.898 10.688C166.293 10.9227 166.762 11.04 167.306 11.04C167.893 11.04 168.368 10.928 168.73 10.704C169.104 10.48 169.402 10.176 169.626 9.792L170.634 10.384C170.432 10.7467 170.17 11.0613 169.85 11.328C169.541 11.5947 169.173 11.8027 168.746 11.952C168.33 12.0907 167.861 12.16 167.338 12.16ZM176.045 0.32V9.968C176.045 10.3733 176.119 10.656 176.269 10.816C176.418 10.9653 176.658 11.04 176.989 11.04C177.202 11.04 177.378 11.024 177.517 10.992C177.655 10.96 177.842 10.9013 178.077 10.816L177.869 11.936C177.698 12.0107 177.511 12.064 177.309 12.096C177.106 12.1387 176.898 12.16 176.685 12.16C176.034 12.16 175.549 11.984 175.229 11.632C174.919 11.28 174.765 10.7413 174.765 10.016V0.32H176.045ZM184.631 3.84C185.389 3.84 186.055 4.00533 186.631 4.336C187.218 4.66667 187.677 5.14667 188.007 5.776C188.338 6.39467 188.503 7.136 188.503 8C188.503 8.864 188.338 9.61067 188.007 10.24C187.677 10.8587 187.218 11.3333 186.631 11.664C186.055 11.9947 185.389 12.16 184.631 12.16C183.885 12.16 183.218 11.9947 182.631 11.664C182.045 11.3333 181.586 10.8587 181.255 10.24C180.925 9.61067 180.759 8.864 180.759 8C180.759 7.136 180.925 6.39467 181.255 5.776C181.586 5.14667 182.045 4.66667 182.631 4.336C183.218 4.00533 183.885 3.84 184.631 3.84ZM184.631 4.944C184.087 4.944 183.623 5.06667 183.239 5.312C182.855 5.55733 182.557 5.90933 182.343 6.368C182.141 6.816 182.039 7.36 182.039 8C182.039 8.62933 182.141 9.17333 182.343 9.632C182.557 10.0907 182.855 10.4427 183.239 10.688C183.623 10.9333 184.087 11.056 184.631 11.056C185.175 11.056 185.639 10.9333 186.023 10.688C186.407 10.4427 186.701 10.0907 186.903 9.632C187.117 9.17333 187.223 8.62933 187.223 8C187.223 7.36 187.117 6.816 186.903 6.368C186.701 5.90933 186.407 5.55733 186.023 5.312C185.639 5.06667 185.175 4.944 184.631 4.944ZM192.513 15.36V4H193.633L193.745 5.952L193.569 5.728C193.708 5.35467 193.916 5.02933 194.193 4.752C194.47 4.464 194.806 4.24 195.201 4.08C195.596 3.92 196.022 3.84 196.481 3.84C197.132 3.84 197.729 4.00533 198.273 4.336C198.828 4.66667 199.27 5.14133 199.601 5.76C199.932 6.37867 200.097 7.12533 200.097 8C200.097 8.864 199.926 9.61067 199.585 10.24C199.254 10.8587 198.812 11.3333 198.257 11.664C197.702 11.9947 197.094 12.16 196.433 12.16C195.772 12.16 195.19 12 194.689 11.68C194.198 11.3493 193.846 10.9333 193.633 10.432L193.793 10.192V15.36H192.513ZM196.305 11.04C197.094 11.04 197.708 10.7627 198.145 10.208C198.593 9.65333 198.817 8.91733 198.817 8C198.817 7.08267 198.598 6.34667 198.161 5.792C197.734 5.23733 197.132 4.96 196.353 4.96C195.841 4.96 195.393 5.088 195.009 5.344C194.625 5.58933 194.326 5.94133 194.113 6.4C193.9 6.848 193.793 7.38133 193.793 8C193.793 8.608 193.894 9.14133 194.097 9.6C194.31 10.0587 194.604 10.416 194.977 10.672C195.361 10.9173 195.804 11.04 196.305 11.04ZM207.488 12.16C206.731 12.16 206.054 11.9947 205.456 11.664C204.87 11.3333 204.411 10.8587 204.08 10.24C203.75 9.61067 203.584 8.864 203.584 8C203.584 7.136 203.75 6.39467 204.08 5.776C204.411 5.14667 204.864 4.66667 205.44 4.336C206.016 4.00533 206.672 3.84 207.408 3.84C208.155 3.84 208.79 4 209.312 4.32C209.846 4.64 210.251 5.07733 210.528 5.632C210.806 6.176 210.944 6.78933 210.944 7.472C210.944 7.65333 210.939 7.81867 210.928 7.968C210.918 8.11733 210.902 8.25067 210.88 8.368H204.416V7.232H210.32L209.664 7.36C209.664 6.592 209.451 6 209.024 5.584C208.608 5.168 208.059 4.96 207.376 4.96C206.854 4.96 206.4 5.08267 206.016 5.328C205.643 5.56267 205.35 5.90933 205.136 6.368C204.934 6.816 204.832 7.36 204.832 8C204.832 8.62933 204.939 9.17333 205.152 9.632C205.366 10.0907 205.664 10.4427 206.048 10.688C206.443 10.9227 206.912 11.04 207.456 11.04C208.043 11.04 208.518 10.928 208.88 10.704C209.254 10.48 209.552 10.176 209.776 9.792L210.784 10.384C210.582 10.7467 210.32 11.0613 210 11.328C209.691 11.5947 209.323 11.8027 208.896 11.952C208.48 12.0907 208.011 12.16 207.488 12.16ZM218.099 12.16C217.437 12.16 216.829 11.9947 216.275 11.664C215.72 11.3333 215.277 10.8587 214.947 10.24C214.616 9.61067 214.451 8.864 214.451 8C214.451 7.11467 214.627 6.36267 214.979 5.744C215.331 5.12533 215.795 4.656 216.371 4.336C216.947 4.00533 217.565 3.84 218.227 3.84C218.888 3.84 219.459 4.01067 219.939 4.352C220.429 4.69333 220.755 5.14667 220.915 5.712L220.755 5.824V0.32H222.035V12H220.915L220.803 10.064L220.979 9.968C220.904 10.4373 220.723 10.8373 220.435 11.168C220.157 11.488 219.811 11.7333 219.395 11.904C218.989 12.0747 218.557 12.16 218.099 12.16ZM218.227 11.04C218.739 11.04 219.181 10.912 219.555 10.656C219.939 10.4 220.232 10.0373 220.435 9.568C220.648 9.088 220.755 8.528 220.755 7.888C220.755 7.28 220.648 6.75733 220.435 6.32C220.232 5.88267 219.944 5.54667 219.571 5.312C219.208 5.07733 218.781 4.96 218.291 4.96C217.48 4.96 216.851 5.23733 216.403 5.792C215.955 6.34667 215.731 7.08267 215.731 8C215.731 8.91733 215.949 9.65333 216.387 10.208C216.824 10.7627 217.437 11.04 218.227 11.04ZM237.583 12.16C237.135 12.16 236.719 12.08 236.335 11.92C235.951 11.76 235.62 11.536 235.343 11.248C235.066 10.96 234.858 10.6347 234.719 10.272L234.895 10.048L234.783 12H233.663V0.32H234.943V5.808L234.783 5.568C234.996 5.06667 235.354 4.656 235.855 4.336C236.367 4.00533 236.948 3.84 237.599 3.84C238.26 3.84 238.868 4.00533 239.423 4.336C239.978 4.66667 240.42 5.14133 240.751 5.76C241.082 6.37867 241.247 7.12533 241.247 8C241.247 8.864 241.076 9.61067 240.735 10.24C240.404 10.8587 239.962 11.3333 239.407 11.664C238.852 11.9947 238.244 12.16 237.583 12.16ZM237.455 11.04C238.244 11.04 238.858 10.7627 239.295 10.208C239.743 9.65333 239.967 8.91733 239.967 8C239.967 7.08267 239.748 6.34667 239.311 5.792C238.874 5.23733 238.26 4.96 237.471 4.96C236.97 4.96 236.527 5.088 236.143 5.344C235.77 5.6 235.476 5.95733 235.263 6.416C235.05 6.87467 234.943 7.41333 234.943 8.032C234.943 8.64 235.044 9.17333 235.247 9.632C235.46 10.08 235.754 10.4267 236.127 10.672C236.511 10.9173 236.954 11.04 237.455 11.04ZM251.636 4L247.876 13.344C247.673 13.8667 247.449 14.2773 247.204 14.576C246.969 14.8853 246.703 15.104 246.404 15.232C246.116 15.3707 245.78 15.44 245.396 15.44C245.033 15.44 244.697 15.3867 244.388 15.28C244.089 15.184 243.823 15.0507 243.588 14.88L243.94 13.76C244.153 13.952 244.377 14.0907 244.612 14.176C244.857 14.272 245.097 14.32 245.332 14.32C245.609 14.32 245.871 14.2347 246.116 14.064C246.361 13.8933 246.585 13.5467 246.788 13.024L247.204 11.984L246.404 10.08L243.86 4H245.316L247.316 9.216L247.812 10.64L248.388 9.056L250.26 4H251.636ZM270.309 9.296C270.085 9.89333 269.765 10.4107 269.349 10.848C268.933 11.2747 268.442 11.6 267.877 11.824C267.322 12.048 266.714 12.16 266.053 12.16C265.05 12.16 264.181 11.9413 263.445 11.504C262.719 11.056 262.154 10.4267 261.749 9.616C261.354 8.80533 261.157 7.84 261.157 6.72C261.157 5.6 261.354 4.63467 261.749 3.824C262.154 3.01333 262.719 2.38933 263.445 1.952C264.181 1.504 265.039 1.28 266.021 1.28C266.703 1.28 267.311 1.376 267.845 1.568C268.378 1.74933 268.831 2.02667 269.205 2.4C269.589 2.76267 269.893 3.21067 270.117 3.744L268.853 4.336C268.618 3.728 268.277 3.26933 267.829 2.96C267.391 2.64 266.821 2.48 266.117 2.48C265.402 2.48 264.773 2.65067 264.229 2.992C263.685 3.32267 263.258 3.80267 262.949 4.432C262.65 5.06133 262.501 5.824 262.501 6.72C262.501 7.60533 262.645 8.368 262.933 9.008C263.221 9.63733 263.631 10.1227 264.165 10.464C264.698 10.7947 265.327 10.96 266.053 10.96C266.757 10.96 267.37 10.784 267.893 10.432C268.415 10.0693 268.794 9.53067 269.029 8.816L270.309 9.296ZM274.126 12V0.32H275.406V5.2C275.683 4.72 276.051 4.37333 276.51 4.16C276.968 3.94667 277.47 3.84 278.014 3.84C278.59 3.84 279.112 3.952 279.582 4.176C280.051 4.38933 280.424 4.72 280.702 5.168C280.99 5.616 281.134 6.18667 281.134 6.88V12H279.854V7.328C279.854 6.44267 279.662 5.82933 279.278 5.488C278.904 5.136 278.44 4.96 277.886 4.96C277.502 4.96 277.118 5.05067 276.734 5.232C276.35 5.41333 276.03 5.712 275.774 6.128C275.528 6.53333 275.406 7.07733 275.406 7.76V12H274.126ZM288.976 12.16C288.218 12.16 287.541 11.9947 286.944 11.664C286.357 11.3333 285.898 10.8587 285.568 10.24C285.237 9.61067 285.072 8.864 285.072 8C285.072 7.136 285.237 6.39467 285.568 5.776C285.898 5.14667 286.352 4.66667 286.928 4.336C287.504 4.00533 288.16 3.84 288.896 3.84C289.642 3.84 290.277 4 290.8 4.32C291.333 4.64 291.738 5.07733 292.016 5.632C292.293 6.176 292.432 6.78933 292.432 7.472C292.432 7.65333 292.426 7.81867 292.416 7.968C292.405 8.11733 292.389 8.25067 292.368 8.368H285.904V7.232H291.808L291.152 7.36C291.152 6.592 290.938 6 290.512 5.584C290.096 5.168 289.546 4.96 288.864 4.96C288.341 4.96 287.888 5.08267 287.504 5.328C287.13 5.56267 286.837 5.90933 286.624 6.368C286.421 6.816 286.32 7.36 286.32 8C286.32 8.62933 286.426 9.17333 286.64 9.632C286.853 10.0907 287.152 10.4427 287.536 10.688C287.93 10.9227 288.4 11.04 288.944 11.04C289.53 11.04 290.005 10.928 290.368 10.704C290.741 10.48 291.04 10.176 291.264 9.792L292.272 10.384C292.069 10.7467 291.808 11.0613 291.488 11.328C291.178 11.5947 290.81 11.8027 290.384 11.952C289.968 12.0907 289.498 12.16 288.976 12.16ZM296.466 12V4H297.506L297.682 5.312C297.906 4.82133 298.231 4.45333 298.658 4.208C299.095 3.96267 299.623 3.84 300.242 3.84C300.381 3.84 300.53 3.85067 300.69 3.872C300.861 3.89333 301.005 3.936 301.122 4L300.898 5.168C300.781 5.12533 300.653 5.09333 300.514 5.072C300.375 5.05067 300.178 5.04 299.922 5.04C299.591 5.04 299.255 5.136 298.914 5.328C298.583 5.52 298.306 5.81333 298.082 6.208C297.858 6.592 297.746 7.08267 297.746 7.68V12H296.466ZM311.173 4L307.413 13.344C307.211 13.8667 306.987 14.2773 306.741 14.576C306.507 14.8853 306.24 15.104 305.941 15.232C305.653 15.3707 305.317 15.44 304.933 15.44C304.571 15.44 304.235 15.3867 303.925 15.28C303.627 15.184 303.36 15.0507 303.125 14.88L303.477 13.76C303.691 13.952 303.915 14.0907 304.149 14.176C304.395 14.272 304.635 14.32 304.869 14.32C305.147 14.32 305.408 14.2347 305.653 14.064C305.899 13.8933 306.123 13.5467 306.325 13.024L306.741 11.984L305.941 10.08L303.397 4H304.853L306.853 9.216L307.349 10.64L307.925 9.056L309.797 4H311.173ZM315.663 0.32V9.968C315.663 10.3733 315.738 10.656 315.887 10.816C316.037 10.9653 316.277 11.04 316.607 11.04C316.821 11.04 316.997 11.024 317.135 10.992C317.274 10.96 317.461 10.9013 317.695 10.816L317.487 11.936C317.317 12.0107 317.13 12.064 316.927 12.096C316.725 12.1387 316.517 12.16 316.303 12.16C315.653 12.16 315.167 11.984 314.847 11.632C314.538 11.28 314.383 10.7413 314.383 10.016V0.32H315.663ZM329.246 12L326.126 1.44H327.454L330.062 10.832L332.542 1.44H333.998L336.478 10.864L339.086 1.44H340.35L337.246 12H335.662L333.79 5.152L333.246 2.768H333.23L332.686 5.152L330.83 12H329.246ZM348.044 6.832C348.044 6.23467 347.884 5.776 347.564 5.456C347.244 5.12533 346.791 4.96 346.204 4.96C345.65 4.96 345.18 5.08267 344.796 5.328C344.412 5.56267 344.13 5.94667 343.948 6.48L342.908 5.84C343.122 5.24267 343.516 4.76267 344.092 4.4C344.668 4.02667 345.383 3.84 346.236 3.84C346.812 3.84 347.335 3.94133 347.804 4.144C348.274 4.336 348.642 4.63467 348.908 5.04C349.186 5.43467 349.324 5.94667 349.324 6.576V10.448C349.324 10.832 349.527 11.024 349.932 11.024C350.135 11.024 350.332 10.9973 350.524 10.944L350.46 11.952C350.247 12.0587 349.97 12.112 349.628 12.112C349.319 12.112 349.042 12.0533 348.796 11.936C348.551 11.8187 348.359 11.6427 348.22 11.408C348.082 11.1627 348.012 10.8587 348.012 10.496V10.336L348.332 10.384C348.204 10.8 347.986 11.1413 347.676 11.408C347.367 11.664 347.02 11.856 346.636 11.984C346.252 12.1013 345.874 12.16 345.5 12.16C345.031 12.16 344.594 12.08 344.188 11.92C343.783 11.76 343.458 11.52 343.212 11.2C342.978 10.8693 342.86 10.464 342.86 9.984C342.86 9.38667 343.058 8.896 343.452 8.512C343.858 8.11733 344.418 7.85067 345.132 7.712L348.3 7.088V8.144L345.724 8.672C345.202 8.77867 344.812 8.928 344.556 9.12C344.3 9.312 344.172 9.57867 344.172 9.92C344.172 10.2507 344.3 10.5227 344.556 10.736C344.823 10.9387 345.196 11.04 345.676 11.04C345.986 11.04 346.279 11.0027 346.556 10.928C346.844 10.8427 347.1 10.72 347.324 10.56C347.548 10.3893 347.724 10.1813 347.852 9.936C347.98 9.68 348.044 9.38133 348.044 9.04V6.832ZM354.035 12V4H355.155L355.267 5.792L355.059 5.616C355.23 5.18933 355.459 4.848 355.747 4.592C356.035 4.32533 356.366 4.13333 356.739 4.016C357.123 3.89867 357.518 3.84 357.923 3.84C358.499 3.84 359.022 3.952 359.491 4.176C359.96 4.38933 360.334 4.72 360.611 5.168C360.899 5.616 361.043 6.18667 361.043 6.88V12H359.763V7.328C359.763 6.44267 359.571 5.82933 359.187 5.488C358.814 5.136 358.35 4.96 357.795 4.96C357.411 4.96 357.027 5.05067 356.643 5.232C356.259 5.41333 355.939 5.70667 355.683 6.112C355.438 6.51733 355.315 7.06133 355.315 7.744V12H354.035ZM372.277 2.528L372.565 3.664C372.554 3.664 372.538 3.664 372.517 3.664C372.496 3.664 372.474 3.664 372.453 3.664C371.93 3.664 371.525 3.77067 371.237 3.984C370.96 4.18667 370.821 4.51733 370.821 4.976L370.037 4.576C370.037 4.16 370.133 3.79733 370.325 3.488C370.517 3.17867 370.778 2.944 371.109 2.784C371.44 2.61333 371.802 2.528 372.197 2.528C372.208 2.528 372.218 2.528 372.229 2.528C372.25 2.528 372.266 2.528 372.277 2.528ZM369.845 10.976C370.602 10.976 371.194 11.152 371.621 11.504C372.048 11.8453 372.261 12.304 372.261 12.88C372.261 13.4027 372.085 13.856 371.733 14.24C371.392 14.624 370.928 14.9173 370.341 15.12C369.765 15.3333 369.114 15.44 368.389 15.44C367.13 15.44 366.186 15.2267 365.557 14.8C364.938 14.3733 364.629 13.8613 364.629 13.264C364.629 12.8373 364.768 12.4533 365.045 12.112C365.333 11.7813 365.813 11.5947 366.485 11.552L366.373 11.792C366.01 11.696 365.701 11.536 365.445 11.312C365.2 11.0773 365.077 10.7413 365.077 10.304C365.077 9.86667 365.237 9.49333 365.557 9.184C365.888 8.864 366.373 8.66667 367.013 8.592L367.861 9.024H367.701C367.178 9.07733 366.805 9.21067 366.581 9.424C366.368 9.62667 366.261 9.85067 366.261 10.096C366.261 10.3947 366.368 10.6187 366.581 10.768C366.805 10.9067 367.114 10.976 367.509 10.976H369.845ZM368.373 14.368C368.992 14.368 369.498 14.304 369.893 14.176C370.298 14.048 370.597 13.8827 370.789 13.68C370.981 13.4773 371.077 13.2587 371.077 13.024C371.077 12.736 370.96 12.5067 370.725 12.336C370.501 12.1653 370.09 12.08 369.493 12.08H367.029C366.688 12.08 366.4 12.1653 366.165 12.336C365.93 12.5173 365.813 12.7627 365.813 13.072C365.813 13.4667 366.037 13.7813 366.485 14.016C366.944 14.2507 367.573 14.368 368.373 14.368ZM368.261 3.84C368.901 3.84 369.466 3.95733 369.957 4.192C370.458 4.416 370.848 4.73067 371.125 5.136C371.402 5.54133 371.541 6.01067 371.541 6.544C371.541 7.06667 371.402 7.536 371.125 7.952C370.848 8.35733 370.458 8.67733 369.957 8.912C369.466 9.136 368.901 9.248 368.261 9.248C367.205 9.248 366.394 8.99733 365.829 8.496C365.264 7.984 364.981 7.33333 364.981 6.544C364.981 6.01067 365.12 5.54133 365.397 5.136C365.685 4.73067 366.074 4.416 366.565 4.192C367.056 3.95733 367.621 3.84 368.261 3.84ZM368.261 4.88C367.706 4.88 367.242 5.03467 366.869 5.344C366.496 5.64267 366.309 6.04267 366.309 6.544C366.309 7.03467 366.496 7.43467 366.869 7.744C367.242 8.05333 367.706 8.208 368.261 8.208C368.816 8.208 369.28 8.05333 369.653 7.744C370.026 7.43467 370.213 7.03467 370.213 6.544C370.213 6.04267 370.026 5.64267 369.653 5.344C369.28 5.03467 368.816 4.88 368.261 4.88ZM376.297 10.08C376.553 10.08 376.766 10.1493 376.937 10.288C377.118 10.416 377.257 10.5973 377.353 10.832C377.449 11.056 377.497 11.3227 377.497 11.632C377.497 11.984 377.433 12.3307 377.305 12.672C377.187 13.0133 377.001 13.328 376.745 13.616C376.489 13.904 376.158 14.144 375.753 14.336L375.081 13.712C375.369 13.616 375.619 13.4827 375.833 13.312C376.057 13.1413 376.238 12.9493 376.377 12.736C376.515 12.5227 376.606 12.304 376.649 12.08L376.585 12.048C376.542 12.08 376.489 12.1067 376.425 12.128C376.361 12.1493 376.265 12.16 376.137 12.16C376.009 12.16 375.875 12.1227 375.737 12.048C375.609 11.9733 375.497 11.8667 375.401 11.728C375.305 11.5787 375.257 11.3867 375.257 11.152C375.257 10.96 375.305 10.784 375.401 10.624C375.497 10.4533 375.619 10.32 375.769 10.224C375.929 10.128 376.105 10.08 376.297 10.08ZM396.575 12H395.215L394.095 9.072H389.311L388.191 12H386.847L390.959 1.44H392.479L396.575 12ZM389.775 7.872H393.631L391.695 2.672L389.775 7.872ZM404.05 1.44C404.764 1.44 405.383 1.57333 405.906 1.84C406.439 2.096 406.855 2.464 407.154 2.944C407.452 3.424 407.602 3.99467 407.602 4.656C407.602 5.31733 407.452 5.888 407.154 6.368C406.855 6.848 406.439 7.22133 405.906 7.488C405.383 7.744 404.764 7.872 404.05 7.872H401.602V12H400.322V1.44H404.05ZM403.858 6.672C404.69 6.672 405.298 6.50133 405.682 6.16C406.066 5.808 406.258 5.30667 406.258 4.656C406.258 3.99467 406.066 3.49333 405.682 3.152C405.298 2.81067 404.69 2.64 403.858 2.64H401.602V6.672H403.858ZM415.687 1.44C416.765 1.44 417.629 1.71733 418.279 2.272C418.93 2.82667 419.255 3.57867 419.255 4.528C419.255 5.47733 418.925 6.21867 418.263 6.752C417.613 7.27467 416.749 7.536 415.671 7.536L415.559 7.616H412.967V12H411.687V1.44H415.687ZM415.671 6.416C416.429 6.416 416.989 6.26133 417.351 5.952C417.725 5.632 417.911 5.15733 417.911 4.528C417.911 3.89867 417.725 3.42933 417.351 3.12C416.989 2.8 416.429 2.64 415.671 2.64H412.967V6.416H415.671ZM416.407 6.672L419.895 12H418.375L415.335 7.376L416.407 6.672ZM430.437 12V10.96C431.493 10.1813 432.373 9.49867 433.077 8.912C433.792 8.32533 434.362 7.792 434.789 7.312C435.216 6.832 435.52 6.37867 435.701 5.952C435.882 5.51467 435.973 5.06133 435.973 4.592C435.973 3.96267 435.77 3.456 435.365 3.072C434.97 2.67733 434.426 2.48 433.733 2.48C433.008 2.48 432.426 2.72 431.989 3.2C431.552 3.66933 431.296 4.29867 431.221 5.088L430.101 4.416C430.197 3.79733 430.394 3.25333 430.693 2.784C431.002 2.31467 431.413 1.94667 431.925 1.68C432.448 1.41333 433.066 1.28 433.781 1.28C434.325 1.28 434.81 1.36 435.237 1.52C435.674 1.68 436.048 1.90933 436.357 2.208C436.666 2.496 436.901 2.84267 437.061 3.248C437.232 3.65333 437.317 4.10133 437.317 4.592C437.317 5.25333 437.157 5.904 436.837 6.544C436.517 7.17333 435.989 7.83467 435.253 8.528C434.517 9.22133 433.52 9.98933 432.261 10.832V10.848C432.378 10.8373 432.538 10.832 432.741 10.832C432.954 10.8213 433.162 10.816 433.365 10.816C433.578 10.8053 433.738 10.8 433.845 10.8H437.541V12H430.437ZM445.157 12.16C443.963 12.16 443.008 11.696 442.293 10.768C441.579 9.84 441.221 8.49067 441.221 6.72C441.221 4.94933 441.579 3.6 442.293 2.672C443.008 1.744 443.963 1.28 445.157 1.28C446.363 1.28 447.317 1.744 448.021 2.672C448.736 3.6 449.093 4.94933 449.093 6.72C449.093 8.49067 448.736 9.84 448.021 10.768C447.317 11.696 446.363 12.16 445.157 12.16ZM445.157 11.008C445.723 11.008 446.197 10.848 446.581 10.528C446.976 10.1973 447.269 9.712 447.461 9.072C447.664 8.432 447.765 7.648 447.765 6.72C447.765 5.792 447.664 5.008 447.461 4.368C447.269 3.728 446.976 3.248 446.581 2.928C446.197 2.59733 445.723 2.432 445.157 2.432C444.592 2.432 444.112 2.59733 443.717 2.928C443.333 3.248 443.04 3.728 442.837 4.368C442.645 5.008 442.549 5.792 442.549 6.72C442.549 7.648 442.645 8.432 442.837 9.072C443.04 9.712 443.333 10.1973 443.717 10.528C444.112 10.848 444.592 11.008 445.157 11.008ZM452.918 12V10.96C453.974 10.1813 454.854 9.49867 455.558 8.912C456.273 8.32533 456.844 7.792 457.27 7.312C457.697 6.832 458.001 6.37867 458.182 5.952C458.364 5.51467 458.454 5.06133 458.454 4.592C458.454 3.96267 458.252 3.456 457.846 3.072C457.452 2.67733 456.908 2.48 456.214 2.48C455.489 2.48 454.908 2.72 454.47 3.2C454.033 3.66933 453.777 4.29867 453.702 5.088L452.582 4.416C452.678 3.79733 452.876 3.25333 453.174 2.784C453.484 2.31467 453.894 1.94667 454.406 1.68C454.929 1.41333 455.548 1.28 456.262 1.28C456.806 1.28 457.292 1.36 457.718 1.52C458.156 1.68 458.529 1.90933 458.838 2.208C459.148 2.496 459.382 2.84267 459.542 3.248C459.713 3.65333 459.798 4.10133 459.798 4.592C459.798 5.25333 459.638 5.904 459.318 6.544C458.998 7.17333 458.47 7.83467 457.734 8.528C456.998 9.22133 456.001 9.98933 454.742 10.832V10.848C454.86 10.8373 455.02 10.832 455.222 10.832C455.436 10.8213 455.644 10.816 455.846 10.816C456.06 10.8053 456.22 10.8 456.326 10.8H460.022V12H452.918ZM463.847 12V10.96C464.903 10.1813 465.783 9.49867 466.487 8.912C467.201 8.32533 467.772 7.792 468.199 7.312C468.625 6.832 468.929 6.37867 469.111 5.952C469.292 5.51467 469.383 5.06133 469.383 4.592C469.383 3.96267 469.18 3.456 468.775 3.072C468.38 2.67733 467.836 2.48 467.143 2.48C466.417 2.48 465.836 2.72 465.399 3.2C464.961 3.66933 464.705 4.29867 464.631 5.088L463.511 4.416C463.607 3.79733 463.804 3.25333 464.103 2.784C464.412 2.31467 464.823 1.94667 465.335 1.68C465.857 1.41333 466.476 1.28 467.191 1.28C467.735 1.28 468.22 1.36 468.647 1.52C469.084 1.68 469.457 1.90933 469.767 2.208C470.076 2.496 470.311 2.84267 470.471 3.248C470.641 3.65333 470.727 4.10133 470.727 4.592C470.727 5.25333 470.567 5.904 470.247 6.544C469.927 7.17333 469.399 7.83467 468.663 8.528C467.927 9.22133 466.929 9.98933 465.671 10.832V10.848C465.788 10.8373 465.948 10.832 466.151 10.832C466.364 10.8213 466.572 10.816 466.775 10.816C466.988 10.8053 467.148 10.8 467.255 10.8H470.951V12H463.847Z" fill="#B0C0C9"/>
</svg>
