<svg width="155" height="46" viewBox="0 0 155 46" fill="none" xmlns="http://www.w3.org/2000/svg">
<path d="M8.628 3H10.02L8.004 9H6.6L5.088 4.548L3.66 9H2.256L0.252 3H1.632L3 7.74L4.488 3H5.772L7.26 7.74L8.628 3ZM15.0458 9.12C14.4458 9.12 13.9178 8.996 13.4618 8.748C13.0058 8.5 12.6498 8.144 12.3938 7.68C12.1458 7.208 12.0218 6.648 12.0218 6C12.0218 5.352 12.1458 4.796 12.3938 4.332C12.6498 3.86 13.0018 3.5 13.4498 3.252C13.8978 3.004 14.4058 2.88 14.9738 2.88C15.5578 2.88 16.0538 3 16.4618 3.24C16.8698 3.48 17.1818 3.808 17.3978 4.224C17.6138 4.64 17.7218 5.112 17.7218 5.64C17.7218 5.784 17.7178 5.92 17.7098 6.048C17.7018 6.176 17.6898 6.288 17.6738 6.384H12.8498V5.4H17.1098L16.4738 5.592C16.4738 5.048 16.3378 4.632 16.0658 4.344C15.7938 4.048 15.4218 3.9 14.9498 3.9C14.6058 3.9 14.3058 3.98 14.0498 4.14C13.7938 4.3 13.5978 4.54 13.4618 4.86C13.3258 5.172 13.2578 5.556 13.2578 6.012C13.2578 6.46 13.3298 6.84 13.4738 7.152C13.6178 7.464 13.8218 7.7 14.0858 7.86C14.3498 8.02 14.6618 8.1 15.0218 8.1C15.4218 8.1 15.7458 8.024 15.9938 7.872C16.2418 7.72 16.4378 7.508 16.5818 7.236L17.6018 7.716C17.4578 8.004 17.2618 8.256 17.0138 8.472C16.7738 8.68 16.4858 8.84 16.1498 8.952C15.8138 9.064 15.4458 9.12 15.0458 9.12ZM23.8793 9.12C23.5273 9.12 23.2033 9.052 22.9073 8.916C22.6193 8.78 22.3753 8.592 22.1753 8.352C21.9753 8.104 21.8273 7.828 21.7313 7.524L21.8873 7.32L21.7913 9H20.6633V0.3H21.9473V4.512L21.8033 4.308C21.9553 3.892 22.2153 3.552 22.5833 3.288C22.9513 3.016 23.3953 2.88 23.9153 2.88C24.3953 2.88 24.8353 3.004 25.2353 3.252C25.6433 3.5 25.9633 3.856 26.1953 4.32C26.4273 4.784 26.5433 5.348 26.5433 6.012C26.5433 6.66 26.4233 7.216 26.1833 7.68C25.9513 8.144 25.6313 8.5 25.2233 8.748C24.8233 8.996 24.3753 9.12 23.8793 9.12ZM23.6033 8.088C24.1233 8.088 24.5273 7.904 24.8153 7.536C25.1113 7.16 25.2593 6.648 25.2593 6C25.2593 5.352 25.1153 4.844 24.8273 4.476C24.5393 4.108 24.1353 3.924 23.6153 3.924C23.2793 3.924 22.9873 4.012 22.7393 4.188C22.4913 4.356 22.2953 4.596 22.1513 4.908C22.0153 5.22 21.9473 5.592 21.9473 6.024C21.9473 6.448 22.0153 6.816 22.1513 7.128C22.2873 7.432 22.4793 7.668 22.7273 7.836C22.9833 8.004 23.2753 8.088 23.6033 8.088ZM37.0331 9.12C36.5371 9.12 36.0851 8.996 35.6771 8.748C35.2771 8.5 34.9611 8.144 34.7291 7.68C34.4971 7.216 34.3811 6.66 34.3811 6.012C34.3811 5.34 34.5051 4.772 34.7531 4.308C35.0011 3.844 35.3331 3.492 35.7491 3.252C36.1651 3.004 36.6211 2.88 37.1171 2.88C37.6291 2.88 38.0611 3.02 38.4131 3.3C38.7651 3.58 39.0011 3.944 39.1211 4.392L38.9771 4.524V0.3H40.2611V9H39.1211L39.0251 7.368L39.1931 7.38C39.1371 7.74 39.0051 8.052 38.7971 8.316C38.5891 8.572 38.3291 8.772 38.0171 8.916C37.7131 9.052 37.3851 9.12 37.0331 9.12ZM37.3091 8.088C37.6531 8.088 37.9491 8 38.1971 7.824C38.4451 7.648 38.6371 7.4 38.7731 7.08C38.9091 6.76 38.9771 6.376 38.9771 5.928C38.9771 5.512 38.9091 5.156 38.7731 4.86C38.6371 4.556 38.4451 4.324 38.1971 4.164C37.9571 4.004 37.6771 3.924 37.3571 3.924C36.8211 3.924 36.4051 4.108 36.1091 4.476C35.8131 4.844 35.6651 5.352 35.6651 6C35.6651 6.648 35.8091 7.16 36.0971 7.536C36.3851 7.904 36.7891 8.088 37.3091 8.088ZM46.2126 9.12C45.6126 9.12 45.0846 8.996 44.6286 8.748C44.1726 8.5 43.8166 8.144 43.5606 7.68C43.3126 7.208 43.1886 6.648 43.1886 6C43.1886 5.352 43.3126 4.796 43.5606 4.332C43.8166 3.86 44.1686 3.5 44.6166 3.252C45.0646 3.004 45.5726 2.88 46.1406 2.88C46.7246 2.88 47.2206 3 47.6286 3.24C48.0366 3.48 48.3486 3.808 48.5646 4.224C48.7806 4.64 48.8886 5.112 48.8886 5.64C48.8886 5.784 48.8846 5.92 48.8766 6.048C48.8686 6.176 48.8566 6.288 48.8406 6.384H44.0166V5.4H48.2766L47.6406 5.592C47.6406 5.048 47.5046 4.632 47.2326 4.344C46.9606 4.048 46.5886 3.9 46.1166 3.9C45.7726 3.9 45.4726 3.98 45.2166 4.14C44.9606 4.3 44.7646 4.54 44.6286 4.86C44.4926 5.172 44.4246 5.556 44.4246 6.012C44.4246 6.46 44.4966 6.84 44.6406 7.152C44.7846 7.464 44.9886 7.7 45.2526 7.86C45.5166 8.02 45.8286 8.1 46.1886 8.1C46.5886 8.1 46.9126 8.024 47.1606 7.872C47.4086 7.72 47.6046 7.508 47.7486 7.236L48.7686 7.716C48.6246 8.004 48.4286 8.256 48.1806 8.472C47.9406 8.68 47.6526 8.84 47.3166 8.952C46.9806 9.064 46.6126 9.12 46.2126 9.12ZM55.6023 3H56.9463L54.5583 9H53.1543L50.7543 3H52.1583L53.8623 7.884L55.6023 3ZM61.9658 9.12C61.3658 9.12 60.8378 8.996 60.3818 8.748C59.9258 8.5 59.5698 8.144 59.3138 7.68C59.0658 7.208 58.9418 6.648 58.9418 6C58.9418 5.352 59.0658 4.796 59.3138 4.332C59.5698 3.86 59.9218 3.5 60.3698 3.252C60.8178 3.004 61.3258 2.88 61.8938 2.88C62.4778 2.88 62.9738 3 63.3818 3.24C63.7898 3.48 64.1018 3.808 64.3178 4.224C64.5338 4.64 64.6418 5.112 64.6418 5.64C64.6418 5.784 64.6378 5.92 64.6298 6.048C64.6218 6.176 64.6098 6.288 64.5938 6.384H59.7698V5.4H64.0298L63.3938 5.592C63.3938 5.048 63.2578 4.632 62.9858 4.344C62.7138 4.048 62.3418 3.9 61.8698 3.9C61.5258 3.9 61.2258 3.98 60.9698 4.14C60.7138 4.3 60.5178 4.54 60.3818 4.86C60.2458 5.172 60.1778 5.556 60.1778 6.012C60.1778 6.46 60.2498 6.84 60.3938 7.152C60.5378 7.464 60.7418 7.7 61.0058 7.86C61.2698 8.02 61.5818 8.1 61.9418 8.1C62.3418 8.1 62.6658 8.024 62.9138 7.872C63.1618 7.72 63.3578 7.508 63.5018 7.236L64.5218 7.716C64.3778 8.004 64.1818 8.256 63.9338 8.472C63.6938 8.68 63.4058 8.84 63.0698 8.952C62.7338 9.064 62.3658 9.12 61.9658 9.12ZM68.8313 0.3V7.32C68.8313 7.616 68.8833 7.82 68.9873 7.932C69.0913 8.044 69.2633 8.1 69.5033 8.1C69.6473 8.1 69.7673 8.092 69.8633 8.076C69.9673 8.052 70.0953 8.012 70.2473 7.956L70.1033 8.916C69.9673 8.98 69.8113 9.028 69.6353 9.06C69.4593 9.1 69.2833 9.12 69.1073 9.12C68.5713 9.12 68.1753 8.984 67.9193 8.712C67.6713 8.432 67.5473 8.004 67.5473 7.428V0.3H68.8313ZM75.2456 2.88C75.8296 2.88 76.3456 3.004 76.7936 3.252C77.2416 3.5 77.5896 3.86 77.8376 4.332C78.0936 4.796 78.2216 5.352 78.2216 6C78.2216 6.648 78.0936 7.208 77.8376 7.68C77.5896 8.144 77.2416 8.5 76.7936 8.748C76.3456 8.996 75.8296 9.12 75.2456 9.12C74.6616 9.12 74.1456 8.996 73.6976 8.748C73.2496 8.5 72.8976 8.144 72.6416 7.68C72.3856 7.208 72.2576 6.648 72.2576 6C72.2576 5.352 72.3856 4.796 72.6416 4.332C72.8976 3.86 73.2496 3.5 73.6976 3.252C74.1456 3.004 74.6616 2.88 75.2456 2.88ZM75.2456 3.888C74.8856 3.888 74.5776 3.972 74.3216 4.14C74.0736 4.3 73.8816 4.536 73.7456 4.848C73.6096 5.16 73.5416 5.544 73.5416 6C73.5416 6.448 73.6096 6.832 73.7456 7.152C73.8816 7.464 74.0736 7.704 74.3216 7.872C74.5776 8.032 74.8856 8.112 75.2456 8.112C75.6056 8.112 75.9096 8.032 76.1576 7.872C76.4056 7.704 76.5976 7.464 76.7336 7.152C76.8696 6.832 76.9376 6.448 76.9376 6C76.9376 5.544 76.8696 5.16 76.7336 4.848C76.5976 4.536 76.4056 4.3 76.1576 4.14C75.9096 3.972 75.6056 3.888 75.2456 3.888ZM81.1569 11.52V3H82.2969L82.3929 4.68L82.2249 4.476C82.3209 4.164 82.4689 3.888 82.6689 3.648C82.8689 3.408 83.1169 3.22 83.4129 3.084C83.7169 2.948 84.0489 2.88 84.4089 2.88C84.8969 2.88 85.3409 3.004 85.7409 3.252C86.1409 3.5 86.4569 3.856 86.6889 4.32C86.9209 4.776 87.0369 5.332 87.0369 5.988C87.0369 6.644 86.9169 7.208 86.6769 7.68C86.4449 8.144 86.1249 8.5 85.7169 8.748C85.3169 8.996 84.8689 9.12 84.3729 9.12C83.8609 9.12 83.4249 8.988 83.0649 8.724C82.7049 8.452 82.4489 8.108 82.2969 7.692L82.4409 7.488V11.52H81.1569ZM84.0969 8.076C84.6169 8.076 85.0209 7.892 85.3089 7.524C85.6049 7.156 85.7529 6.648 85.7529 6C85.7529 5.352 85.6089 4.844 85.3209 4.476C85.0329 4.1 84.6329 3.912 84.1209 3.912C83.7849 3.912 83.4889 4 83.2329 4.176C82.9849 4.344 82.7889 4.584 82.6449 4.896C82.5089 5.2 82.4409 5.568 82.4409 6C82.4409 6.424 82.5089 6.792 82.6449 7.104C82.7809 7.416 82.9729 7.656 83.2209 7.824C83.4689 7.992 83.7609 8.076 84.0969 8.076ZM92.6404 9.12C92.0404 9.12 91.5124 8.996 91.0564 8.748C90.6004 8.5 90.2444 8.144 89.9884 7.68C89.7404 7.208 89.6164 6.648 89.6164 6C89.6164 5.352 89.7404 4.796 89.9884 4.332C90.2444 3.86 90.5964 3.5 91.0444 3.252C91.4924 3.004 92.0004 2.88 92.5684 2.88C93.1524 2.88 93.6484 3 94.0564 3.24C94.4644 3.48 94.7764 3.808 94.9924 4.224C95.2084 4.64 95.3164 5.112 95.3164 5.64C95.3164 5.784 95.3124 5.92 95.3044 6.048C95.2964 6.176 95.2844 6.288 95.2684 6.384H90.4444V5.4H94.7044L94.0684 5.592C94.0684 5.048 93.9324 4.632 93.6604 4.344C93.3884 4.048 93.0164 3.9 92.5444 3.9C92.2004 3.9 91.9004 3.98 91.6444 4.14C91.3884 4.3 91.1924 4.54 91.0564 4.86C90.9204 5.172 90.8524 5.556 90.8524 6.012C90.8524 6.46 90.9244 6.84 91.0684 7.152C91.2124 7.464 91.4164 7.7 91.6804 7.86C91.9444 8.02 92.2564 8.1 92.6164 8.1C93.0164 8.1 93.3404 8.024 93.5884 7.872C93.8364 7.72 94.0324 7.508 94.1764 7.236L95.1964 7.716C95.0524 8.004 94.8564 8.256 94.6084 8.472C94.3684 8.68 94.0804 8.84 93.7444 8.952C93.4084 9.064 93.0404 9.12 92.6404 9.12ZM98.2579 9V3H99.3499L99.4699 4.08C99.6299 3.688 99.8659 3.392 100.178 3.192C100.498 2.984 100.89 2.88 101.354 2.88C101.474 2.88 101.594 2.892 101.714 2.916C101.834 2.932 101.934 2.96 102.014 3L101.834 4.128C101.746 4.096 101.646 4.072 101.534 4.056C101.43 4.032 101.286 4.02 101.102 4.02C100.854 4.02 100.61 4.088 100.37 4.224C100.13 4.352 99.9299 4.548 99.7699 4.812C99.6179 5.076 99.5419 5.412 99.5419 5.82V9H98.2579ZM104.245 7.38C104.469 7.38 104.653 7.436 104.797 7.548C104.949 7.652 105.065 7.8 105.145 7.992C105.225 8.176 105.265 8.388 105.265 8.628C105.265 8.924 105.209 9.208 105.097 9.48C104.985 9.76 104.821 10.012 104.605 10.236C104.397 10.468 104.145 10.656 103.849 10.8L103.249 10.284C103.465 10.204 103.657 10.1 103.825 9.972C103.993 9.844 104.133 9.7 104.245 9.54C104.365 9.38 104.449 9.216 104.497 9.048L104.449 9.024C104.409 9.048 104.361 9.068 104.305 9.084C104.257 9.1 104.185 9.108 104.089 9.108C103.977 9.108 103.861 9.076 103.741 9.012C103.629 8.956 103.533 8.868 103.453 8.748C103.373 8.628 103.333 8.472 103.333 8.28C103.333 8.104 103.373 7.948 103.453 7.812C103.541 7.676 103.653 7.572 103.789 7.5C103.925 7.42 104.077 7.38 104.245 7.38ZM113.433 9V3H114.573L114.633 4.008C114.841 3.624 115.117 3.34 115.461 3.156C115.813 2.972 116.185 2.88 116.577 2.88C117.009 2.88 117.405 2.98 117.765 3.18C118.133 3.372 118.409 3.664 118.593 4.056C118.721 3.792 118.897 3.572 119.121 3.396C119.345 3.22 119.593 3.092 119.865 3.012C120.137 2.924 120.405 2.88 120.669 2.88C121.053 2.88 121.413 2.96 121.749 3.12C122.085 3.28 122.357 3.524 122.565 3.852C122.773 4.18 122.877 4.6 122.877 5.112V9H121.593V5.316C121.593 4.828 121.477 4.476 121.245 4.26C121.013 4.044 120.717 3.936 120.357 3.936C120.077 3.936 119.817 4.004 119.577 4.14C119.345 4.276 119.157 4.48 119.013 4.752C118.869 5.016 118.797 5.344 118.797 5.736V9H117.513V5.316C117.513 4.828 117.397 4.476 117.165 4.26C116.933 4.044 116.637 3.936 116.277 3.936C116.037 3.936 115.797 4 115.557 4.128C115.317 4.256 115.117 4.456 114.957 4.728C114.797 5 114.717 5.36 114.717 5.808V9H113.433ZM128.279 9.12C127.887 9.12 127.523 9.048 127.187 8.904C126.859 8.76 126.595 8.528 126.395 8.208C126.195 7.888 126.095 7.472 126.095 6.96V3H127.379V6.636C127.379 7.18 127.495 7.556 127.727 7.764C127.959 7.964 128.283 8.064 128.699 8.064C128.899 8.064 129.091 8.032 129.275 7.968C129.467 7.896 129.639 7.788 129.791 7.644C129.943 7.492 130.059 7.3 130.139 7.068C130.227 6.836 130.271 6.564 130.271 6.252V3H131.555V9H130.427L130.367 8.028C130.159 8.404 129.879 8.68 129.527 8.856C129.175 9.032 128.759 9.12 128.279 9.12ZM136.129 0.3V7.32C136.129 7.616 136.181 7.82 136.285 7.932C136.389 8.044 136.561 8.1 136.801 8.1C136.945 8.1 137.065 8.092 137.161 8.076C137.265 8.052 137.393 8.012 137.545 7.956L137.401 8.916C137.265 8.98 137.109 9.028 136.933 9.06C136.757 9.1 136.581 9.12 136.405 9.12C135.869 9.12 135.473 8.984 135.217 8.712C134.969 8.432 134.845 8.004 134.845 7.428V0.3H136.129ZM141.469 1.236V7.2C141.469 7.496 141.545 7.712 141.697 7.848C141.857 7.984 142.069 8.052 142.333 8.052C142.549 8.052 142.737 8.02 142.897 7.956C143.057 7.884 143.205 7.788 143.341 7.668L143.629 8.604C143.445 8.764 143.217 8.892 142.945 8.988C142.681 9.076 142.385 9.12 142.057 9.12C141.713 9.12 141.397 9.064 141.109 8.952C140.821 8.84 140.597 8.66 140.437 8.412C140.277 8.156 140.193 7.824 140.185 7.416V1.596L141.469 1.236ZM143.533 3V4.008H139.033V3H143.533ZM146.771 1.992C146.491 1.992 146.275 1.924 146.123 1.788C145.979 1.644 145.907 1.444 145.907 1.188C145.907 0.932 145.979 0.736 146.123 0.599999C146.275 0.464 146.491 0.396 146.771 0.396C147.043 0.396 147.251 0.464 147.395 0.599999C147.547 0.736 147.623 0.932 147.623 1.188C147.623 1.444 147.547 1.644 147.395 1.788C147.251 1.924 147.043 1.992 146.771 1.992ZM147.407 3V9H146.123V3H147.407ZM154.876 5.244V6.432H150.784V5.244H154.876ZM0.996 27V21H2.136L2.196 22.008C2.404 21.624 2.68 21.34 3.024 21.156C3.376 20.972 3.748 20.88 4.14 20.88C4.572 20.88 4.968 20.98 5.328 21.18C5.696 21.372 5.972 21.664 6.156 22.056C6.284 21.792 6.46 21.572 6.684 21.396C6.908 21.22 7.156 21.092 7.428 21.012C7.7 20.924 7.968 20.88 8.232 20.88C8.616 20.88 8.976 20.96 9.312 21.12C9.648 21.28 9.92 21.524 10.128 21.852C10.336 22.18 10.44 22.6 10.44 23.112V27H9.156V23.316C9.156 22.828 9.04 22.476 8.808 22.26C8.576 22.044 8.28 21.936 7.92 21.936C7.64 21.936 7.38 22.004 7.14 22.14C6.908 22.276 6.72 22.48 6.576 22.752C6.432 23.016 6.36 23.344 6.36 23.736V27H5.076V23.316C5.076 22.828 4.96 22.476 4.728 22.26C4.496 22.044 4.2 21.936 3.84 21.936C3.6 21.936 3.36 22 3.12 22.128C2.88 22.256 2.68 22.456 2.52 22.728C2.36 23 2.28 23.36 2.28 23.808V27H0.996ZM16.3466 27.12C15.7466 27.12 15.2186 26.996 14.7626 26.748C14.3066 26.5 13.9506 26.144 13.6946 25.68C13.4466 25.208 13.3226 24.648 13.3226 24C13.3226 23.352 13.4466 22.796 13.6946 22.332C13.9506 21.86 14.3026 21.5 14.7506 21.252C15.1986 21.004 15.7066 20.88 16.2746 20.88C16.8586 20.88 17.3546 21 17.7626 21.24C18.1706 21.48 18.4826 21.808 18.6986 22.224C18.9146 22.64 19.0226 23.112 19.0226 23.64C19.0226 23.784 19.0186 23.92 19.0106 24.048C19.0026 24.176 18.9906 24.288 18.9746 24.384H14.1506V23.4H18.4106L17.7746 23.592C17.7746 23.048 17.6386 22.632 17.3666 22.344C17.0946 22.048 16.7226 21.9 16.2506 21.9C15.9066 21.9 15.6066 21.98 15.3506 22.14C15.0946 22.3 14.8986 22.54 14.7626 22.86C14.6266 23.172 14.5586 23.556 14.5586 24.012C14.5586 24.46 14.6306 24.84 14.7746 25.152C14.9186 25.464 15.1226 25.7 15.3866 25.86C15.6506 26.02 15.9626 26.1 16.3226 26.1C16.7226 26.1 17.0466 26.024 17.2946 25.872C17.5426 25.72 17.7386 25.508 17.8826 25.236L18.9026 25.716C18.7586 26.004 18.5626 26.256 18.3146 26.472C18.0746 26.68 17.7866 26.84 17.4506 26.952C17.1146 27.064 16.7466 27.12 16.3466 27.12ZM24.2681 27.12C23.7721 27.12 23.3201 26.996 22.9121 26.748C22.5121 26.5 22.1961 26.144 21.9641 25.68C21.7321 25.216 21.6161 24.66 21.6161 24.012C21.6161 23.34 21.7401 22.772 21.9881 22.308C22.2361 21.844 22.5681 21.492 22.9841 21.252C23.4001 21.004 23.8561 20.88 24.3521 20.88C24.8641 20.88 25.2961 21.02 25.6481 21.3C26.0001 21.58 26.2361 21.944 26.3561 22.392L26.2121 22.524V18.3H27.4961V27H26.3561L26.2601 25.368L26.4281 25.38C26.3721 25.74 26.2401 26.052 26.0321 26.316C25.8241 26.572 25.5641 26.772 25.2521 26.916C24.9481 27.052 24.6201 27.12 24.2681 27.12ZM24.5441 26.088C24.8881 26.088 25.1841 26 25.4321 25.824C25.6801 25.648 25.8721 25.4 26.0081 25.08C26.1441 24.76 26.2121 24.376 26.2121 23.928C26.2121 23.512 26.1441 23.156 26.0081 22.86C25.8721 22.556 25.6801 22.324 25.4321 22.164C25.1921 22.004 24.9121 21.924 24.5921 21.924C24.0561 21.924 23.6401 22.108 23.3441 22.476C23.0481 22.844 22.9001 23.352 22.9001 24C22.9001 24.648 23.0441 25.16 23.3321 25.536C23.6201 25.904 24.0241 26.088 24.5441 26.088ZM31.4556 19.992C31.1756 19.992 30.9596 19.924 30.8076 19.788C30.6636 19.644 30.5916 19.444 30.5916 19.188C30.5916 18.932 30.6636 18.736 30.8076 18.6C30.9596 18.464 31.1756 18.396 31.4556 18.396C31.7276 18.396 31.9356 18.464 32.0796 18.6C32.2316 18.736 32.3076 18.932 32.3076 19.188C32.3076 19.444 32.2316 19.644 32.0796 19.788C31.9356 19.924 31.7276 19.992 31.4556 19.992ZM32.0916 21V27H30.8076V21H32.0916ZM38.8885 23.148C38.8885 22.748 38.7765 22.44 38.5525 22.224C38.3365 22 38.0365 21.888 37.6525 21.888C37.2925 21.888 36.9845 21.972 36.7285 22.14C36.4725 22.308 36.2845 22.58 36.1645 22.956L35.0845 22.5C35.2365 22.012 35.5325 21.62 35.9725 21.324C36.4205 21.028 36.9965 20.88 37.7005 20.88C38.1805 20.88 38.6045 20.96 38.9725 21.12C39.3405 21.272 39.6285 21.504 39.8365 21.816C40.0525 22.128 40.1605 22.528 40.1605 23.016V25.692C40.1605 25.988 40.3085 26.136 40.6045 26.136C40.7485 26.136 40.8885 26.116 41.0245 26.076L40.9525 26.964C40.7685 27.052 40.5365 27.096 40.2565 27.096C40.0005 27.096 39.7685 27.052 39.5605 26.964C39.3605 26.868 39.2005 26.728 39.0805 26.544C38.9685 26.352 38.9125 26.116 38.9125 25.836V25.752L39.1765 25.74C39.1045 26.052 38.9565 26.312 38.7325 26.52C38.5085 26.72 38.2485 26.872 37.9525 26.976C37.6565 27.072 37.3565 27.12 37.0525 27.12C36.6765 27.12 36.3365 27.06 36.0325 26.94C35.7365 26.82 35.5005 26.64 35.3245 26.4C35.1565 26.152 35.0725 25.848 35.0725 25.488C35.0725 25.04 35.2165 24.672 35.5045 24.384C35.8005 24.096 36.2165 23.9 36.7525 23.796L39.0805 23.34L39.0685 24.24L37.3765 24.588C37.0405 24.652 36.7885 24.744 36.6205 24.864C36.4525 24.984 36.3685 25.16 36.3685 25.392C36.3685 25.616 36.4525 25.796 36.6205 25.932C36.7965 26.06 37.0285 26.124 37.3165 26.124C37.5165 26.124 37.7085 26.1 37.8925 26.052C38.0845 26.004 38.2565 25.928 38.4085 25.824C38.5605 25.712 38.6765 25.572 38.7565 25.404C38.8445 25.228 38.8885 25.02 38.8885 24.78V23.148ZM52.0403 23.148C52.0403 22.748 51.9283 22.44 51.7043 22.224C51.4883 22 51.1883 21.888 50.8043 21.888C50.4443 21.888 50.1363 21.972 49.8803 22.14C49.6243 22.308 49.4363 22.58 49.3163 22.956L48.2363 22.5C48.3883 22.012 48.6843 21.62 49.1243 21.324C49.5723 21.028 50.1483 20.88 50.8523 20.88C51.3323 20.88 51.7563 20.96 52.1243 21.12C52.4923 21.272 52.7803 21.504 52.9883 21.816C53.2043 22.128 53.3123 22.528 53.3123 23.016V25.692C53.3123 25.988 53.4603 26.136 53.7563 26.136C53.9003 26.136 54.0403 26.116 54.1763 26.076L54.1043 26.964C53.9203 27.052 53.6883 27.096 53.4083 27.096C53.1523 27.096 52.9203 27.052 52.7123 26.964C52.5123 26.868 52.3523 26.728 52.2323 26.544C52.1203 26.352 52.0643 26.116 52.0643 25.836V25.752L52.3283 25.74C52.2563 26.052 52.1083 26.312 51.8843 26.52C51.6603 26.72 51.4003 26.872 51.1043 26.976C50.8083 27.072 50.5083 27.12 50.2043 27.12C49.8283 27.12 49.4883 27.06 49.1843 26.94C48.8883 26.82 48.6523 26.64 48.4763 26.4C48.3083 26.152 48.2243 25.848 48.2243 25.488C48.2243 25.04 48.3683 24.672 48.6563 24.384C48.9523 24.096 49.3683 23.9 49.9043 23.796L52.2323 23.34L52.2203 24.24L50.5283 24.588C50.1923 24.652 49.9403 24.744 49.7723 24.864C49.6043 24.984 49.5203 25.16 49.5203 25.392C49.5203 25.616 49.6043 25.796 49.7723 25.932C49.9483 26.06 50.1803 26.124 50.4683 26.124C50.6683 26.124 50.8603 26.1 51.0443 26.052C51.2363 26.004 51.4083 25.928 51.5603 25.824C51.7123 25.712 51.8283 25.572 51.9083 25.404C51.9963 25.228 52.0403 25.02 52.0403 24.78V23.148ZM56.736 27V21H57.828L57.948 22.08C58.108 21.688 58.344 21.392 58.656 21.192C58.976 20.984 59.368 20.88 59.832 20.88C59.952 20.88 60.072 20.892 60.192 20.916C60.312 20.932 60.412 20.96 60.492 21L60.312 22.128C60.224 22.096 60.124 22.072 60.012 22.056C59.908 22.032 59.764 22.02 59.58 22.02C59.332 22.02 59.088 22.088 58.848 22.224C58.608 22.352 58.408 22.548 58.248 22.812C58.096 23.076 58.02 23.412 58.02 23.82V27H56.736ZM64.4838 19.236V25.2C64.4838 25.496 64.5598 25.712 64.7118 25.848C64.8718 25.984 65.0838 26.052 65.3478 26.052C65.5638 26.052 65.7518 26.02 65.9118 25.956C66.0718 25.884 66.2198 25.788 66.3558 25.668L66.6438 26.604C66.4598 26.764 66.2318 26.892 65.9598 26.988C65.6958 27.076 65.3998 27.12 65.0718 27.12C64.7278 27.12 64.4118 27.064 64.1238 26.952C63.8358 26.84 63.6118 26.66 63.4518 26.412C63.2918 26.156 63.2078 25.824 63.1998 25.416V19.596L64.4838 19.236ZM66.5478 21V22.008H62.0478V21H66.5478ZM69.7857 19.992C69.5057 19.992 69.2897 19.924 69.1377 19.788C68.9937 19.644 68.9217 19.444 68.9217 19.188C68.9217 18.932 68.9937 18.736 69.1377 18.6C69.2897 18.464 69.5057 18.396 69.7857 18.396C70.0577 18.396 70.2657 18.464 70.4097 18.6C70.5617 18.736 70.6377 18.932 70.6377 19.188C70.6377 19.444 70.5617 19.644 70.4097 19.788C70.2657 19.924 70.0577 19.992 69.7857 19.992ZM70.4217 21V27H69.1377V21H70.4217ZM76.0307 27.12C75.4307 27.12 74.8827 27.004 74.3867 26.772C73.8907 26.54 73.4987 26.212 73.2107 25.788L74.0987 25.02C74.2747 25.348 74.5267 25.612 74.8547 25.812C75.1907 26.004 75.5907 26.1 76.0547 26.1C76.4227 26.1 76.7147 26.036 76.9307 25.908C77.1467 25.78 77.2547 25.6 77.2547 25.368C77.2547 25.216 77.2027 25.084 77.0987 24.972C77.0027 24.852 76.8147 24.76 76.5347 24.696L75.2747 24.432C74.6347 24.304 74.1787 24.1 73.9067 23.82C73.6347 23.532 73.4987 23.168 73.4987 22.728C73.4987 22.4 73.5947 22.096 73.7867 21.816C73.9787 21.536 74.2587 21.312 74.6267 21.144C75.0027 20.968 75.4507 20.88 75.9707 20.88C76.5707 20.88 77.0827 20.988 77.5067 21.204C77.9307 21.412 78.2547 21.712 78.4787 22.104L77.5907 22.848C77.4387 22.528 77.2147 22.292 76.9187 22.14C76.6227 21.98 76.3147 21.9 75.9947 21.9C75.7387 21.9 75.5187 21.932 75.3347 21.996C75.1507 22.06 75.0107 22.148 74.9147 22.26C74.8187 22.372 74.7707 22.504 74.7707 22.656C74.7707 22.816 74.8307 22.956 74.9507 23.076C75.0707 23.196 75.2867 23.288 75.5987 23.352L76.9667 23.64C77.5427 23.752 77.9467 23.944 78.1787 24.216C78.4187 24.48 78.5387 24.804 78.5387 25.188C78.5387 25.572 78.4387 25.912 78.2387 26.208C78.0387 26.496 77.7507 26.72 77.3747 26.88C76.9987 27.04 76.5507 27.12 76.0307 27.12ZM83.1743 19.236V25.2C83.1743 25.496 83.2503 25.712 83.4023 25.848C83.5623 25.984 83.7743 26.052 84.0383 26.052C84.2543 26.052 84.4423 26.02 84.6023 25.956C84.7623 25.884 84.9103 25.788 85.0463 25.668L85.3343 26.604C85.1503 26.764 84.9223 26.892 84.6503 26.988C84.3863 27.076 84.0903 27.12 83.7623 27.12C83.4183 27.12 83.1023 27.064 82.8143 26.952C82.5263 26.84 82.3023 26.66 82.1423 26.412C81.9823 26.156 81.8983 25.824 81.8903 25.416V19.596L83.1743 19.236ZM85.2383 21V22.008H80.7383V21H85.2383ZM88.4876 25.38C88.7116 25.38 88.8956 25.436 89.0396 25.548C89.1916 25.652 89.3076 25.8 89.3876 25.992C89.4676 26.176 89.5076 26.388 89.5076 26.628C89.5076 26.924 89.4516 27.208 89.3396 27.48C89.2276 27.76 89.0636 28.012 88.8476 28.236C88.6396 28.468 88.3876 28.656 88.0916 28.8L87.4916 28.284C87.7076 28.204 87.8996 28.1 88.0676 27.972C88.2356 27.844 88.3756 27.7 88.4876 27.54C88.6076 27.38 88.6916 27.216 88.7396 27.048L88.6916 27.024C88.6516 27.048 88.6036 27.068 88.5476 27.084C88.4996 27.1 88.4276 27.108 88.3316 27.108C88.2196 27.108 88.1036 27.076 87.9836 27.012C87.8716 26.956 87.7756 26.868 87.6956 26.748C87.6156 26.628 87.5756 26.472 87.5756 26.28C87.5756 26.104 87.6156 25.948 87.6956 25.812C87.7836 25.676 87.8956 25.572 88.0316 25.5C88.1676 25.42 88.3196 25.38 88.4876 25.38ZM99.7752 27.12C99.2392 27.12 98.7752 27.032 98.3832 26.856C97.9992 26.672 97.6992 26.42 97.4832 26.1C97.2752 25.78 97.1712 25.404 97.1712 24.972C97.1712 24.724 97.2032 24.488 97.2672 24.264C97.3392 24.032 97.4512 23.812 97.6032 23.604C97.7632 23.388 97.9792 23.192 98.2512 23.016C98.5232 22.832 98.8632 22.672 99.2712 22.536L99.7392 22.332C100.059 22.148 100.315 21.98 100.507 21.828C100.707 21.676 100.851 21.516 100.939 21.348C101.035 21.18 101.083 20.984 101.083 20.76C101.083 20.496 101.003 20.292 100.843 20.148C100.683 20.004 100.471 19.932 100.207 19.932C99.8952 19.932 99.6592 20.02 99.4992 20.196C99.3472 20.364 99.2712 20.568 99.2712 20.808C99.2712 20.952 99.2912 21.092 99.3312 21.228C99.3792 21.364 99.4672 21.532 99.5952 21.732C99.7312 21.932 99.9272 22.196 100.183 22.524C100.439 22.844 100.787 23.268 101.227 23.796C101.659 24.316 102.019 24.74 102.307 25.068C102.603 25.388 102.855 25.632 103.063 25.8C103.271 25.96 103.463 26.068 103.639 26.124C103.823 26.172 104.027 26.192 104.251 26.184L104.035 27.12C103.779 27.12 103.539 27.092 103.315 27.036C103.099 26.988 102.863 26.876 102.607 26.7C102.359 26.524 102.063 26.26 101.719 25.908C101.383 25.556 100.967 25.088 100.471 24.504C100.007 23.96 99.6192 23.504 99.3072 23.136C99.0032 22.76 98.7632 22.444 98.5872 22.188C98.4192 21.924 98.2992 21.688 98.2272 21.48C98.1552 21.264 98.1192 21.036 98.1192 20.796C98.1192 20.5 98.1952 20.212 98.3472 19.932C98.4992 19.644 98.7272 19.412 99.0312 19.236C99.3432 19.052 99.7472 18.96 100.243 18.96C100.643 18.96 100.983 19.032 101.263 19.176C101.543 19.32 101.759 19.52 101.911 19.776C102.063 20.024 102.139 20.312 102.139 20.64C102.139 20.944 102.083 21.228 101.971 21.492C101.859 21.756 101.659 22.008 101.371 22.248C101.091 22.488 100.691 22.724 100.171 22.956L99.7752 23.124C99.4072 23.308 99.1192 23.484 98.9112 23.652C98.7032 23.82 98.5552 24 98.4672 24.192C98.3792 24.376 98.3352 24.6 98.3352 24.864C98.3352 25.136 98.4032 25.372 98.5392 25.572C98.6832 25.764 98.8752 25.912 99.1152 26.016C99.3552 26.12 99.6232 26.172 99.9192 26.172C100.343 26.172 100.703 26.1 100.999 25.956C101.295 25.804 101.571 25.596 101.827 25.332L101.995 25.152C102.187 24.848 102.335 24.504 102.439 24.12C102.551 23.736 102.587 23.3 102.547 22.812L103.543 22.872C103.559 23.384 103.491 23.88 103.339 24.36C103.195 24.84 102.971 25.272 102.667 25.656L102.427 25.92C102.139 26.288 101.775 26.58 101.335 26.796C100.895 27.012 100.375 27.12 99.7752 27.12ZM115.244 23.148C115.244 22.748 115.132 22.44 114.908 22.224C114.692 22 114.392 21.888 114.008 21.888C113.648 21.888 113.34 21.972 113.084 22.14C112.828 22.308 112.64 22.58 112.52 22.956L111.44 22.5C111.592 22.012 111.888 21.62 112.328 21.324C112.776 21.028 113.352 20.88 114.056 20.88C114.536 20.88 114.96 20.96 115.328 21.12C115.696 21.272 115.984 21.504 116.192 21.816C116.408 22.128 116.516 22.528 116.516 23.016V25.692C116.516 25.988 116.664 26.136 116.96 26.136C117.104 26.136 117.244 26.116 117.38 26.076L117.308 26.964C117.124 27.052 116.892 27.096 116.612 27.096C116.356 27.096 116.124 27.052 115.916 26.964C115.716 26.868 115.556 26.728 115.436 26.544C115.324 26.352 115.268 26.116 115.268 25.836V25.752L115.532 25.74C115.46 26.052 115.312 26.312 115.088 26.52C114.864 26.72 114.604 26.872 114.308 26.976C114.012 27.072 113.712 27.12 113.408 27.12C113.032 27.12 112.692 27.06 112.388 26.94C112.092 26.82 111.856 26.64 111.68 26.4C111.512 26.152 111.428 25.848 111.428 25.488C111.428 25.04 111.572 24.672 111.86 24.384C112.156 24.096 112.572 23.9 113.108 23.796L115.436 23.34L115.424 24.24L113.732 24.588C113.396 24.652 113.144 24.744 112.976 24.864C112.808 24.984 112.724 25.16 112.724 25.392C112.724 25.616 112.808 25.796 112.976 25.932C113.152 26.06 113.384 26.124 113.672 26.124C113.872 26.124 114.064 26.1 114.248 26.052C114.44 26.004 114.612 25.928 114.764 25.824C114.916 25.712 115.032 25.572 115.112 25.404C115.2 25.228 115.244 25.02 115.244 24.78V23.148ZM128.144 27.12C127.792 27.12 127.468 27.052 127.172 26.916C126.884 26.78 126.64 26.592 126.44 26.352C126.24 26.104 126.092 25.828 125.996 25.524L126.152 25.32L126.056 27H124.928V18.3H126.212V22.512L126.068 22.308C126.22 21.892 126.48 21.552 126.848 21.288C127.216 21.016 127.66 20.88 128.18 20.88C128.66 20.88 129.1 21.004 129.5 21.252C129.908 21.5 130.228 21.856 130.46 22.32C130.692 22.784 130.808 23.348 130.808 24.012C130.808 24.66 130.688 25.216 130.448 25.68C130.216 26.144 129.896 26.5 129.488 26.748C129.088 26.996 128.64 27.12 128.144 27.12ZM127.868 26.088C128.388 26.088 128.792 25.904 129.08 25.536C129.376 25.16 129.524 24.648 129.524 24C129.524 23.352 129.38 22.844 129.092 22.476C128.804 22.108 128.4 21.924 127.88 21.924C127.544 21.924 127.252 22.012 127.004 22.188C126.756 22.356 126.56 22.596 126.416 22.908C126.28 23.22 126.212 23.592 126.212 24.024C126.212 24.448 126.28 24.816 126.416 25.128C126.552 25.432 126.744 25.668 126.992 25.836C127.248 26.004 127.54 26.088 127.868 26.088ZM134.419 19.992C134.139 19.992 133.923 19.924 133.771 19.788C133.627 19.644 133.555 19.444 133.555 19.188C133.555 18.932 133.627 18.736 133.771 18.6C133.923 18.464 134.139 18.396 134.419 18.396C134.691 18.396 134.899 18.464 135.043 18.6C135.195 18.736 135.271 18.932 135.271 19.188C135.271 19.444 135.195 19.644 135.043 19.788C134.899 19.924 134.691 19.992 134.419 19.992ZM135.055 21V27H133.771V21H135.055ZM143.664 19.74L143.868 20.748C143.844 20.748 143.82 20.748 143.796 20.748C143.772 20.74 143.748 20.736 143.724 20.736C143.34 20.736 143.048 20.82 142.848 20.988C142.648 21.148 142.548 21.384 142.548 21.696L141.924 21.408C141.924 21.088 141.992 20.804 142.128 20.556C142.264 20.3 142.456 20.1 142.704 19.956C142.96 19.812 143.248 19.74 143.568 19.74C143.584 19.74 143.6 19.74 143.616 19.74C143.632 19.74 143.648 19.74 143.664 19.74ZM141.768 26.064C142.376 26.064 142.848 26.2 143.184 26.472C143.52 26.736 143.688 27.104 143.688 27.576C143.688 27.992 143.556 28.348 143.292 28.644C143.028 28.948 142.668 29.18 142.212 29.34C141.764 29.5 141.248 29.58 140.664 29.58C139.68 29.58 138.952 29.428 138.48 29.124C138.008 28.82 137.772 28.44 137.772 27.984C137.772 27.664 137.884 27.384 138.108 27.144C138.34 26.904 138.728 26.768 139.272 26.736L139.2 26.928C138.864 26.856 138.592 26.728 138.384 26.544C138.184 26.352 138.084 26.084 138.084 25.74C138.084 25.396 138.216 25.104 138.48 24.864C138.744 24.624 139.116 24.484 139.596 24.444L140.268 24.768H140.124C139.756 24.8 139.496 24.884 139.344 25.02C139.192 25.156 139.116 25.308 139.116 25.476C139.116 25.676 139.188 25.824 139.332 25.92C139.484 26.016 139.696 26.064 139.968 26.064H141.768ZM140.664 28.62C141.104 28.62 141.464 28.576 141.744 28.488C142.032 28.408 142.244 28.3 142.38 28.164C142.524 28.036 142.596 27.892 142.596 27.732C142.596 27.548 142.52 27.4 142.368 27.288C142.224 27.176 141.96 27.12 141.576 27.12H139.644C139.42 27.12 139.232 27.176 139.08 27.288C138.928 27.408 138.852 27.568 138.852 27.768C138.852 28.032 139.012 28.24 139.332 28.392C139.652 28.544 140.096 28.62 140.664 28.62ZM140.616 20.88C141.144 20.88 141.6 20.964 141.984 21.132C142.376 21.3 142.676 21.536 142.884 21.84C143.1 22.144 143.208 22.5 143.208 22.908C143.208 23.316 143.1 23.672 142.884 23.976C142.676 24.28 142.376 24.516 141.984 24.684C141.6 24.852 141.144 24.936 140.616 24.936C139.784 24.936 139.144 24.752 138.696 24.384C138.256 24.008 138.036 23.516 138.036 22.908C138.036 22.5 138.144 22.144 138.36 21.84C138.576 21.536 138.876 21.3 139.26 21.132C139.652 20.964 140.104 20.88 140.616 20.88ZM140.616 21.78C140.248 21.78 139.94 21.884 139.692 22.092C139.452 22.292 139.332 22.564 139.332 22.908C139.332 23.252 139.452 23.528 139.692 23.736C139.94 23.944 140.248 24.048 140.616 24.048C140.992 24.048 141.3 23.944 141.54 23.736C141.788 23.528 141.912 23.252 141.912 22.908C141.912 22.564 141.788 22.292 141.54 22.092C141.3 21.884 140.992 21.78 140.616 21.78ZM4.212 45.12C3.86 45.12 3.536 45.052 3.24 44.916C2.952 44.78 2.708 44.592 2.508 44.352C2.308 44.104 2.16 43.828 2.064 43.524L2.22 43.32L2.124 45H0.996V36.3H2.28V40.512L2.136 40.308C2.288 39.892 2.548 39.552 2.916 39.288C3.284 39.016 3.728 38.88 4.248 38.88C4.728 38.88 5.168 39.004 5.568 39.252C5.976 39.5 6.296 39.856 6.528 40.32C6.76 40.784 6.876 41.348 6.876 42.012C6.876 42.66 6.756 43.216 6.516 43.68C6.284 44.144 5.964 44.5 5.556 44.748C5.156 44.996 4.708 45.12 4.212 45.12ZM3.936 44.088C4.456 44.088 4.86 43.904 5.148 43.536C5.444 43.16 5.592 42.648 5.592 42C5.592 41.352 5.448 40.844 5.16 40.476C4.872 40.108 4.468 39.924 3.948 39.924C3.612 39.924 3.32 40.012 3.072 40.188C2.824 40.356 2.628 40.596 2.484 40.908C2.348 41.22 2.28 41.592 2.28 42.024C2.28 42.448 2.348 42.816 2.484 43.128C2.62 43.432 2.812 43.668 3.06 43.836C3.316 44.004 3.608 44.088 3.936 44.088ZM12.4794 45.12C11.8794 45.12 11.3514 44.996 10.8954 44.748C10.4394 44.5 10.0834 44.144 9.82744 43.68C9.57944 43.208 9.45544 42.648 9.45544 42C9.45544 41.352 9.57944 40.796 9.82744 40.332C10.0834 39.86 10.4354 39.5 10.8834 39.252C11.3314 39.004 11.8394 38.88 12.4074 38.88C12.9914 38.88 13.4874 39 13.8954 39.24C14.3034 39.48 14.6154 39.808 14.8314 40.224C15.0474 40.64 15.1554 41.112 15.1554 41.64C15.1554 41.784 15.1514 41.92 15.1434 42.048C15.1354 42.176 15.1234 42.288 15.1074 42.384H10.2834V41.4H14.5434L13.9074 41.592C13.9074 41.048 13.7714 40.632 13.4994 40.344C13.2274 40.048 12.8554 39.9 12.3834 39.9C12.0394 39.9 11.7394 39.98 11.4834 40.14C11.2274 40.3 11.0314 40.54 10.8954 40.86C10.7594 41.172 10.6914 41.556 10.6914 42.012C10.6914 42.46 10.7634 42.84 10.9074 43.152C11.0514 43.464 11.2554 43.7 11.5194 43.86C11.7834 44.02 12.0954 44.1 12.4554 44.1C12.8554 44.1 13.1794 44.024 13.4274 43.872C13.6754 43.72 13.8714 43.508 14.0154 43.236L15.0354 43.716C14.8914 44.004 14.6954 44.256 14.4474 44.472C14.2074 44.68 13.9194 44.84 13.5834 44.952C13.2474 45.064 12.8794 45.12 12.4794 45.12ZM19.3449 36.3V43.32C19.3449 43.616 19.3969 43.82 19.5009 43.932C19.6049 44.044 19.7769 44.1 20.0169 44.1C20.1609 44.1 20.2809 44.092 20.3769 44.076C20.4809 44.052 20.6089 44.012 20.7609 43.956L20.6169 44.916C20.4809 44.98 20.3249 45.028 20.1489 45.06C19.9729 45.1 19.7969 45.12 19.6209 45.12C19.0849 45.12 18.6889 44.984 18.4329 44.712C18.1849 44.432 18.0609 44.004 18.0609 43.428V36.3H19.3449ZM23.8032 37.992C23.5232 37.992 23.3072 37.924 23.1552 37.788C23.0112 37.644 22.9392 37.444 22.9392 37.188C22.9392 36.932 23.0112 36.736 23.1552 36.6C23.3072 36.464 23.5232 36.396 23.8032 36.396C24.0752 36.396 24.2832 36.464 24.4272 36.6C24.5792 36.736 24.6552 36.932 24.6552 37.188C24.6552 37.444 24.5792 37.644 24.4272 37.788C24.2832 37.924 24.0752 37.992 23.8032 37.992ZM24.4392 39V45H23.1552V39H24.4392ZM30.4082 45.12C29.8082 45.12 29.2802 44.996 28.8242 44.748C28.3682 44.5 28.0122 44.144 27.7562 43.68C27.5082 43.208 27.3842 42.648 27.3842 42C27.3842 41.352 27.5082 40.796 27.7562 40.332C28.0122 39.86 28.3642 39.5 28.8122 39.252C29.2602 39.004 29.7682 38.88 30.3362 38.88C30.9202 38.88 31.4162 39 31.8242 39.24C32.2322 39.48 32.5442 39.808 32.7602 40.224C32.9762 40.64 33.0842 41.112 33.0842 41.64C33.0842 41.784 33.0802 41.92 33.0722 42.048C33.0642 42.176 33.0522 42.288 33.0362 42.384H28.2122V41.4H32.4722L31.8362 41.592C31.8362 41.048 31.7002 40.632 31.4282 40.344C31.1562 40.048 30.7842 39.9 30.3122 39.9C29.9682 39.9 29.6682 39.98 29.4122 40.14C29.1562 40.3 28.9602 40.54 28.8242 40.86C28.6882 41.172 28.6202 41.556 28.6202 42.012C28.6202 42.46 28.6922 42.84 28.8362 43.152C28.9802 43.464 29.1842 43.7 29.4482 43.86C29.7122 44.02 30.0242 44.1 30.3842 44.1C30.7842 44.1 31.1082 44.024 31.3562 43.872C31.6042 43.72 31.8002 43.508 31.9442 43.236L32.9642 43.716C32.8202 44.004 32.6242 44.256 32.3762 44.472C32.1362 44.68 31.8482 44.84 31.5122 44.952C31.1762 45.064 30.8082 45.12 30.4082 45.12ZM39.7979 39H41.1419L38.7539 45H37.3499L34.9499 39H36.3539L38.0579 43.884L39.7979 39ZM46.1615 45.12C45.5615 45.12 45.0335 44.996 44.5775 44.748C44.1215 44.5 43.7655 44.144 43.5095 43.68C43.2615 43.208 43.1375 42.648 43.1375 42C43.1375 41.352 43.2615 40.796 43.5095 40.332C43.7655 39.86 44.1175 39.5 44.5655 39.252C45.0135 39.004 45.5215 38.88 46.0895 38.88C46.6735 38.88 47.1695 39 47.5775 39.24C47.9855 39.48 48.2975 39.808 48.5135 40.224C48.7295 40.64 48.8375 41.112 48.8375 41.64C48.8375 41.784 48.8335 41.92 48.8255 42.048C48.8175 42.176 48.8055 42.288 48.7895 42.384H43.9655V41.4H48.2255L47.5895 41.592C47.5895 41.048 47.4535 40.632 47.1815 40.344C46.9095 40.048 46.5375 39.9 46.0655 39.9C45.7215 39.9 45.4215 39.98 45.1655 40.14C44.9095 40.3 44.7135 40.54 44.5775 40.86C44.4415 41.172 44.3735 41.556 44.3735 42.012C44.3735 42.46 44.4455 42.84 44.5895 43.152C44.7335 43.464 44.9375 43.7 45.2015 43.86C45.4655 44.02 45.7775 44.1 46.1375 44.1C46.5375 44.1 46.8615 44.024 47.1095 43.872C47.3575 43.72 47.5535 43.508 47.6975 43.236L48.7175 43.716C48.5735 44.004 48.3775 44.256 48.1295 44.472C47.8895 44.68 47.6015 44.84 47.2655 44.952C46.9295 45.064 46.5615 45.12 46.1615 45.12ZM51.779 45V39H52.871L52.991 40.08C53.151 39.688 53.387 39.392 53.699 39.192C54.019 38.984 54.411 38.88 54.875 38.88C54.995 38.88 55.115 38.892 55.235 38.916C55.355 38.932 55.455 38.96 55.535 39L55.355 40.128C55.267 40.096 55.167 40.072 55.055 40.056C54.951 40.032 54.807 40.02 54.623 40.02C54.375 40.02 54.131 40.088 53.891 40.224C53.651 40.352 53.451 40.548 53.291 40.812C53.139 41.076 53.063 41.412 53.063 41.82V45H51.779ZM63.6803 37.992C63.4003 37.992 63.1843 37.924 63.0323 37.788C62.8883 37.644 62.8163 37.444 62.8163 37.188C62.8163 36.932 62.8883 36.736 63.0323 36.6C63.1843 36.464 63.4003 36.396 63.6803 36.396C63.9523 36.396 64.1603 36.464 64.3043 36.6C64.4563 36.736 64.5323 36.932 64.5323 37.188C64.5323 37.444 64.4563 37.644 64.3043 37.788C64.1603 37.924 63.9523 37.992 63.6803 37.992ZM64.3163 39V45H63.0323V39H64.3163ZM67.6452 45V39H68.7852L68.8692 40.56L68.7012 40.392C68.8132 40.048 68.9732 39.764 69.1812 39.54C69.3972 39.308 69.6492 39.14 69.9372 39.036C70.2332 38.932 70.5452 38.88 70.8732 38.88C71.2972 38.88 71.6772 38.964 72.0132 39.132C72.3572 39.292 72.6292 39.536 72.8292 39.864C73.0292 40.192 73.1292 40.608 73.1292 41.112V45H71.8452V41.508C71.8452 40.916 71.7212 40.508 71.4732 40.284C71.2332 40.052 70.9292 39.936 70.5612 39.936C70.2972 39.936 70.0412 40 69.7932 40.128C69.5452 40.248 69.3372 40.444 69.1692 40.716C69.0092 40.988 68.9292 41.352 68.9292 41.808V45H67.6452ZM83.9855 36.216C84.2335 36.216 84.4575 36.244 84.6575 36.3C84.8655 36.348 85.0215 36.416 85.1255 36.504L84.8855 37.428C84.7975 37.372 84.6975 37.332 84.5855 37.308C84.4735 37.276 84.3455 37.26 84.2015 37.26C83.8735 37.26 83.6135 37.336 83.4215 37.488C83.2375 37.64 83.1455 37.888 83.1455 38.232V39.108L83.1815 39.432V45H81.8975V38.136C81.8975 37.832 81.9415 37.56 82.0295 37.32C82.1255 37.08 82.2655 36.88 82.4495 36.72C82.6335 36.552 82.8535 36.428 83.1095 36.348C83.3735 36.26 83.6655 36.216 83.9855 36.216ZM85.0895 39V40.008H80.7695V39H85.0895ZM89.7022 45.12C89.3102 45.12 88.9462 45.048 88.6102 44.904C88.2822 44.76 88.0182 44.528 87.8182 44.208C87.6182 43.888 87.5182 43.472 87.5182 42.96V39H88.8022V42.636C88.8022 43.18 88.9182 43.556 89.1502 43.764C89.3822 43.964 89.7062 44.064 90.1222 44.064C90.3222 44.064 90.5142 44.032 90.6982 43.968C90.8902 43.896 91.0622 43.788 91.2142 43.644C91.3662 43.492 91.4822 43.3 91.5622 43.068C91.6502 42.836 91.6942 42.564 91.6942 42.252V39H92.9782V45H91.8502L91.7902 44.028C91.5822 44.404 91.3022 44.68 90.9502 44.856C90.5982 45.032 90.1822 45.12 89.7022 45.12ZM96.3041 45V39H97.4441L97.5281 40.56L97.3601 40.392C97.4721 40.048 97.6321 39.764 97.8401 39.54C98.0561 39.308 98.3081 39.14 98.5961 39.036C98.8921 38.932 99.2041 38.88 99.5321 38.88C99.9561 38.88 100.336 38.964 100.672 39.132C101.016 39.292 101.288 39.536 101.488 39.864C101.688 40.192 101.788 40.608 101.788 41.112V45H100.504V41.508C100.504 40.916 100.38 40.508 100.132 40.284C99.8921 40.052 99.5881 39.936 99.2201 39.936C98.9561 39.936 98.7001 40 98.4521 40.128C98.2041 40.248 97.9961 40.444 97.8281 40.716C97.6681 40.988 97.5881 41.352 97.5881 41.808V45H96.3041ZM105.702 43.38C105.974 43.38 106.19 43.46 106.35 43.62C106.518 43.772 106.602 43.98 106.602 44.244C106.602 44.508 106.518 44.72 106.35 44.88C106.19 45.04 105.974 45.12 105.702 45.12C105.422 45.12 105.198 45.04 105.03 44.88C104.87 44.72 104.79 44.508 104.79 44.244C104.79 43.98 104.87 43.772 105.03 43.62C105.198 43.46 105.422 43.38 105.702 43.38Z" fill="#F9F9F9"/>
</svg>
