<svg width="140" height="99" viewBox="0 0 140 99" fill="none" xmlns="http://www.w3.org/2000/svg">
<path d="M2.256 31V14.2H5.376V31H2.256ZM8.84006 20.464L10.2321 15.136L10.6401 16.936C10.0801 16.936 9.60806 16.76 9.22406 16.408C8.85606 16.056 8.67206 15.584 8.67206 14.992C8.67206 14.4 8.85606 13.928 9.22406 13.576C9.60806 13.208 10.0721 13.024 10.6161 13.024C11.1761 13.024 11.6401 13.208 12.0081 13.576C12.3761 13.944 12.5601 14.416 12.5601 14.992C12.5601 15.168 12.5441 15.352 12.5121 15.544C12.4961 15.72 12.4481 15.928 12.3681 16.168C12.3041 16.392 12.1921 16.688 12.0321 17.056L10.7841 20.464H8.84006ZM31.6674 18.04C32.6914 18.04 33.5954 18.24 34.3794 18.64C35.1794 19.04 35.8034 19.656 36.2514 20.488C36.6994 21.304 36.9234 22.36 36.9234 23.656V31H33.9234V24.04C33.9234 22.904 33.6754 22.056 33.1794 21.496C32.6834 20.936 31.9714 20.656 31.0434 20.656C30.3874 20.656 29.8034 20.8 29.2914 21.088C28.7954 21.376 28.4034 21.8 28.1154 22.36C27.8434 22.92 27.7074 23.632 27.7074 24.496V31H24.7074V24.04C24.7074 22.904 24.4594 22.056 23.9634 21.496C23.4674 20.936 22.7554 20.656 21.8274 20.656C21.1714 20.656 20.5874 20.8 20.0754 21.088C19.5794 21.376 19.1874 21.8 18.8994 22.36C18.6274 22.92 18.4914 23.632 18.4914 24.496V31H15.4914V18.184H18.3474V21.592L17.8434 20.584C18.2754 19.752 18.8994 19.12 19.7154 18.688C20.5474 18.256 21.4914 18.04 22.5474 18.04C23.7474 18.04 24.7874 18.336 25.6674 18.928C26.5634 19.52 27.1554 20.416 27.4434 21.616L26.2674 21.208C26.6834 20.248 27.3714 19.48 28.3314 18.904C29.2914 18.328 30.4034 18.04 31.6674 18.04ZM55.4539 31.24C54.1739 31.24 52.9819 31.032 51.8779 30.616C50.7899 30.184 49.8379 29.584 49.0219 28.816C48.2219 28.032 47.5979 27.112 47.1499 26.056C46.7019 25 46.4779 23.848 46.4779 22.6C46.4779 21.352 46.7019 20.2 47.1499 19.144C47.5979 18.088 48.2299 17.176 49.0459 16.408C49.8619 15.624 50.8139 15.024 51.9019 14.608C52.9899 14.176 54.1819 13.96 55.4779 13.96C56.8539 13.96 58.1099 14.2 59.2459 14.68C60.3819 15.144 61.3419 15.84 62.1259 16.768L60.1099 18.664C59.5019 18.008 58.8219 17.52 58.0699 17.2C57.3179 16.864 56.5019 16.696 55.6219 16.696C54.7419 16.696 53.9339 16.84 53.1979 17.128C52.4779 17.416 51.8459 17.824 51.3019 18.352C50.7739 18.88 50.3579 19.504 50.0539 20.224C49.7659 20.944 49.6219 21.736 49.6219 22.6C49.6219 23.464 49.7659 24.256 50.0539 24.976C50.3579 25.696 50.7739 26.32 51.3019 26.848C51.8459 27.376 52.4779 27.784 53.1979 28.072C53.9339 28.36 54.7419 28.504 55.6219 28.504C56.5019 28.504 57.3179 28.344 58.0699 28.024C58.8219 27.688 59.5019 27.184 60.1099 26.512L62.1259 28.432C61.3419 29.344 60.3819 30.04 59.2459 30.52C58.1099 31 56.8459 31.24 55.4539 31.24ZM72.0994 18.04C73.1234 18.04 74.0354 18.24 74.8354 18.64C75.6514 19.04 76.2914 19.656 76.7554 20.488C77.2194 21.304 77.4514 22.36 77.4514 23.656V31H74.4514V24.04C74.4514 22.904 74.1794 22.056 73.6354 21.496C73.1074 20.936 72.3634 20.656 71.4034 20.656C70.6994 20.656 70.0754 20.8 69.5314 21.088C68.9874 21.376 68.5634 21.808 68.2594 22.384C67.9714 22.944 67.8274 23.656 67.8274 24.52V31H64.8274V13.192H67.8274V21.64L67.1794 20.584C67.6274 19.768 68.2754 19.144 69.1234 18.712C69.9874 18.264 70.9794 18.04 72.0994 18.04ZM87.3045 31.168C85.8805 31.168 84.6325 30.888 83.5605 30.328C82.5045 29.752 81.6805 28.968 81.0885 27.976C80.5125 26.984 80.2245 25.856 80.2245 24.592C80.2245 23.312 80.5045 22.184 81.0645 21.208C81.6405 20.216 82.4245 19.44 83.4165 18.88C84.4245 18.32 85.5685 18.04 86.8485 18.04C88.0965 18.04 89.2085 18.312 90.1845 18.856C91.1605 19.4 91.9285 20.168 92.4885 21.16C93.0485 22.152 93.3285 23.32 93.3285 24.664C93.3285 24.792 93.3205 24.936 93.3045 25.096C93.3045 25.256 93.2965 25.408 93.2805 25.552H82.6005V23.56H91.6965L90.5205 24.184C90.5365 23.448 90.3845 22.8 90.0645 22.24C89.7445 21.68 89.3045 21.24 88.7445 20.92C88.2005 20.6 87.5685 20.44 86.8485 20.44C86.1125 20.44 85.4645 20.6 84.9045 20.92C84.3605 21.24 83.9285 21.688 83.6085 22.264C83.3045 22.824 83.1525 23.488 83.1525 24.256V24.736C83.1525 25.504 83.3285 26.184 83.6805 26.776C84.0325 27.368 84.5285 27.824 85.1685 28.144C85.8085 28.464 86.5445 28.624 87.3765 28.624C88.0965 28.624 88.7445 28.512 89.3205 28.288C89.8965 28.064 90.4085 27.712 90.8565 27.232L92.4645 29.08C91.8885 29.752 91.1605 30.272 90.2805 30.64C89.4165 30.992 88.4245 31.168 87.3045 31.168ZM96.2102 31V18.184H99.0662V21.712L98.7302 20.68C99.1142 19.816 99.7142 19.16 100.53 18.712C101.362 18.264 102.394 18.04 103.626 18.04V20.896C103.498 20.864 103.378 20.848 103.266 20.848C103.154 20.832 103.042 20.824 102.93 20.824C101.794 20.824 100.89 21.16 100.218 21.832C99.5462 22.488 99.2102 23.472 99.2102 24.784V31H96.2102ZM107.696 35.824C107.072 35.824 106.448 35.72 105.824 35.512C105.2 35.304 104.68 35.016 104.264 34.648L105.464 32.44C105.768 32.712 106.112 32.928 106.496 33.088C106.88 33.248 107.272 33.328 107.672 33.328C108.216 33.328 108.656 33.192 108.992 32.92C109.328 32.648 109.64 32.192 109.928 31.552L110.672 29.872L110.912 29.512L115.76 18.184H118.64L112.64 32.032C112.24 32.992 111.792 33.752 111.296 34.312C110.816 34.872 110.272 35.264 109.664 35.488C109.072 35.712 108.416 35.824 107.696 35.824ZM110.336 31.456L104.552 18.184H107.672L112.376 29.248L110.336 31.456ZM120.515 31V13.192H123.515V31H120.515ZM136.768 31.14C136.315 31.14 135.928 30.9867 135.608 30.68C135.288 30.36 135.128 29.96 135.128 29.48C135.128 28.9733 135.288 28.5733 135.608 28.28C135.928 27.9733 136.315 27.82 136.768 27.82C137.221 27.82 137.608 27.9733 137.928 28.28C138.248 28.5733 138.408 28.9733 138.408 29.48C138.408 29.96 138.248 30.36 137.928 30.68C137.608 30.9867 137.221 31.14 136.768 31.14Z" fill="white"/>
<path d="M48.45 50.1C48.0367 50.1 47.6733 50 47.36 49.8C47.0533 49.5933 46.8133 49.2967 46.64 48.91C46.4733 48.5233 46.39 48.06 46.39 47.52C46.39 46.96 46.4767 46.4867 46.65 46.1C46.83 45.7133 47.0767 45.4167 47.39 45.21C47.71 45.0033 48.0767 44.9 48.49 44.9C48.9433 44.9 49.3067 45.04 49.58 45.32C49.86 45.5933 50.04 45.9433 50.12 46.37L49.96 46.58V42.88H51.66V50H50.14L50.03 48.3L50.23 48.45C50.19 48.7833 50.0867 49.0733 49.92 49.32C49.76 49.5667 49.5533 49.76 49.3 49.9C49.0533 50.0333 48.77 50.1 48.45 50.1ZM49.04 48.85C49.2333 48.85 49.3967 48.8 49.53 48.7C49.67 48.5933 49.7767 48.4367 49.85 48.23C49.9233 48.0233 49.96 47.77 49.96 47.47C49.96 47.19 49.9233 46.9533 49.85 46.76C49.7833 46.56 49.68 46.41 49.54 46.31C49.4067 46.2033 49.2433 46.15 49.05 46.15C48.7567 46.15 48.5233 46.26 48.35 46.48C48.1833 46.6933 48.1 47.0333 48.1 47.5C48.1 47.9667 48.1833 48.31 48.35 48.53C48.5167 48.7433 48.7467 48.85 49.04 48.85ZM56.4195 50.1C55.8662 50.1 55.3862 49.9967 54.9795 49.79C54.5795 49.5833 54.2695 49.2867 54.0495 48.9C53.8295 48.5133 53.7195 48.0467 53.7195 47.5C53.7195 46.9533 53.8295 46.4867 54.0495 46.1C54.2695 45.7133 54.5762 45.4167 54.9695 45.21C55.3695 45.0033 55.8262 44.9 56.3395 44.9C56.8662 44.9 57.3129 45.0033 57.6795 45.21C58.0529 45.41 58.3362 45.69 58.5295 46.05C58.7229 46.4033 58.8195 46.81 58.8195 47.27C58.8195 47.39 58.8162 47.51 58.8095 47.63C58.8029 47.75 58.7929 47.85 58.7795 47.93H54.8195V47.02H58.0295L57.2195 47.33C57.2195 46.93 57.1462 46.6233 56.9995 46.41C56.8595 46.1967 56.6395 46.09 56.3395 46.09C56.1262 46.09 55.9429 46.14 55.7895 46.24C55.6429 46.34 55.5295 46.4967 55.4495 46.71C55.3762 46.9233 55.3395 47.1967 55.3395 47.53C55.3395 47.8567 55.3829 48.1233 55.4695 48.33C55.5562 48.53 55.6795 48.6767 55.8395 48.77C55.9995 48.8567 56.1929 48.9 56.4195 48.9C56.6729 48.9 56.8729 48.85 57.0195 48.75C57.1729 48.65 57.2862 48.51 57.3595 48.33L58.7195 48.78C58.6262 49.0667 58.4629 49.31 58.2295 49.51C58.0029 49.7033 57.7295 49.85 57.4095 49.95C57.0962 50.05 56.7662 50.1 56.4195 50.1ZM62.9705 50.1C62.4705 50.1 62.0039 50.02 61.5705 49.86C61.1439 49.6933 60.7905 49.4567 60.5105 49.15L61.3105 48.21C61.4772 48.4233 61.6972 48.6033 61.9705 48.75C62.2505 48.89 62.5605 48.96 62.9005 48.96C63.1072 48.96 63.2772 48.93 63.4105 48.87C63.5439 48.81 63.6105 48.7167 63.6105 48.59C63.6105 48.4967 63.5772 48.4233 63.5105 48.37C63.4439 48.31 63.3105 48.26 63.1105 48.22L62.4105 48.08C61.7839 47.9533 61.3372 47.7667 61.0705 47.52C60.8105 47.2667 60.6805 46.9367 60.6805 46.53C60.6805 46.2567 60.7639 45.9967 60.9305 45.75C61.0972 45.4967 61.3539 45.2933 61.7005 45.14C62.0472 44.98 62.4905 44.9 63.0305 44.9C63.5372 44.9 63.9839 44.9733 64.3705 45.12C64.7572 45.2667 65.0639 45.48 65.2905 45.76L64.4805 46.68C64.3205 46.48 64.1139 46.3233 63.8605 46.21C63.6072 46.0967 63.3539 46.04 63.1005 46.04C62.9405 46.04 62.8039 46.0567 62.6905 46.09C62.5839 46.1167 62.5039 46.1567 62.4505 46.21C62.3972 46.2633 62.3705 46.33 62.3705 46.41C62.3705 46.4967 62.4105 46.5733 62.4905 46.64C62.5772 46.7 62.7339 46.7533 62.9605 46.8L63.8705 46.98C64.3839 47.0733 64.7539 47.2433 64.9805 47.49C65.2072 47.7367 65.3205 48.0333 65.3205 48.38C65.3205 48.7067 65.2339 49 65.0605 49.26C64.8872 49.52 64.6272 49.7267 64.2805 49.88C63.9339 50.0267 63.4972 50.1 62.9705 50.1ZM68.1526 44.42C67.8059 44.42 67.5526 44.3567 67.3926 44.23C67.2392 44.0967 67.1626 43.89 67.1626 43.61C67.1626 43.3233 67.2392 43.1167 67.3926 42.99C67.5526 42.8567 67.8059 42.79 68.1526 42.79C68.4926 42.79 68.7426 42.8567 68.9026 42.99C69.0626 43.1167 69.1426 43.3233 69.1426 43.61C69.1426 43.89 69.0626 44.0967 68.9026 44.23C68.7426 44.3567 68.4926 44.42 68.1526 44.42ZM69.0026 45V50H67.3026V45H69.0026ZM76.1527 43.66L76.2927 44.8C76.2527 44.7867 76.2127 44.78 76.1727 44.78C76.1327 44.7733 76.0927 44.77 76.0527 44.77C75.7594 44.77 75.5394 44.8433 75.3927 44.99C75.2527 45.13 75.1827 45.3067 75.1827 45.52L74.5827 45.3C74.5827 45.0267 74.6327 44.7633 74.7327 44.51C74.8327 44.2567 74.9861 44.05 75.1927 43.89C75.4061 43.73 75.6727 43.65 75.9927 43.65C76.0127 43.65 76.0361 43.65 76.0627 43.65C76.0961 43.65 76.1261 43.6533 76.1527 43.66ZM74.4327 48.89C75.0127 48.89 75.4561 49.0133 75.7627 49.26C76.0761 49.5 76.2327 49.8467 76.2327 50.3C76.2327 50.7133 76.1194 51.0567 75.8927 51.33C75.6661 51.6033 75.3461 51.8067 74.9327 51.94C74.5261 52.08 74.0427 52.15 73.4827 52.15C72.5761 52.15 71.9227 52.0367 71.5227 51.81C71.1227 51.5833 70.9227 51.2767 70.9227 50.89C70.9227 50.61 71.0361 50.3833 71.2627 50.21C71.4894 50.0367 71.8661 49.9433 72.3927 49.93L72.3527 50.09C71.9461 50.0367 71.6427 49.9167 71.4427 49.73C71.2427 49.5433 71.1427 49.29 71.1427 48.97C71.1427 48.65 71.2694 48.39 71.5227 48.19C71.7761 47.99 72.1127 47.88 72.5327 47.86L73.1527 48.15H72.9927C72.7327 48.1633 72.5494 48.2067 72.4427 48.28C72.3361 48.3533 72.2827 48.4433 72.2827 48.55C72.2827 48.6633 72.3294 48.75 72.4227 48.81C72.5161 48.8633 72.6561 48.89 72.8427 48.89H74.4327ZM73.4927 51.05C73.8127 51.05 74.0761 51.0267 74.2827 50.98C74.4961 50.94 74.6561 50.88 74.7627 50.8C74.8694 50.7267 74.9227 50.64 74.9227 50.54C74.9227 50.44 74.8861 50.36 74.8127 50.3C74.7394 50.2467 74.6061 50.22 74.4127 50.22H72.6227C72.4961 50.22 72.3927 50.2533 72.3127 50.32C72.2394 50.3867 72.2027 50.47 72.2027 50.57C72.2027 50.7233 72.3161 50.84 72.5427 50.92C72.7694 51.0067 73.0861 51.05 73.4927 51.05ZM73.5527 44.9C74.0594 44.9 74.4927 44.9667 74.8527 45.1C75.2127 45.2333 75.4861 45.4267 75.6727 45.68C75.8661 45.9267 75.9627 46.2333 75.9627 46.6C75.9627 46.96 75.8661 47.2667 75.6727 47.52C75.4861 47.7733 75.2127 47.9667 74.8527 48.1C74.4927 48.2267 74.0594 48.29 73.5527 48.29C72.7594 48.29 72.1561 48.1433 71.7427 47.85C71.3361 47.5567 71.1327 47.14 71.1327 46.6C71.1327 46.2333 71.2261 45.9267 71.4127 45.68C71.6061 45.4267 71.8827 45.2333 72.2427 45.1C72.6027 44.9667 73.0394 44.9 73.5527 44.9ZM73.5527 45.87C73.3327 45.87 73.1527 45.9333 73.0127 46.06C72.8794 46.1867 72.8127 46.3667 72.8127 46.6C72.8127 46.8267 72.8794 47.0033 73.0127 47.13C73.1527 47.2567 73.3327 47.32 73.5527 47.32C73.7661 47.32 73.9427 47.2567 74.0827 47.13C74.2227 47.0033 74.2927 46.8267 74.2927 46.6C74.2927 46.3667 74.2227 46.1867 74.0827 46.06C73.9427 45.9333 73.7661 45.87 73.5527 45.87ZM78.0084 50V45H79.5284L79.6184 46.72L79.4284 46.53C79.4951 46.17 79.6118 45.87 79.7784 45.63C79.9518 45.39 80.1651 45.21 80.4184 45.09C80.6784 44.9633 80.9684 44.9 81.2884 44.9C81.6351 44.9 81.9351 44.9667 82.1884 45.1C82.4484 45.2333 82.6518 45.43 82.7984 45.69C82.9451 45.95 83.0184 46.2767 83.0184 46.67V50H81.3184V47.12C81.3184 46.7733 81.2518 46.5333 81.1184 46.4C80.9851 46.2667 80.8151 46.2 80.6084 46.2C80.4484 46.2 80.2984 46.24 80.1584 46.32C80.0184 46.3933 79.9084 46.5133 79.8284 46.68C79.7484 46.8467 79.7084 47.07 79.7084 47.35V50H78.0084ZM89.1696 46.63V48.02H85.5096V46.63H89.1696ZM93.9154 42.74C94.1887 42.74 94.4287 42.77 94.6354 42.83C94.8421 42.8833 94.9954 42.9467 95.0954 43.02L94.9254 44.08C94.8521 44.0333 94.7687 43.9967 94.6754 43.97C94.5821 43.9433 94.4654 43.93 94.3254 43.93C94.0921 43.93 93.8987 43.9833 93.7454 44.09C93.5987 44.1967 93.5254 44.3833 93.5254 44.65V45.3L93.6254 45.58V50H91.9254V44.54C91.9254 44.22 91.9754 43.9467 92.0754 43.72C92.1821 43.4933 92.3287 43.3067 92.5154 43.16C92.7021 43.0133 92.9154 42.9067 93.1554 42.84C93.3954 42.7733 93.6487 42.74 93.9154 42.74ZM95.0454 45V46.21H91.1254V45H95.0454ZM99.167 44.9C99.6936 44.9 100.154 45.0033 100.547 45.21C100.947 45.41 101.257 45.7067 101.477 46.1C101.704 46.4867 101.817 46.9533 101.817 47.5C101.817 48.0467 101.704 48.5167 101.477 48.91C101.257 49.2967 100.947 49.5933 100.547 49.8C100.154 50 99.6936 50.1 99.167 50.1C98.6536 50.1 98.197 50 97.797 49.8C97.397 49.5933 97.0836 49.2967 96.857 48.91C96.637 48.5167 96.527 48.0467 96.527 47.5C96.527 46.9533 96.637 46.4867 96.857 46.1C97.0836 45.7067 97.397 45.41 97.797 45.21C98.197 45.0033 98.6536 44.9 99.167 44.9ZM99.167 46.11C98.9736 46.11 98.807 46.1567 98.667 46.25C98.527 46.3433 98.4203 46.4933 98.347 46.7C98.2736 46.9067 98.237 47.1733 98.237 47.5C98.237 47.8267 98.2736 48.0933 98.347 48.3C98.4203 48.5 98.527 48.65 98.667 48.75C98.807 48.8433 98.9736 48.89 99.167 48.89C99.367 48.89 99.537 48.8433 99.677 48.75C99.817 48.65 99.9236 48.5 99.997 48.3C100.07 48.0933 100.107 47.8267 100.107 47.5C100.107 47.1733 100.07 46.9067 99.997 46.7C99.9236 46.4933 99.817 46.3433 99.677 46.25C99.537 46.1567 99.367 46.11 99.167 46.11ZM106.243 44.9C106.75 44.9 107.17 44.9733 107.503 45.12C107.843 45.26 108.107 45.45 108.293 45.69C108.487 45.9233 108.607 46.1767 108.653 46.45L107.083 46.97C107.037 46.6833 106.95 46.47 106.823 46.33C106.703 46.1833 106.527 46.11 106.293 46.11C106.08 46.11 105.9 46.16 105.753 46.26C105.613 46.3533 105.507 46.5067 105.433 46.72C105.36 46.9267 105.323 47.1933 105.323 47.52C105.323 47.8467 105.363 48.1133 105.443 48.32C105.523 48.52 105.637 48.6667 105.783 48.76C105.93 48.8467 106.103 48.89 106.303 48.89C106.47 48.89 106.607 48.86 106.713 48.8C106.827 48.7333 106.92 48.64 106.993 48.52C107.067 48.4 107.113 48.2533 107.133 48.08L108.663 48.57C108.617 48.8633 108.49 49.1267 108.283 49.36C108.083 49.5867 107.817 49.7667 107.483 49.9C107.15 50.0333 106.76 50.1 106.313 50.1C105.767 50.1 105.29 50 104.883 49.8C104.477 49.5933 104.163 49.2967 103.943 48.91C103.723 48.5167 103.613 48.0467 103.613 47.5C103.613 46.9533 103.723 46.4867 103.943 46.1C104.163 45.7067 104.47 45.41 104.863 45.21C105.263 45.0033 105.723 44.9 106.243 44.9ZM112.337 50.1C111.997 50.1 111.697 50.0433 111.437 49.93C111.184 49.81 110.984 49.62 110.837 49.36C110.69 49.1 110.617 48.76 110.617 48.34V45H112.317V47.94C112.317 48.26 112.38 48.4833 112.507 48.61C112.634 48.7367 112.814 48.8 113.047 48.8C113.167 48.8 113.28 48.78 113.387 48.74C113.494 48.6933 113.587 48.6267 113.667 48.54C113.747 48.4467 113.807 48.33 113.847 48.19C113.894 48.0433 113.917 47.8733 113.917 47.68V45H115.617V50H114.097L114.047 49.06C113.887 49.4133 113.664 49.6767 113.377 49.85C113.09 50.0167 112.744 50.1 112.337 50.1ZM120.039 50.1C119.539 50.1 119.072 50.02 118.639 49.86C118.212 49.6933 117.859 49.4567 117.579 49.15L118.379 48.21C118.545 48.4233 118.765 48.6033 119.039 48.75C119.319 48.89 119.629 48.96 119.969 48.96C120.175 48.96 120.345 48.93 120.479 48.87C120.612 48.81 120.679 48.7167 120.679 48.59C120.679 48.4967 120.645 48.4233 120.579 48.37C120.512 48.31 120.379 48.26 120.179 48.22L119.479 48.08C118.852 47.9533 118.405 47.7667 118.139 47.52C117.879 47.2667 117.749 46.9367 117.749 46.53C117.749 46.2567 117.832 45.9967 117.999 45.75C118.165 45.4967 118.422 45.2933 118.769 45.14C119.115 44.98 119.559 44.9 120.099 44.9C120.605 44.9 121.052 44.9733 121.439 45.12C121.825 45.2667 122.132 45.48 122.359 45.76L121.549 46.68C121.389 46.48 121.182 46.3233 120.929 46.21C120.675 46.0967 120.422 46.04 120.169 46.04C120.009 46.04 119.872 46.0567 119.759 46.09C119.652 46.1167 119.572 46.1567 119.519 46.21C119.465 46.2633 119.439 46.33 119.439 46.41C119.439 46.4967 119.479 46.5733 119.559 46.64C119.645 46.7 119.802 46.7533 120.029 46.8L120.939 46.98C121.452 47.0733 121.822 47.2433 122.049 47.49C122.275 47.7367 122.389 48.0333 122.389 48.38C122.389 48.7067 122.302 49 122.129 49.26C121.955 49.52 121.695 49.7267 121.349 49.88C121.002 50.0267 120.565 50.1 120.039 50.1ZM126.781 50.1C126.228 50.1 125.748 49.9967 125.341 49.79C124.941 49.5833 124.631 49.2867 124.411 48.9C124.191 48.5133 124.081 48.0467 124.081 47.5C124.081 46.9533 124.191 46.4867 124.411 46.1C124.631 45.7133 124.938 45.4167 125.331 45.21C125.731 45.0033 126.188 44.9 126.701 44.9C127.228 44.9 127.675 45.0033 128.041 45.21C128.415 45.41 128.698 45.69 128.891 46.05C129.085 46.4033 129.181 46.81 129.181 47.27C129.181 47.39 129.178 47.51 129.171 47.63C129.165 47.75 129.155 47.85 129.141 47.93H125.181V47.02H128.391L127.581 47.33C127.581 46.93 127.508 46.6233 127.361 46.41C127.221 46.1967 127.001 46.09 126.701 46.09C126.488 46.09 126.305 46.14 126.151 46.24C126.005 46.34 125.891 46.4967 125.811 46.71C125.738 46.9233 125.701 47.1967 125.701 47.53C125.701 47.8567 125.745 48.1233 125.831 48.33C125.918 48.53 126.041 48.6767 126.201 48.77C126.361 48.8567 126.555 48.9 126.781 48.9C127.035 48.9 127.235 48.85 127.381 48.75C127.535 48.65 127.648 48.51 127.721 48.33L129.081 48.78C128.988 49.0667 128.825 49.31 128.591 49.51C128.365 49.7033 128.091 49.85 127.771 49.95C127.458 50.05 127.128 50.1 126.781 50.1ZM133.072 50.1C132.659 50.1 132.296 50 131.982 49.8C131.676 49.5933 131.436 49.2967 131.262 48.91C131.096 48.5233 131.012 48.06 131.012 47.52C131.012 46.96 131.099 46.4867 131.272 46.1C131.452 45.7133 131.699 45.4167 132.012 45.21C132.332 45.0033 132.699 44.9 133.112 44.9C133.566 44.9 133.929 45.04 134.202 45.32C134.482 45.5933 134.662 45.9433 134.742 46.37L134.582 46.58V42.88H136.282V50H134.762L134.652 48.3L134.852 48.45C134.812 48.7833 134.709 49.0733 134.542 49.32C134.382 49.5667 134.176 49.76 133.922 49.9C133.676 50.0333 133.392 50.1 133.072 50.1ZM133.662 48.85C133.856 48.85 134.019 48.8 134.152 48.7C134.292 48.5933 134.399 48.4367 134.472 48.23C134.546 48.0233 134.582 47.77 134.582 47.47C134.582 47.19 134.546 46.9533 134.472 46.76C134.406 46.56 134.302 46.41 134.162 46.31C134.029 46.2033 133.866 46.15 133.672 46.15C133.379 46.15 133.146 46.26 132.972 46.48C132.806 46.6933 132.722 47.0333 132.722 47.5C132.722 47.9667 132.806 48.31 132.972 48.53C133.139 48.7433 133.369 48.85 133.662 48.85ZM53.16 60H54.94L53.43 65H51.39L50.48 61.93L49.6 65H47.57L46.05 60H47.84L48.68 63.69L49.66 60H51.34L52.31 63.69L53.16 60ZM59.027 65.1C58.4736 65.1 57.9936 64.9967 57.587 64.79C57.187 64.5833 56.877 64.2867 56.657 63.9C56.437 63.5133 56.327 63.0467 56.327 62.5C56.327 61.9533 56.437 61.4867 56.657 61.1C56.877 60.7133 57.1836 60.4167 57.577 60.21C57.977 60.0033 58.4336 59.9 58.947 59.9C59.4736 59.9 59.9203 60.0033 60.287 60.21C60.6603 60.41 60.9436 60.69 61.137 61.05C61.3303 61.4033 61.427 61.81 61.427 62.27C61.427 62.39 61.4236 62.51 61.417 62.63C61.4103 62.75 61.4003 62.85 61.387 62.93H57.427V62.02H60.637L59.827 62.33C59.827 61.93 59.7536 61.6233 59.607 61.41C59.467 61.1967 59.247 61.09 58.947 61.09C58.7336 61.09 58.5503 61.14 58.397 61.24C58.2503 61.34 58.137 61.4967 58.057 61.71C57.9836 61.9233 57.947 62.1967 57.947 62.53C57.947 62.8567 57.9903 63.1233 58.077 63.33C58.1636 63.53 58.287 63.6767 58.447 63.77C58.607 63.8567 58.8003 63.9 59.027 63.9C59.2803 63.9 59.4803 63.85 59.627 63.75C59.7803 63.65 59.8936 63.51 59.967 63.33L61.327 63.78C61.2336 64.0667 61.0703 64.31 60.837 64.51C60.6103 64.7033 60.337 64.85 60.017 64.95C59.7036 65.05 59.3736 65.1 59.027 65.1ZM66.688 65.1C66.3613 65.1 66.0713 65.0267 65.818 64.88C65.5713 64.7333 65.368 64.5333 65.208 64.28C65.048 64.02 64.9446 63.7267 64.898 63.4L65.058 63.19L64.968 65H63.478V57.88H65.178V61.57L65.018 61.33C65.1113 60.9167 65.3013 60.5767 65.588 60.31C65.8746 60.0367 66.2613 59.9 66.748 59.9C67.1346 59.9 67.478 60.0033 67.778 60.21C68.0846 60.4167 68.3213 60.7167 68.488 61.11C68.6613 61.4967 68.748 61.9667 68.748 62.52C68.748 63.06 68.6613 63.5233 68.488 63.91C68.3146 64.2967 68.0746 64.5933 67.768 64.8C67.4613 65 67.1013 65.1 66.688 65.1ZM66.098 63.85C66.3913 63.85 66.6213 63.7433 66.788 63.53C66.9546 63.31 67.038 62.9667 67.038 62.5C67.038 62.0333 66.9546 61.6933 66.788 61.48C66.6213 61.26 66.3913 61.15 66.098 61.15C65.9046 61.15 65.738 61.2067 65.598 61.32C65.4646 61.4267 65.3613 61.58 65.288 61.78C65.2146 61.98 65.178 62.2233 65.178 62.51C65.178 62.7967 65.2146 63.04 65.288 63.24C65.3613 63.44 65.468 63.5933 65.608 63.7C65.748 63.8 65.9113 63.85 66.098 63.85ZM76.6488 65.1C76.2355 65.1 75.8722 65 75.5588 64.8C75.2522 64.5933 75.0122 64.2967 74.8388 63.91C74.6722 63.5233 74.5888 63.06 74.5888 62.52C74.5888 61.96 74.6755 61.4867 74.8488 61.1C75.0288 60.7133 75.2755 60.4167 75.5888 60.21C75.9088 60.0033 76.2755 59.9 76.6888 59.9C77.1422 59.9 77.5055 60.04 77.7788 60.32C78.0588 60.5933 78.2388 60.9433 78.3188 61.37L78.1588 61.58V57.88H79.8588V65H78.3388L78.2288 63.3L78.4288 63.45C78.3888 63.7833 78.2855 64.0733 78.1188 64.32C77.9588 64.5667 77.7522 64.76 77.4988 64.9C77.2522 65.0333 76.9688 65.1 76.6488 65.1ZM77.2388 63.85C77.4322 63.85 77.5955 63.8 77.7288 63.7C77.8688 63.5933 77.9755 63.4367 78.0488 63.23C78.1222 63.0233 78.1588 62.77 78.1588 62.47C78.1588 62.19 78.1222 61.9533 78.0488 61.76C77.9822 61.56 77.8788 61.41 77.7388 61.31C77.6055 61.2033 77.4422 61.15 77.2488 61.15C76.9555 61.15 76.7222 61.26 76.5488 61.48C76.3822 61.6933 76.2988 62.0333 76.2988 62.5C76.2988 62.9667 76.3822 63.31 76.5488 63.53C76.7155 63.7433 76.9455 63.85 77.2388 63.85ZM84.6184 65.1C84.065 65.1 83.585 64.9967 83.1784 64.79C82.7784 64.5833 82.4684 64.2867 82.2484 63.9C82.0284 63.5133 81.9184 63.0467 81.9184 62.5C81.9184 61.9533 82.0284 61.4867 82.2484 61.1C82.4684 60.7133 82.775 60.4167 83.1684 60.21C83.5684 60.0033 84.025 59.9 84.5384 59.9C85.065 59.9 85.5117 60.0033 85.8784 60.21C86.2517 60.41 86.535 60.69 86.7284 61.05C86.9217 61.4033 87.0184 61.81 87.0184 62.27C87.0184 62.39 87.015 62.51 87.0084 62.63C87.0017 62.75 86.9917 62.85 86.9784 62.93H83.0184V62.02H86.2284L85.4184 62.33C85.4184 61.93 85.345 61.6233 85.1984 61.41C85.0584 61.1967 84.8384 61.09 84.5384 61.09C84.325 61.09 84.1417 61.14 83.9884 61.24C83.8417 61.34 83.7284 61.4967 83.6484 61.71C83.575 61.9233 83.5384 62.1967 83.5384 62.53C83.5384 62.8567 83.5817 63.1233 83.6684 63.33C83.755 63.53 83.8784 63.6767 84.0384 63.77C84.1984 63.8567 84.3917 63.9 84.6184 63.9C84.8717 63.9 85.0717 63.85 85.2184 63.75C85.3717 63.65 85.485 63.51 85.5584 63.33L86.9184 63.78C86.825 64.0667 86.6617 64.31 86.4284 64.51C86.2017 64.7033 85.9284 64.85 85.6084 64.95C85.295 65.05 84.965 65.1 84.6184 65.1ZM92.1631 60H93.9231L92.1231 65H90.0931L88.2931 60H90.0831L91.1131 63.81L92.1631 60ZM97.9707 65.1C97.4174 65.1 96.9374 64.9967 96.5307 64.79C96.1307 64.5833 95.8207 64.2867 95.6007 63.9C95.3807 63.5133 95.2707 63.0467 95.2707 62.5C95.2707 61.9533 95.3807 61.4867 95.6007 61.1C95.8207 60.7133 96.1274 60.4167 96.5207 60.21C96.9207 60.0033 97.3774 59.9 97.8907 59.9C98.4174 59.9 98.864 60.0033 99.2307 60.21C99.604 60.41 99.8874 60.69 100.081 61.05C100.274 61.4033 100.371 61.81 100.371 62.27C100.371 62.39 100.367 62.51 100.361 62.63C100.354 62.75 100.344 62.85 100.331 62.93H96.3707V62.02H99.5807L98.7707 62.33C98.7707 61.93 98.6974 61.6233 98.5507 61.41C98.4107 61.1967 98.1907 61.09 97.8907 61.09C97.6774 61.09 97.494 61.14 97.3407 61.24C97.194 61.34 97.0807 61.4967 97.0007 61.71C96.9274 61.9233 96.8907 62.1967 96.8907 62.53C96.8907 62.8567 96.934 63.1233 97.0207 63.33C97.1074 63.53 97.2307 63.6767 97.3907 63.77C97.5507 63.8567 97.744 63.9 97.9707 63.9C98.224 63.9 98.424 63.85 98.5707 63.75C98.724 63.65 98.8374 63.51 98.9107 63.33L100.271 63.78C100.177 64.0667 100.014 64.31 99.7807 64.51C99.554 64.7033 99.2807 64.85 98.9607 64.95C98.6474 65.05 98.3174 65.1 97.9707 65.1ZM104.102 57.88V63.3C104.102 63.52 104.138 63.6767 104.212 63.77C104.285 63.8633 104.408 63.91 104.582 63.91C104.682 63.91 104.765 63.9033 104.832 63.89C104.898 63.8767 104.978 63.8567 105.072 63.83L104.962 64.85C104.842 64.9233 104.685 64.9833 104.492 65.03C104.298 65.0767 104.108 65.1 103.922 65.1C103.388 65.1 103.002 64.9767 102.762 64.73C102.522 64.4833 102.402 64.08 102.402 63.52V57.88H104.102ZM109.173 59.9C109.7 59.9 110.16 60.0033 110.553 60.21C110.953 60.41 111.263 60.7067 111.483 61.1C111.71 61.4867 111.823 61.9533 111.823 62.5C111.823 63.0467 111.71 63.5167 111.483 63.91C111.263 64.2967 110.953 64.5933 110.553 64.8C110.16 65 109.7 65.1 109.173 65.1C108.66 65.1 108.203 65 107.803 64.8C107.403 64.5933 107.09 64.2967 106.863 63.91C106.643 63.5167 106.533 63.0467 106.533 62.5C106.533 61.9533 106.643 61.4867 106.863 61.1C107.09 60.7067 107.403 60.41 107.803 60.21C108.203 60.0033 108.66 59.9 109.173 59.9ZM109.173 61.11C108.98 61.11 108.813 61.1567 108.673 61.25C108.533 61.3433 108.427 61.4933 108.353 61.7C108.28 61.9067 108.243 62.1733 108.243 62.5C108.243 62.8267 108.28 63.0933 108.353 63.3C108.427 63.5 108.533 63.65 108.673 63.75C108.813 63.8433 108.98 63.89 109.173 63.89C109.373 63.89 109.543 63.8433 109.683 63.75C109.823 63.65 109.93 63.5 110.003 63.3C110.077 63.0933 110.113 62.8267 110.113 62.5C110.113 62.1733 110.077 61.9067 110.003 61.7C109.93 61.4933 109.823 61.3433 109.683 61.25C109.543 61.1567 109.373 61.11 109.173 61.11ZM113.88 67.1V60H115.41L115.5 61.81L115.3 61.6C115.346 61.2667 115.45 60.9733 115.61 60.72C115.77 60.4667 115.976 60.2667 116.23 60.12C116.483 59.9733 116.773 59.9 117.1 59.9C117.513 59.9 117.873 60.0033 118.18 60.21C118.486 60.41 118.723 60.7033 118.89 61.09C119.063 61.47 119.15 61.9333 119.15 62.48C119.15 63.0267 119.063 63.4967 118.89 63.89C118.716 64.2833 118.473 64.5833 118.16 64.79C117.853 64.9967 117.493 65.1 117.08 65.1C116.626 65.1 116.26 64.9667 115.98 64.7C115.7 64.4267 115.513 64.0833 115.42 63.67L115.58 63.43V67.1H113.88ZM116.5 63.85C116.793 63.85 117.023 63.7433 117.19 63.53C117.356 63.31 117.44 62.9667 117.44 62.5C117.44 62.0333 117.356 61.6933 117.19 61.48C117.03 61.26 116.803 61.15 116.51 61.15C116.323 61.15 116.16 61.2033 116.02 61.31C115.88 61.41 115.77 61.56 115.69 61.76C115.616 61.96 115.58 62.2067 115.58 62.5C115.58 62.78 115.613 63.0233 115.68 63.23C115.753 63.43 115.86 63.5833 116 63.69C116.14 63.7967 116.306 63.85 116.5 63.85ZM123.689 65.1C123.136 65.1 122.656 64.9967 122.249 64.79C121.849 64.5833 121.539 64.2867 121.319 63.9C121.099 63.5133 120.989 63.0467 120.989 62.5C120.989 61.9533 121.099 61.4867 121.319 61.1C121.539 60.7133 121.846 60.4167 122.239 60.21C122.639 60.0033 123.096 59.9 123.609 59.9C124.136 59.9 124.582 60.0033 124.949 60.21C125.322 60.41 125.606 60.69 125.799 61.05C125.992 61.4033 126.089 61.81 126.089 62.27C126.089 62.39 126.086 62.51 126.079 62.63C126.072 62.75 126.062 62.85 126.049 62.93H122.089V62.02H125.299L124.489 62.33C124.489 61.93 124.416 61.6233 124.269 61.41C124.129 61.1967 123.909 61.09 123.609 61.09C123.396 61.09 123.212 61.14 123.059 61.24C122.912 61.34 122.799 61.4967 122.719 61.71C122.646 61.9233 122.609 62.1967 122.609 62.53C122.609 62.8567 122.652 63.1233 122.739 63.33C122.826 63.53 122.949 63.6767 123.109 63.77C123.269 63.8567 123.462 63.9 123.689 63.9C123.942 63.9 124.142 63.85 124.289 63.75C124.442 63.65 124.556 63.51 124.629 63.33L125.989 63.78C125.896 64.0667 125.732 64.31 125.499 64.51C125.272 64.7033 124.999 64.85 124.679 64.95C124.366 65.05 124.036 65.1 123.689 65.1ZM128.14 65V60H129.64L129.71 61.08C129.837 60.7067 130.023 60.4167 130.27 60.21C130.523 60.0033 130.843 59.9 131.23 59.9C131.357 59.9 131.463 59.91 131.55 59.93C131.643 59.95 131.717 59.9767 131.77 60.01L131.6 61.41C131.533 61.3833 131.447 61.3633 131.34 61.35C131.24 61.33 131.117 61.32 130.97 61.32C130.77 61.32 130.583 61.3633 130.41 61.45C130.237 61.5367 130.097 61.6667 129.99 61.84C129.89 62.0067 129.84 62.22 129.84 62.48V65H128.14ZM48.57 80.1C48.11 80.1 47.7067 80.03 47.36 79.89C47.0133 79.75 46.7433 79.5467 46.55 79.28C46.3567 79.0067 46.2567 78.6733 46.25 78.28C46.25 78.1 46.2767 77.9133 46.33 77.72C46.39 77.52 46.49 77.33 46.63 77.15C46.77 76.9633 46.9633 76.8033 47.21 76.67C47.4633 76.53 47.7833 76.4267 48.17 76.36L48.48 76.27C48.7667 76.0967 48.9867 75.9433 49.14 75.81C49.3 75.67 49.41 75.5367 49.47 75.41C49.5367 75.2767 49.57 75.13 49.57 74.97C49.57 74.7967 49.5167 74.6633 49.41 74.57C49.31 74.47 49.17 74.42 48.99 74.42C48.7967 74.42 48.6467 74.4767 48.54 74.59C48.4333 74.7033 48.38 74.8533 48.38 75.04C48.38 75.1467 48.3967 75.25 48.43 75.35C48.47 75.45 48.5433 75.5733 48.65 75.72C48.7633 75.8667 48.9233 76.0567 49.13 76.29C49.3367 76.5233 49.6067 76.8267 49.94 77.2C50.2733 77.56 50.5533 77.86 50.78 78.1C51.0067 78.3333 51.2033 78.5133 51.37 78.64C51.5433 78.7667 51.71 78.85 51.87 78.89C52.03 78.9233 52.2133 78.93 52.42 78.91L52.27 80.1C51.9967 80.1 51.7533 80.08 51.54 80.04C51.3267 80 51.11 79.9167 50.89 79.79C50.67 79.6567 50.42 79.4633 50.14 79.21C49.86 78.9567 49.5167 78.6167 49.11 78.19C48.65 77.71 48.2767 77.3133 47.99 77C47.7033 76.68 47.4833 76.41 47.33 76.19C47.1767 75.97 47.07 75.7667 47.01 75.58C46.9567 75.3933 46.93 75.1967 46.93 74.99C46.93 74.71 47 74.4433 47.14 74.19C47.2867 73.93 47.51 73.7167 47.81 73.55C48.11 73.3833 48.5 73.3 48.98 73.3C49.4267 73.3 49.79 73.3733 50.07 73.52C50.3567 73.6667 50.5667 73.86 50.7 74.1C50.84 74.3333 50.91 74.5833 50.91 74.85C50.91 75.15 50.84 75.4267 50.7 75.68C50.56 75.9333 50.3433 76.1567 50.05 76.35C49.7567 76.5367 49.3733 76.6933 48.9 76.82L48.59 76.99C48.3633 77.1233 48.1833 77.2467 48.05 77.36C47.9233 77.4733 47.8333 77.5933 47.78 77.72C47.7333 77.84 47.71 77.9833 47.71 78.15C47.71 78.3167 47.7567 78.4633 47.85 78.59C47.9433 78.7167 48.07 78.8167 48.23 78.89C48.3967 78.9567 48.5867 78.99 48.8 78.99C49.1133 78.99 49.3867 78.94 49.62 78.84C49.8533 78.74 50.08 78.61 50.3 78.45L50.44 78.24C50.5667 78.0267 50.6667 77.79 50.74 77.53C50.82 77.27 50.8533 76.9633 50.84 76.61L51.98 76.64C51.98 77.0667 51.91 77.4667 51.77 77.84C51.6367 78.2067 51.4367 78.5267 51.17 78.8L50.87 79.04C50.65 79.3667 50.3467 79.6267 49.96 79.82C49.5733 80.0067 49.11 80.1 48.57 80.1ZM58.1362 80V75H59.6562L59.7062 75.97C59.8662 75.6167 60.0895 75.35 60.3762 75.17C60.6695 74.99 61.0062 74.9 61.3862 74.9C61.7595 74.9 62.0828 74.9833 62.3562 75.15C62.6295 75.3167 62.8328 75.5633 62.9662 75.89C63.0728 75.67 63.2095 75.4867 63.3762 75.34C63.5495 75.1933 63.7462 75.0833 63.9662 75.01C64.1862 74.9367 64.4128 74.9 64.6462 74.9C64.9795 74.9 65.2728 74.9667 65.5262 75.1C65.7795 75.2267 65.9795 75.4233 66.1262 75.69C66.2795 75.95 66.3562 76.2767 66.3562 76.67V80H64.6562V77.06C64.6562 76.74 64.5928 76.5167 64.4662 76.39C64.3462 76.2633 64.1828 76.2 63.9762 76.2C63.8095 76.2 63.6562 76.2433 63.5162 76.33C63.3828 76.41 63.2795 76.5333 63.2062 76.7C63.1328 76.8667 63.0962 77.0767 63.0962 77.33V80H61.3962V77.06C61.3962 76.74 61.3328 76.5167 61.2062 76.39C61.0795 76.2633 60.9162 76.2 60.7162 76.2C60.5628 76.2 60.4162 76.24 60.2762 76.32C60.1428 76.4 60.0362 76.5267 59.9562 76.7C59.8762 76.8667 59.8362 77.0867 59.8362 77.36V80H58.1362ZM70.3402 80.1C70.0002 80.1 69.7002 80.0433 69.4402 79.93C69.1869 79.81 68.9869 79.62 68.8402 79.36C68.6936 79.1 68.6202 78.76 68.6202 78.34V75H70.3202V77.94C70.3202 78.26 70.3836 78.4833 70.5102 78.61C70.6369 78.7367 70.8169 78.8 71.0502 78.8C71.1702 78.8 71.2836 78.78 71.3902 78.74C71.4969 78.6933 71.5902 78.6267 71.6702 78.54C71.7502 78.4467 71.8102 78.33 71.8502 78.19C71.8969 78.0433 71.9202 77.8733 71.9202 77.68V75H73.6202V80H72.1002L72.0502 79.06C71.8902 79.4133 71.6669 79.6767 71.3802 79.85C71.0936 80.0167 70.7469 80.1 70.3402 80.1ZM77.6216 72.88V78.3C77.6216 78.52 77.6583 78.6767 77.7316 78.77C77.805 78.8633 77.9283 78.91 78.1016 78.91C78.2016 78.91 78.285 78.9033 78.3516 78.89C78.4183 78.8767 78.4983 78.8567 78.5916 78.83L78.4816 79.85C78.3616 79.9233 78.205 79.9833 78.0116 80.03C77.8183 80.0767 77.6283 80.1 77.4416 80.1C76.9083 80.1 76.5216 79.9767 76.2816 79.73C76.0416 79.4833 75.9216 79.08 75.9216 78.52V72.88H77.6216ZM82.2371 73.41V78.22C82.2371 78.46 82.2938 78.6333 82.4071 78.74C82.5271 78.84 82.6904 78.89 82.8971 78.89C83.0571 78.89 83.1938 78.8733 83.3071 78.84C83.4271 78.8 83.5338 78.7433 83.6271 78.67L83.8071 79.72C83.6404 79.84 83.4304 79.9333 83.1771 80C82.9238 80.0667 82.6638 80.1 82.3971 80.1C82.0171 80.1 81.6871 80.0467 81.4071 79.94C81.1338 79.8333 80.9204 79.6633 80.7671 79.43C80.6204 79.1967 80.5438 78.8867 80.5371 78.5V73.88L82.2371 73.41ZM83.7271 75V76.21H79.6771V75H83.7271ZM86.4623 74.42C86.1157 74.42 85.8623 74.3567 85.7023 74.23C85.549 74.0967 85.4723 73.89 85.4723 73.61C85.4723 73.3233 85.549 73.1167 85.7023 72.99C85.8623 72.8567 86.1157 72.79 86.4623 72.79C86.8023 72.79 87.0523 72.8567 87.2123 72.99C87.3723 73.1167 87.4523 73.3233 87.4523 73.61C87.4523 73.89 87.3723 74.0967 87.2123 74.23C87.0523 74.3567 86.8023 74.42 86.4623 74.42ZM87.3123 75V80H85.6123V75H87.3123ZM93.4825 76.63V78.02H89.8225V76.63H93.4825ZM96.0057 80V75H97.5257L97.5757 75.97C97.7357 75.6167 97.959 75.35 98.2457 75.17C98.539 74.99 98.8757 74.9 99.2557 74.9C99.629 74.9 99.9524 74.9833 100.226 75.15C100.499 75.3167 100.702 75.5633 100.836 75.89C100.942 75.67 101.079 75.4867 101.246 75.34C101.419 75.1933 101.616 75.0833 101.836 75.01C102.056 74.9367 102.282 74.9 102.516 74.9C102.849 74.9 103.142 74.9667 103.396 75.1C103.649 75.2267 103.849 75.4233 103.996 75.69C104.149 75.95 104.226 76.2767 104.226 76.67V80H102.526V77.06C102.526 76.74 102.462 76.5167 102.336 76.39C102.216 76.2633 102.052 76.2 101.846 76.2C101.679 76.2 101.526 76.2433 101.386 76.33C101.252 76.41 101.149 76.5333 101.076 76.7C101.002 76.8667 100.966 77.0767 100.966 77.33V80H99.2657V77.06C99.2657 76.74 99.2024 76.5167 99.0757 76.39C98.949 76.2633 98.7857 76.2 98.5857 76.2C98.4324 76.2 98.2857 76.24 98.1457 76.32C98.0124 76.4 97.9057 76.5267 97.8257 76.7C97.7457 76.8667 97.7057 77.0867 97.7057 77.36V80H96.0057ZM108.96 80.1C108.406 80.1 107.926 79.9967 107.52 79.79C107.12 79.5833 106.81 79.2867 106.59 78.9C106.37 78.5133 106.26 78.0467 106.26 77.5C106.26 76.9533 106.37 76.4867 106.59 76.1C106.81 75.7133 107.116 75.4167 107.51 75.21C107.91 75.0033 108.366 74.9 108.88 74.9C109.406 74.9 109.853 75.0033 110.22 75.21C110.593 75.41 110.876 75.69 111.07 76.05C111.263 76.4033 111.36 76.81 111.36 77.27C111.36 77.39 111.356 77.51 111.35 77.63C111.343 77.75 111.333 77.85 111.32 77.93H107.36V77.02H110.57L109.76 77.33C109.76 76.93 109.686 76.6233 109.54 76.41C109.4 76.1967 109.18 76.09 108.88 76.09C108.666 76.09 108.483 76.14 108.33 76.24C108.183 76.34 108.07 76.4967 107.99 76.71C107.916 76.9233 107.88 77.1967 107.88 77.53C107.88 77.8567 107.923 78.1233 108.01 78.33C108.096 78.53 108.22 78.6767 108.38 78.77C108.54 78.8567 108.733 78.9 108.96 78.9C109.213 78.9 109.413 78.85 109.56 78.75C109.713 78.65 109.826 78.51 109.9 78.33L111.26 78.78C111.166 79.0667 111.003 79.31 110.77 79.51C110.543 79.7033 110.27 79.85 109.95 79.95C109.636 80.05 109.306 80.1 108.96 80.1ZM115.251 80.1C114.837 80.1 114.474 80 114.161 79.8C113.854 79.5933 113.614 79.2967 113.441 78.91C113.274 78.5233 113.191 78.06 113.191 77.52C113.191 76.96 113.277 76.4867 113.451 76.1C113.631 75.7133 113.877 75.4167 114.191 75.21C114.511 75.0033 114.877 74.9 115.291 74.9C115.744 74.9 116.107 75.04 116.381 75.32C116.661 75.5933 116.841 75.9433 116.921 76.37L116.761 76.58V72.88H118.461V80H116.941L116.831 78.3L117.031 78.45C116.991 78.7833 116.887 79.0733 116.721 79.32C116.561 79.5667 116.354 79.76 116.101 79.9C115.854 80.0333 115.571 80.1 115.251 80.1ZM115.841 78.85C116.034 78.85 116.197 78.8 116.331 78.7C116.471 78.5933 116.577 78.4367 116.651 78.23C116.724 78.0233 116.761 77.77 116.761 77.47C116.761 77.19 116.724 76.9533 116.651 76.76C116.584 76.56 116.481 76.41 116.341 76.31C116.207 76.2033 116.044 76.15 115.851 76.15C115.557 76.15 115.324 76.26 115.151 76.48C114.984 76.6933 114.901 77.0333 114.901 77.5C114.901 77.9667 114.984 78.31 115.151 78.53C115.317 78.7433 115.547 78.85 115.841 78.85ZM121.63 74.42C121.284 74.42 121.03 74.3567 120.87 74.23C120.717 74.0967 120.64 73.89 120.64 73.61C120.64 73.3233 120.717 73.1167 120.87 72.99C121.03 72.8567 121.284 72.79 121.63 72.79C121.97 72.79 122.22 72.8567 122.38 72.99C122.54 73.1167 122.62 73.3233 122.62 73.61C122.62 73.89 122.54 74.0967 122.38 74.23C122.22 74.3567 121.97 74.42 121.63 74.42ZM122.48 75V80H120.78V75H122.48ZM127.58 76.83C127.58 76.5967 127.514 76.4133 127.38 76.28C127.254 76.14 127.08 76.07 126.86 76.07C126.64 76.07 126.45 76.1267 126.29 76.24C126.137 76.3467 126.03 76.54 125.97 76.82L124.53 76.48C124.624 76 124.87 75.6167 125.27 75.33C125.67 75.0433 126.234 74.9 126.96 74.9C127.447 74.9 127.86 74.9733 128.2 75.12C128.547 75.26 128.81 75.4733 128.99 75.76C129.177 76.04 129.27 76.3867 129.27 76.8V78.63C129.27 78.89 129.387 79.02 129.62 79.02C129.74 79.02 129.837 79.0067 129.91 78.98L129.81 79.95C129.61 80.0433 129.367 80.09 129.08 80.09C128.82 80.09 128.59 80.05 128.39 79.97C128.19 79.8833 128.034 79.7567 127.92 79.59C127.807 79.4167 127.75 79.2 127.75 78.94V78.88L127.94 78.81C127.94 79.0967 127.854 79.3367 127.68 79.53C127.514 79.7233 127.294 79.8667 127.02 79.96C126.754 80.0533 126.474 80.1 126.18 80.1C125.84 80.1 125.544 80.0467 125.29 79.94C125.037 79.8333 124.84 79.68 124.7 79.48C124.567 79.2733 124.5 79.02 124.5 78.72C124.5 78.36 124.607 78.0633 124.82 77.83C125.04 77.59 125.384 77.4233 125.85 77.33L127.74 76.94L127.73 77.84L126.77 78.04C126.57 78.08 126.42 78.14 126.32 78.22C126.227 78.2933 126.18 78.4067 126.18 78.56C126.18 78.7067 126.234 78.8167 126.34 78.89C126.447 78.9633 126.574 79 126.72 79C126.834 79 126.94 78.9833 127.04 78.95C127.147 78.9167 127.24 78.8667 127.32 78.8C127.4 78.7267 127.464 78.6367 127.51 78.53C127.557 78.4233 127.58 78.2967 127.58 78.15V76.83ZM49.4 91.83C49.4 91.5967 49.3333 91.4133 49.2 91.28C49.0733 91.14 48.9 91.07 48.68 91.07C48.46 91.07 48.27 91.1267 48.11 91.24C47.9567 91.3467 47.85 91.54 47.79 91.82L46.35 91.48C46.4433 91 46.69 90.6167 47.09 90.33C47.49 90.0433 48.0533 89.9 48.78 89.9C49.2667 89.9 49.68 89.9733 50.02 90.12C50.3667 90.26 50.63 90.4733 50.81 90.76C50.9967 91.04 51.09 91.3867 51.09 91.8V93.63C51.09 93.89 51.2067 94.02 51.44 94.02C51.56 94.02 51.6567 94.0067 51.73 93.98L51.63 94.95C51.43 95.0433 51.1867 95.09 50.9 95.09C50.64 95.09 50.41 95.05 50.21 94.97C50.01 94.8833 49.8533 94.7567 49.74 94.59C49.6267 94.4167 49.57 94.2 49.57 93.94V93.88L49.76 93.81C49.76 94.0967 49.6733 94.3367 49.5 94.53C49.3333 94.7233 49.1133 94.8667 48.84 94.96C48.5733 95.0533 48.2933 95.1 48 95.1C47.66 95.1 47.3633 95.0467 47.11 94.94C46.8567 94.8333 46.66 94.68 46.52 94.48C46.3867 94.2733 46.32 94.02 46.32 93.72C46.32 93.36 46.4267 93.0633 46.64 92.83C46.86 92.59 47.2033 92.4233 47.67 92.33L49.56 91.94L49.55 92.84L48.59 93.04C48.39 93.08 48.24 93.14 48.14 93.22C48.0467 93.2933 48 93.4067 48 93.56C48 93.7067 48.0533 93.8167 48.16 93.89C48.2667 93.9633 48.3933 94 48.54 94C48.6533 94 48.76 93.9833 48.86 93.95C48.9667 93.9167 49.06 93.8667 49.14 93.8C49.22 93.7267 49.2833 93.6367 49.33 93.53C49.3767 93.4233 49.4 93.2967 49.4 93.15V91.83ZM53.501 95V90H55.001L55.071 91.08C55.1977 90.7067 55.3843 90.4167 55.631 90.21C55.8843 90.0033 56.2043 89.9 56.591 89.9C56.7177 89.9 56.8243 89.91 56.911 89.93C57.0043 89.95 57.0777 89.9767 57.131 90.01L56.961 91.41C56.8943 91.3833 56.8077 91.3633 56.701 91.35C56.601 91.33 56.4777 91.32 56.331 91.32C56.131 91.32 55.9443 91.3633 55.771 91.45C55.5977 91.5367 55.4577 91.6667 55.351 91.84C55.251 92.0067 55.201 92.22 55.201 92.48V95H53.501ZM60.8609 88.41V93.22C60.8609 93.46 60.9176 93.6333 61.0309 93.74C61.1509 93.84 61.3143 93.89 61.5209 93.89C61.6809 93.89 61.8176 93.8733 61.9309 93.84C62.0509 93.8 62.1576 93.7433 62.2509 93.67L62.4309 94.72C62.2643 94.84 62.0543 94.9333 61.8009 95C61.5476 95.0667 61.2876 95.1 61.0209 95.1C60.6409 95.1 60.3109 95.0467 60.0309 94.94C59.7576 94.8333 59.5443 94.6633 59.3909 94.43C59.2443 94.1967 59.1676 93.8867 59.1609 93.5V88.88L60.8609 88.41ZM62.3509 90V91.21H58.3009V90H62.3509ZM65.0862 89.42C64.7395 89.42 64.4862 89.3567 64.3262 89.23C64.1728 89.0967 64.0962 88.89 64.0962 88.61C64.0962 88.3233 64.1728 88.1167 64.3262 87.99C64.4862 87.8567 64.7395 87.79 65.0862 87.79C65.4262 87.79 65.6762 87.8567 65.8362 87.99C65.9962 88.1167 66.0762 88.3233 66.0762 88.61C66.0762 88.89 65.9962 89.0967 65.8362 89.23C65.6762 89.3567 65.4262 89.42 65.0862 89.42ZM65.9362 90V95H64.2362V90H65.9362ZM70.3463 95.1C69.8463 95.1 69.3797 95.02 68.9463 94.86C68.5197 94.6933 68.1663 94.4567 67.8863 94.15L68.6863 93.21C68.853 93.4233 69.073 93.6033 69.3463 93.75C69.6263 93.89 69.9363 93.96 70.2763 93.96C70.483 93.96 70.653 93.93 70.7863 93.87C70.9197 93.81 70.9863 93.7167 70.9863 93.59C70.9863 93.4967 70.953 93.4233 70.8863 93.37C70.8197 93.31 70.6863 93.26 70.4863 93.22L69.7863 93.08C69.1597 92.9533 68.713 92.7667 68.4463 92.52C68.1863 92.2667 68.0563 91.9367 68.0563 91.53C68.0563 91.2567 68.1397 90.9967 68.3063 90.75C68.473 90.4967 68.7297 90.2933 69.0763 90.14C69.423 89.98 69.8663 89.9 70.4063 89.9C70.913 89.9 71.3597 89.9733 71.7463 90.12C72.133 90.2667 72.4397 90.48 72.6663 90.76L71.8563 91.68C71.6963 91.48 71.4897 91.3233 71.2363 91.21C70.983 91.0967 70.7297 91.04 70.4763 91.04C70.3163 91.04 70.1797 91.0567 70.0663 91.09C69.9597 91.1167 69.8797 91.1567 69.8263 91.21C69.773 91.2633 69.7463 91.33 69.7463 91.41C69.7463 91.4967 69.7863 91.5733 69.8663 91.64C69.953 91.7 70.1097 91.7533 70.3363 91.8L71.2463 91.98C71.7597 92.0733 72.1297 92.2433 72.3563 92.49C72.583 92.7367 72.6963 93.0333 72.6963 93.38C72.6963 93.7067 72.6097 94 72.4363 94.26C72.263 94.52 72.003 94.7267 71.6563 94.88C71.3097 95.0267 70.873 95.1 70.3463 95.1ZM76.7684 88.41V93.22C76.7684 93.46 76.825 93.6333 76.9384 93.74C77.0584 93.84 77.2217 93.89 77.4284 93.89C77.5884 93.89 77.725 93.8733 77.8384 93.84C77.9584 93.8 78.065 93.7433 78.1584 93.67L78.3384 94.72C78.1717 94.84 77.9617 94.9333 77.7084 95C77.455 95.0667 77.195 95.1 76.9284 95.1C76.5484 95.1 76.2184 95.0467 75.9384 94.94C75.665 94.8333 75.4517 94.6633 75.2984 94.43C75.1517 94.1967 75.075 93.8867 75.0684 93.5V88.88L76.7684 88.41ZM78.2584 90V91.21H74.2084V90H78.2584Z" fill="#F9F9F9"/>
</svg>
