<svg width="143" height="46" viewBox="0 0 143 46" fill="none" xmlns="http://www.w3.org/2000/svg">
<path d="M2.94 9.12C2.444 9.12 2.008 9 1.632 8.76C1.264 8.512 0.976 8.156 0.768 7.692C0.568 7.228 0.468 6.672 0.468 6.024C0.468 5.352 0.572 4.784 0.78 4.32C0.996 3.856 1.292 3.5 1.668 3.252C2.052 3.004 2.492 2.88 2.988 2.88C3.532 2.88 3.968 3.048 4.296 3.384C4.632 3.712 4.848 4.132 4.944 4.644L4.752 4.896V0.456H6.792V9H4.968L4.836 6.96L5.076 7.14C5.028 7.54 4.904 7.888 4.704 8.184C4.512 8.48 4.264 8.712 3.96 8.88C3.664 9.04 3.324 9.12 2.94 9.12ZM3.648 7.62C3.88 7.62 4.076 7.56 4.236 7.44C4.404 7.312 4.532 7.124 4.62 6.876C4.708 6.628 4.752 6.324 4.752 5.964C4.752 5.628 4.708 5.344 4.62 5.112C4.54 4.872 4.416 4.692 4.248 4.572C4.088 4.444 3.892 4.38 3.66 4.38C3.308 4.38 3.028 4.512 2.82 4.776C2.62 5.032 2.52 5.44 2.52 6C2.52 6.56 2.62 6.972 2.82 7.236C3.02 7.492 3.296 7.62 3.648 7.62ZM12.5034 9.12C11.8394 9.12 11.2634 8.996 10.7754 8.748C10.2954 8.5 9.92344 8.144 9.65944 7.68C9.39544 7.216 9.26344 6.656 9.26344 6C9.26344 5.344 9.39544 4.784 9.65944 4.32C9.92344 3.856 10.2914 3.5 10.7634 3.252C11.2434 3.004 11.7914 2.88 12.4074 2.88C13.0394 2.88 13.5754 3.004 14.0154 3.252C14.4634 3.492 14.8034 3.828 15.0354 4.26C15.2674 4.684 15.3834 5.172 15.3834 5.724C15.3834 5.868 15.3794 6.012 15.3714 6.156C15.3634 6.3 15.3514 6.42 15.3354 6.516H10.5834V5.424H14.4354L13.4634 5.796C13.4634 5.316 13.3754 4.948 13.1994 4.692C13.0314 4.436 12.7674 4.308 12.4074 4.308C12.1514 4.308 11.9314 4.368 11.7474 4.488C11.5714 4.608 11.4354 4.796 11.3394 5.052C11.2514 5.308 11.2074 5.636 11.2074 6.036C11.2074 6.428 11.2594 6.748 11.3634 6.996C11.4674 7.236 11.6154 7.412 11.8074 7.524C11.9994 7.628 12.2314 7.68 12.5034 7.68C12.8074 7.68 13.0474 7.62 13.2234 7.5C13.4074 7.38 13.5434 7.212 13.6314 6.996L15.2634 7.536C15.1514 7.88 14.9554 8.172 14.6754 8.412C14.4034 8.644 14.0754 8.82 13.6914 8.94C13.3154 9.06 12.9194 9.12 12.5034 9.12ZM20.3647 9.12C19.7647 9.12 19.2047 9.024 18.6847 8.832C18.1727 8.632 17.7487 8.348 17.4127 7.98L18.3727 6.852C18.5727 7.108 18.8367 7.324 19.1647 7.5C19.5007 7.668 19.8727 7.752 20.2807 7.752C20.5287 7.752 20.7327 7.716 20.8927 7.644C21.0527 7.572 21.1327 7.46 21.1327 7.308C21.1327 7.196 21.0927 7.108 21.0127 7.044C20.9327 6.972 20.7727 6.912 20.5327 6.864L19.6927 6.696C18.9407 6.544 18.4047 6.32 18.0847 6.024C17.7727 5.72 17.6167 5.324 17.6167 4.836C17.6167 4.508 17.7167 4.196 17.9167 3.9C18.1167 3.596 18.4247 3.352 18.8407 3.168C19.2567 2.976 19.7887 2.88 20.4367 2.88C21.0447 2.88 21.5807 2.968 22.0447 3.144C22.5087 3.32 22.8767 3.576 23.1487 3.912L22.1767 5.016C21.9847 4.776 21.7367 4.588 21.4327 4.452C21.1287 4.316 20.8247 4.248 20.5207 4.248C20.3287 4.248 20.1647 4.268 20.0287 4.308C19.9007 4.34 19.8047 4.388 19.7407 4.452C19.6767 4.516 19.6447 4.596 19.6447 4.692C19.6447 4.796 19.6927 4.888 19.7887 4.968C19.8927 5.04 20.0807 5.104 20.3527 5.16L21.4447 5.376C22.0607 5.488 22.5047 5.692 22.7767 5.988C23.0487 6.284 23.1847 6.64 23.1847 7.056C23.1847 7.448 23.0807 7.8 22.8727 8.112C22.6647 8.424 22.3527 8.672 21.9367 8.856C21.5207 9.032 20.9967 9.12 20.3647 9.12ZM26.5831 2.304C26.1671 2.304 25.8631 2.228 25.6711 2.076C25.4871 1.916 25.3951 1.668 25.3951 1.332C25.3951 0.987999 25.4871 0.74 25.6711 0.588C25.8631 0.428 26.1671 0.348 26.5831 0.348C26.9911 0.348 27.2911 0.428 27.4831 0.588C27.6751 0.74 27.7711 0.987999 27.7711 1.332C27.7711 1.668 27.6751 1.916 27.4831 2.076C27.2911 2.228 26.9911 2.304 26.5831 2.304ZM27.6031 3V9H25.5631V3H27.6031ZM36.1833 1.392L36.3513 2.76C36.3033 2.744 36.2553 2.736 36.2073 2.736C36.1593 2.728 36.1113 2.724 36.0633 2.724C35.7113 2.724 35.4473 2.812 35.2713 2.988C35.1033 3.156 35.0193 3.368 35.0193 3.624L34.2993 3.36C34.2993 3.032 34.3593 2.716 34.4793 2.412C34.5993 2.108 34.7833 1.86 35.0313 1.668C35.2873 1.476 35.6073 1.38 35.9913 1.38C36.0153 1.38 36.0433 1.38 36.0753 1.38C36.1153 1.38 36.1513 1.384 36.1833 1.392ZM34.1193 7.668C34.8153 7.668 35.3473 7.816 35.7153 8.112C36.0913 8.4 36.2793 8.816 36.2793 9.36C36.2793 9.856 36.1433 10.268 35.8713 10.596C35.5993 10.924 35.2153 11.168 34.7193 11.328C34.2313 11.496 33.6513 11.58 32.9793 11.58C31.8913 11.58 31.1073 11.444 30.6273 11.172C30.1473 10.9 29.9073 10.532 29.9073 10.068C29.9073 9.732 30.0433 9.46 30.3153 9.252C30.5873 9.044 31.0393 8.932 31.6713 8.916L31.6233 9.108C31.1353 9.044 30.7713 8.9 30.5313 8.676C30.2913 8.452 30.1713 8.148 30.1713 7.764C30.1713 7.38 30.3233 7.068 30.6273 6.828C30.9313 6.588 31.3353 6.456 31.8393 6.432L32.5833 6.78H32.3913C32.0793 6.796 31.8593 6.848 31.7313 6.936C31.6033 7.024 31.5393 7.132 31.5393 7.26C31.5393 7.396 31.5953 7.5 31.7073 7.572C31.8193 7.636 31.9873 7.668 32.2113 7.668H34.1193ZM32.9913 10.26C33.3753 10.26 33.6913 10.232 33.9393 10.176C34.1953 10.128 34.3873 10.056 34.5153 9.96C34.6433 9.872 34.7073 9.768 34.7073 9.648C34.7073 9.528 34.6633 9.432 34.5753 9.36C34.4873 9.296 34.3273 9.264 34.0953 9.264H31.9473C31.7953 9.264 31.6713 9.304 31.5753 9.384C31.4873 9.464 31.4433 9.564 31.4433 9.684C31.4433 9.868 31.5793 10.008 31.8513 10.104C32.1233 10.208 32.5033 10.26 32.9913 10.26ZM33.0633 2.88C33.6713 2.88 34.1913 2.96 34.6233 3.12C35.0553 3.28 35.3833 3.512 35.6073 3.816C35.8393 4.112 35.9553 4.48 35.9553 4.92C35.9553 5.352 35.8393 5.72 35.6073 6.024C35.3833 6.328 35.0553 6.56 34.6233 6.72C34.1913 6.872 33.6713 6.948 33.0633 6.948C32.1113 6.948 31.3873 6.772 30.8913 6.42C30.4033 6.068 30.1593 5.568 30.1593 4.92C30.1593 4.48 30.2713 4.112 30.4953 3.816C30.7273 3.512 31.0593 3.28 31.4913 3.12C31.9233 2.96 32.4473 2.88 33.0633 2.88ZM33.0633 4.044C32.7993 4.044 32.5833 4.12 32.4153 4.272C32.2553 4.424 32.1753 4.64 32.1753 4.92C32.1753 5.192 32.2553 5.404 32.4153 5.556C32.5833 5.708 32.7993 5.784 33.0633 5.784C33.3193 5.784 33.5313 5.708 33.6993 5.556C33.8673 5.404 33.9513 5.192 33.9513 4.92C33.9513 4.64 33.8673 4.424 33.6993 4.272C33.5313 4.12 33.3193 4.044 33.0633 4.044ZM38.4101 9V3H40.2341L40.3421 5.064L40.1141 4.836C40.1941 4.404 40.3341 4.044 40.5341 3.756C40.7421 3.468 40.9981 3.252 41.3021 3.108C41.6141 2.956 41.9621 2.88 42.3461 2.88C42.7621 2.88 43.1221 2.96 43.4261 3.12C43.7381 3.28 43.9821 3.516 44.1581 3.828C44.3341 4.14 44.4221 4.532 44.4221 5.004V9H42.3821V5.544C42.3821 5.128 42.3021 4.84 42.1421 4.68C41.9821 4.52 41.7781 4.44 41.5301 4.44C41.3381 4.44 41.1581 4.488 40.9901 4.584C40.8221 4.672 40.6901 4.816 40.5941 5.016C40.4981 5.216 40.4501 5.484 40.4501 5.82V9H38.4101ZM51.8035 4.956V6.624H47.4115V4.956H51.8035ZM57.4985 0.288C57.8265 0.288 58.1145 0.324 58.3625 0.396C58.6105 0.46 58.7945 0.536 58.9145 0.624L58.7105 1.896C58.6225 1.84 58.5225 1.796 58.4105 1.764C58.2985 1.732 58.1585 1.716 57.9905 1.716C57.7105 1.716 57.4785 1.78 57.2945 1.908C57.1185 2.036 57.0305 2.26 57.0305 2.58V3.36L57.1505 3.696V9H55.1105V2.448C55.1105 2.064 55.1705 1.736 55.2905 1.464C55.4185 1.192 55.5945 0.967999 55.8185 0.792C56.0425 0.616 56.2985 0.488 56.5865 0.408C56.8745 0.328 57.1785 0.288 57.4985 0.288ZM58.8545 3V4.452H54.1505V3H58.8545ZM63.8003 2.88C64.4323 2.88 64.9843 3.004 65.4563 3.252C65.9363 3.492 66.3083 3.848 66.5723 4.32C66.8443 4.784 66.9803 5.344 66.9803 6C66.9803 6.656 66.8443 7.22 66.5723 7.692C66.3083 8.156 65.9363 8.512 65.4563 8.76C64.9843 9 64.4323 9.12 63.8003 9.12C63.1843 9.12 62.6363 9 62.1563 8.76C61.6763 8.512 61.3003 8.156 61.0283 7.692C60.7643 7.22 60.6323 6.656 60.6323 6C60.6323 5.344 60.7643 4.784 61.0283 4.32C61.3003 3.848 61.6763 3.492 62.1563 3.252C62.6363 3.004 63.1843 2.88 63.8003 2.88ZM63.8003 4.332C63.5683 4.332 63.3683 4.388 63.2003 4.5C63.0323 4.612 62.9043 4.792 62.8163 5.04C62.7283 5.288 62.6843 5.608 62.6843 6C62.6843 6.392 62.7283 6.712 62.8163 6.96C62.9043 7.2 63.0323 7.38 63.2003 7.5C63.3683 7.612 63.5683 7.668 63.8003 7.668C64.0403 7.668 64.2443 7.612 64.4123 7.5C64.5803 7.38 64.7083 7.2 64.7963 6.96C64.8843 6.712 64.9283 6.392 64.9283 6C64.9283 5.608 64.8843 5.288 64.7963 5.04C64.7083 4.792 64.5803 4.612 64.4123 4.5C64.2443 4.388 64.0403 4.332 63.8003 4.332ZM72.2919 2.88C72.8999 2.88 73.4039 2.968 73.8039 3.144C74.2119 3.312 74.5279 3.54 74.7519 3.828C74.9839 4.108 75.1279 4.412 75.1839 4.74L73.2999 5.364C73.2439 5.02 73.1399 4.764 72.9879 4.596C72.8439 4.42 72.6319 4.332 72.3519 4.332C72.0959 4.332 71.8799 4.392 71.7039 4.512C71.5359 4.624 71.4079 4.808 71.3199 5.064C71.2319 5.312 71.1879 5.632 71.1879 6.024C71.1879 6.416 71.2359 6.736 71.3319 6.984C71.4279 7.224 71.5639 7.4 71.7399 7.512C71.9159 7.616 72.1239 7.668 72.3639 7.668C72.5639 7.668 72.7279 7.632 72.8559 7.56C72.9919 7.48 73.1039 7.368 73.1919 7.224C73.2799 7.08 73.3359 6.904 73.3599 6.696L75.1959 7.284C75.1399 7.636 74.9879 7.952 74.7399 8.232C74.4999 8.504 74.1799 8.72 73.7799 8.88C73.3799 9.04 72.9119 9.12 72.3759 9.12C71.7199 9.12 71.1479 9 70.6599 8.76C70.1719 8.512 69.7959 8.156 69.5319 7.692C69.2679 7.22 69.1359 6.656 69.1359 6C69.1359 5.344 69.2679 4.784 69.5319 4.32C69.7959 3.848 70.1639 3.492 70.6359 3.252C71.1159 3.004 71.6679 2.88 72.2919 2.88ZM79.6045 9.12C79.1965 9.12 78.8365 9.052 78.5245 8.916C78.2205 8.772 77.9805 8.544 77.8045 8.232C77.6285 7.92 77.5405 7.512 77.5405 7.008V3H79.5805V6.528C79.5805 6.912 79.6565 7.18 79.8085 7.332C79.9605 7.484 80.1765 7.56 80.4565 7.56C80.6005 7.56 80.7365 7.536 80.8645 7.488C80.9925 7.432 81.1045 7.352 81.2005 7.248C81.2965 7.136 81.3685 6.996 81.4165 6.828C81.4725 6.652 81.5005 6.448 81.5005 6.216V3H83.5405V9H81.7165L81.6565 7.872C81.4645 8.296 81.1965 8.612 80.8525 8.82C80.5085 9.02 80.0925 9.12 79.6045 9.12ZM88.8462 9.12C88.2462 9.12 87.6862 9.024 87.1662 8.832C86.6542 8.632 86.2302 8.348 85.8942 7.98L86.8542 6.852C87.0542 7.108 87.3182 7.324 87.6462 7.5C87.9822 7.668 88.3542 7.752 88.7622 7.752C89.0102 7.752 89.2142 7.716 89.3742 7.644C89.5342 7.572 89.6142 7.46 89.6142 7.308C89.6142 7.196 89.5742 7.108 89.4942 7.044C89.4142 6.972 89.2542 6.912 89.0142 6.864L88.1742 6.696C87.4222 6.544 86.8862 6.32 86.5662 6.024C86.2542 5.72 86.0982 5.324 86.0982 4.836C86.0982 4.508 86.1982 4.196 86.3982 3.9C86.5982 3.596 86.9062 3.352 87.3222 3.168C87.7382 2.976 88.2702 2.88 88.9182 2.88C89.5262 2.88 90.0622 2.968 90.5262 3.144C90.9902 3.32 91.3582 3.576 91.6302 3.912L90.6582 5.016C90.4662 4.776 90.2182 4.588 89.9142 4.452C89.6102 4.316 89.3062 4.248 89.0022 4.248C88.8102 4.248 88.6462 4.268 88.5102 4.308C88.3822 4.34 88.2862 4.388 88.2222 4.452C88.1582 4.516 88.1262 4.596 88.1262 4.692C88.1262 4.796 88.1742 4.888 88.2702 4.968C88.3742 5.04 88.5622 5.104 88.8342 5.16L89.9262 5.376C90.5422 5.488 90.9862 5.692 91.2582 5.988C91.5302 6.284 91.6662 6.64 91.6662 7.056C91.6662 7.448 91.5622 7.8 91.3542 8.112C91.1462 8.424 90.8342 8.672 90.4182 8.856C90.0022 9.032 89.4782 9.12 88.8462 9.12ZM96.9375 9.12C96.2735 9.12 95.6975 8.996 95.2095 8.748C94.7295 8.5 94.3575 8.144 94.0935 7.68C93.8295 7.216 93.6975 6.656 93.6975 6C93.6975 5.344 93.8295 4.784 94.0935 4.32C94.3575 3.856 94.7255 3.5 95.1975 3.252C95.6775 3.004 96.2255 2.88 96.8415 2.88C97.4735 2.88 98.0095 3.004 98.4495 3.252C98.8975 3.492 99.2375 3.828 99.4695 4.26C99.7015 4.684 99.8175 5.172 99.8175 5.724C99.8175 5.868 99.8135 6.012 99.8055 6.156C99.7975 6.3 99.7855 6.42 99.7695 6.516H95.0175V5.424H98.8695L97.8975 5.796C97.8975 5.316 97.8095 4.948 97.6335 4.692C97.4655 4.436 97.2015 4.308 96.8415 4.308C96.5855 4.308 96.3655 4.368 96.1815 4.488C96.0055 4.608 95.8695 4.796 95.7735 5.052C95.6855 5.308 95.6415 5.636 95.6415 6.036C95.6415 6.428 95.6935 6.748 95.7975 6.996C95.9015 7.236 96.0495 7.412 96.2415 7.524C96.4335 7.628 96.6655 7.68 96.9375 7.68C97.2415 7.68 97.4815 7.62 97.6575 7.5C97.8415 7.38 97.9775 7.212 98.0655 6.996L99.6975 7.536C99.5855 7.88 99.3895 8.172 99.1095 8.412C98.8375 8.644 98.5095 8.82 98.1255 8.94C97.7495 9.06 97.3535 9.12 96.9375 9.12ZM104.487 9.12C103.991 9.12 103.555 9 103.179 8.76C102.811 8.512 102.523 8.156 102.315 7.692C102.115 7.228 102.015 6.672 102.015 6.024C102.015 5.352 102.119 4.784 102.327 4.32C102.543 3.856 102.839 3.5 103.215 3.252C103.599 3.004 104.039 2.88 104.535 2.88C105.079 2.88 105.515 3.048 105.843 3.384C106.179 3.712 106.395 4.132 106.491 4.644L106.299 4.896V0.456H108.339V9H106.515L106.383 6.96L106.623 7.14C106.575 7.54 106.451 7.888 106.251 8.184C106.059 8.48 105.811 8.712 105.507 8.88C105.211 9.04 104.871 9.12 104.487 9.12ZM105.195 7.62C105.427 7.62 105.623 7.56 105.783 7.44C105.951 7.312 106.079 7.124 106.167 6.876C106.255 6.628 106.299 6.324 106.299 5.964C106.299 5.628 106.255 5.344 106.167 5.112C106.087 4.872 105.963 4.692 105.795 4.572C105.635 4.444 105.439 4.38 105.207 4.38C104.855 4.38 104.575 4.512 104.367 4.776C104.167 5.032 104.067 5.44 104.067 6C104.067 6.56 104.167 6.972 104.367 7.236C104.567 7.492 104.843 7.62 105.195 7.62ZM123.478 3H125.614L123.802 9H121.354L120.262 5.316L119.206 9H116.77L114.946 3H117.094L118.102 7.428L119.278 3H121.294L122.458 7.428L123.478 3ZM130.518 9.12C129.854 9.12 129.278 8.996 128.79 8.748C128.31 8.5 127.938 8.144 127.674 7.68C127.41 7.216 127.278 6.656 127.278 6C127.278 5.344 127.41 4.784 127.674 4.32C127.938 3.856 128.306 3.5 128.778 3.252C129.258 3.004 129.806 2.88 130.422 2.88C131.054 2.88 131.59 3.004 132.03 3.252C132.478 3.492 132.818 3.828 133.05 4.26C133.282 4.684 133.398 5.172 133.398 5.724C133.398 5.868 133.394 6.012 133.386 6.156C133.378 6.3 133.366 6.42 133.35 6.516H128.598V5.424H132.45L131.478 5.796C131.478 5.316 131.39 4.948 131.214 4.692C131.046 4.436 130.782 4.308 130.422 4.308C130.166 4.308 129.946 4.368 129.762 4.488C129.586 4.608 129.45 4.796 129.354 5.052C129.266 5.308 129.222 5.636 129.222 6.036C129.222 6.428 129.274 6.748 129.378 6.996C129.482 7.236 129.63 7.412 129.822 7.524C130.014 7.628 130.246 7.68 130.518 7.68C130.822 7.68 131.062 7.62 131.238 7.5C131.422 7.38 131.558 7.212 131.646 6.996L133.278 7.536C133.166 7.88 132.97 8.172 132.69 8.412C132.418 8.644 132.09 8.82 131.706 8.94C131.33 9.06 130.934 9.12 130.518 9.12ZM139.712 9.12C139.32 9.12 138.972 9.032 138.668 8.856C138.372 8.68 138.128 8.44 137.936 8.136C137.744 7.824 137.62 7.472 137.564 7.08L137.756 6.828L137.648 9H135.86V0.456H137.9V4.884L137.708 4.596C137.82 4.1 138.048 3.692 138.392 3.372C138.736 3.044 139.2 2.88 139.784 2.88C140.248 2.88 140.66 3.004 141.02 3.252C141.388 3.5 141.672 3.86 141.872 4.332C142.08 4.796 142.184 5.36 142.184 6.024C142.184 6.672 142.08 7.228 141.872 7.692C141.664 8.156 141.376 8.512 141.008 8.76C140.64 9 140.208 9.12 139.712 9.12ZM139.004 7.62C139.356 7.62 139.632 7.492 139.832 7.236C140.032 6.972 140.132 6.56 140.132 6C140.132 5.44 140.032 5.032 139.832 4.776C139.632 4.512 139.356 4.38 139.004 4.38C138.772 4.38 138.572 4.448 138.404 4.584C138.244 4.712 138.12 4.896 138.032 5.136C137.944 5.376 137.9 5.668 137.9 6.012C137.9 6.356 137.944 6.648 138.032 6.888C138.12 7.128 138.248 7.312 138.416 7.44C138.584 7.56 138.78 7.62 139.004 7.62ZM2.94 27.12C2.444 27.12 2.008 27 1.632 26.76C1.264 26.512 0.976 26.156 0.768 25.692C0.568 25.228 0.468 24.672 0.468 24.024C0.468 23.352 0.572 22.784 0.78 22.32C0.996 21.856 1.292 21.5 1.668 21.252C2.052 21.004 2.492 20.88 2.988 20.88C3.532 20.88 3.968 21.048 4.296 21.384C4.632 21.712 4.848 22.132 4.944 22.644L4.752 22.896V18.456H6.792V27H4.968L4.836 24.96L5.076 25.14C5.028 25.54 4.904 25.888 4.704 26.184C4.512 26.48 4.264 26.712 3.96 26.88C3.664 27.04 3.324 27.12 2.94 27.12ZM3.648 25.62C3.88 25.62 4.076 25.56 4.236 25.44C4.404 25.312 4.532 25.124 4.62 24.876C4.708 24.628 4.752 24.324 4.752 23.964C4.752 23.628 4.708 23.344 4.62 23.112C4.54 22.872 4.416 22.692 4.248 22.572C4.088 22.444 3.892 22.38 3.66 22.38C3.308 22.38 3.028 22.512 2.82 22.776C2.62 23.032 2.52 23.44 2.52 24C2.52 24.56 2.62 24.972 2.82 25.236C3.02 25.492 3.296 25.62 3.648 25.62ZM12.5034 27.12C11.8394 27.12 11.2634 26.996 10.7754 26.748C10.2954 26.5 9.92344 26.144 9.65944 25.68C9.39544 25.216 9.26344 24.656 9.26344 24C9.26344 23.344 9.39544 22.784 9.65944 22.32C9.92344 21.856 10.2914 21.5 10.7634 21.252C11.2434 21.004 11.7914 20.88 12.4074 20.88C13.0394 20.88 13.5754 21.004 14.0154 21.252C14.4634 21.492 14.8034 21.828 15.0354 22.26C15.2674 22.684 15.3834 23.172 15.3834 23.724C15.3834 23.868 15.3794 24.012 15.3714 24.156C15.3634 24.3 15.3514 24.42 15.3354 24.516H10.5834V23.424H14.4354L13.4634 23.796C13.4634 23.316 13.3754 22.948 13.1994 22.692C13.0314 22.436 12.7674 22.308 12.4074 22.308C12.1514 22.308 11.9314 22.368 11.7474 22.488C11.5714 22.608 11.4354 22.796 11.3394 23.052C11.2514 23.308 11.2074 23.636 11.2074 24.036C11.2074 24.428 11.2594 24.748 11.3634 24.996C11.4674 25.236 11.6154 25.412 11.8074 25.524C11.9994 25.628 12.2314 25.68 12.5034 25.68C12.8074 25.68 13.0474 25.62 13.2234 25.5C13.4074 25.38 13.5434 25.212 13.6314 24.996L15.2634 25.536C15.1514 25.88 14.9554 26.172 14.6754 26.412C14.4034 26.644 14.0754 26.82 13.6914 26.94C13.3154 27.06 12.9194 27.12 12.5034 27.12ZM21.5572 21H23.6692L21.5092 27H19.0732L16.9132 21H19.0612L20.2972 25.572L21.5572 21ZM28.5263 27.12C27.8623 27.12 27.2863 26.996 26.7983 26.748C26.3183 26.5 25.9463 26.144 25.6823 25.68C25.4183 25.216 25.2863 24.656 25.2863 24C25.2863 23.344 25.4183 22.784 25.6823 22.32C25.9463 21.856 26.3143 21.5 26.7863 21.252C27.2663 21.004 27.8143 20.88 28.4303 20.88C29.0623 20.88 29.5983 21.004 30.0383 21.252C30.4863 21.492 30.8263 21.828 31.0583 22.26C31.2903 22.684 31.4063 23.172 31.4063 23.724C31.4063 23.868 31.4023 24.012 31.3943 24.156C31.3863 24.3 31.3743 24.42 31.3583 24.516H26.6063V23.424H30.4583L29.4863 23.796C29.4863 23.316 29.3983 22.948 29.2223 22.692C29.0543 22.436 28.7903 22.308 28.4303 22.308C28.1743 22.308 27.9543 22.368 27.7703 22.488C27.5943 22.608 27.4583 22.796 27.3623 23.052C27.2743 23.308 27.2303 23.636 27.2303 24.036C27.2303 24.428 27.2823 24.748 27.3863 24.996C27.4903 25.236 27.6383 25.412 27.8303 25.524C28.0223 25.628 28.2543 25.68 28.5263 25.68C28.8303 25.68 29.0703 25.62 29.2463 25.5C29.4303 25.38 29.5663 25.212 29.6543 24.996L31.2863 25.536C31.1743 25.88 30.9783 26.172 30.6983 26.412C30.4263 26.644 30.0983 26.82 29.7143 26.94C29.3383 27.06 28.9423 27.12 28.5263 27.12ZM35.8835 18.456V24.96C35.8835 25.224 35.9275 25.412 36.0155 25.524C36.1035 25.636 36.2515 25.692 36.4595 25.692C36.5795 25.692 36.6795 25.684 36.7595 25.668C36.8395 25.652 36.9355 25.628 37.0475 25.596L36.9155 26.82C36.7715 26.908 36.5835 26.98 36.3515 27.036C36.1195 27.092 35.8915 27.12 35.6675 27.12C35.0275 27.12 34.5635 26.972 34.2755 26.676C33.9875 26.38 33.8435 25.896 33.8435 25.224V18.456H35.8835ZM41.9692 20.88C42.6012 20.88 43.1532 21.004 43.6252 21.252C44.1052 21.492 44.4772 21.848 44.7412 22.32C45.0132 22.784 45.1492 23.344 45.1492 24C45.1492 24.656 45.0132 25.22 44.7412 25.692C44.4772 26.156 44.1052 26.512 43.6252 26.76C43.1532 27 42.6012 27.12 41.9692 27.12C41.3532 27.12 40.8052 27 40.3252 26.76C39.8452 26.512 39.4692 26.156 39.1972 25.692C38.9332 25.22 38.8012 24.656 38.8012 24C38.8012 23.344 38.9332 22.784 39.1972 22.32C39.4692 21.848 39.8452 21.492 40.3252 21.252C40.8052 21.004 41.3532 20.88 41.9692 20.88ZM41.9692 22.332C41.7372 22.332 41.5372 22.388 41.3692 22.5C41.2012 22.612 41.0732 22.792 40.9852 23.04C40.8972 23.288 40.8532 23.608 40.8532 24C40.8532 24.392 40.8972 24.712 40.9852 24.96C41.0732 25.2 41.2012 25.38 41.3692 25.5C41.5372 25.612 41.7372 25.668 41.9692 25.668C42.2092 25.668 42.4132 25.612 42.5812 25.5C42.7492 25.38 42.8772 25.2 42.9652 24.96C43.0532 24.712 43.0972 24.392 43.0972 24C43.0972 23.608 43.0532 23.288 42.9652 23.04C42.8772 22.792 42.7492 22.612 42.5812 22.5C42.4132 22.388 42.2092 22.332 41.9692 22.332ZM47.6168 29.52V21H49.4528L49.5608 23.172L49.3208 22.92C49.3768 22.52 49.5008 22.168 49.6928 21.864C49.8848 21.56 50.1328 21.32 50.4368 21.144C50.7408 20.968 51.0888 20.88 51.4808 20.88C51.9768 20.88 52.4088 21.004 52.7768 21.252C53.1448 21.492 53.4288 21.844 53.6288 22.308C53.8368 22.764 53.9408 23.32 53.9408 23.976C53.9408 24.632 53.8368 25.196 53.6288 25.668C53.4208 26.14 53.1288 26.5 52.7528 26.748C52.3848 26.996 51.9528 27.12 51.4568 27.12C50.9128 27.12 50.4728 26.96 50.1368 26.64C49.8008 26.312 49.5768 25.9 49.4648 25.404L49.6568 25.116V29.52H47.6168ZM50.7608 25.62C51.1128 25.62 51.3888 25.492 51.5888 25.236C51.7888 24.972 51.8888 24.56 51.8888 24C51.8888 23.44 51.7888 23.032 51.5888 22.776C51.3968 22.512 51.1248 22.38 50.7728 22.38C50.5488 22.38 50.3528 22.444 50.1848 22.572C50.0168 22.692 49.8848 22.872 49.7888 23.112C49.7008 23.352 49.6568 23.648 49.6568 24C49.6568 24.336 49.6968 24.628 49.7768 24.876C49.8648 25.116 49.9928 25.3 50.1608 25.428C50.3288 25.556 50.5288 25.62 50.7608 25.62ZM59.3883 27.12C58.7243 27.12 58.1483 26.996 57.6603 26.748C57.1803 26.5 56.8083 26.144 56.5443 25.68C56.2803 25.216 56.1483 24.656 56.1483 24C56.1483 23.344 56.2803 22.784 56.5443 22.32C56.8083 21.856 57.1763 21.5 57.6483 21.252C58.1283 21.004 58.6763 20.88 59.2923 20.88C59.9243 20.88 60.4603 21.004 60.9003 21.252C61.3483 21.492 61.6883 21.828 61.9203 22.26C62.1523 22.684 62.2683 23.172 62.2683 23.724C62.2683 23.868 62.2643 24.012 62.2563 24.156C62.2483 24.3 62.2363 24.42 62.2203 24.516H57.4683V23.424H61.3203L60.3483 23.796C60.3483 23.316 60.2603 22.948 60.0843 22.692C59.9163 22.436 59.6523 22.308 59.2923 22.308C59.0363 22.308 58.8163 22.368 58.6323 22.488C58.4563 22.608 58.3203 22.796 58.2243 23.052C58.1363 23.308 58.0923 23.636 58.0923 24.036C58.0923 24.428 58.1443 24.748 58.2483 24.996C58.3523 25.236 58.5003 25.412 58.6923 25.524C58.8843 25.628 59.1163 25.68 59.3883 25.68C59.6923 25.68 59.9323 25.62 60.1083 25.5C60.2923 25.38 60.4283 25.212 60.5163 24.996L62.1483 25.536C62.0363 25.88 61.8403 26.172 61.5603 26.412C61.2883 26.644 60.9603 26.82 60.5763 26.94C60.2003 27.06 59.8043 27.12 59.3883 27.12ZM64.7295 27V21H66.5295L66.6135 22.296C66.7655 21.848 66.9895 21.5 67.2855 21.252C67.5895 21.004 67.9735 20.88 68.4375 20.88C68.5895 20.88 68.7175 20.892 68.8215 20.916C68.9335 20.94 69.0215 20.972 69.0855 21.012L68.8815 22.692C68.8015 22.66 68.6975 22.636 68.5695 22.62C68.4495 22.596 68.3015 22.584 68.1255 22.584C67.8855 22.584 67.6615 22.636 67.4535 22.74C67.2455 22.844 67.0775 23 66.9495 23.208C66.8295 23.408 66.7695 23.664 66.7695 23.976V27H64.7295ZM78.1238 27.12C77.5718 27.12 77.0878 27.036 76.6718 26.868C76.2558 26.7 75.9318 26.456 75.6998 26.136C75.4678 25.808 75.3478 25.408 75.3398 24.936C75.3398 24.72 75.3718 24.496 75.4358 24.264C75.5078 24.024 75.6278 23.796 75.7958 23.58C75.9638 23.356 76.1958 23.164 76.4918 23.004C76.7958 22.836 77.1798 22.712 77.6438 22.632L78.0158 22.524C78.3598 22.316 78.6238 22.132 78.8078 21.972C78.9998 21.804 79.1318 21.644 79.2038 21.492C79.2838 21.332 79.3238 21.156 79.3238 20.964C79.3238 20.756 79.2598 20.596 79.1318 20.484C79.0118 20.364 78.8438 20.304 78.6278 20.304C78.3958 20.304 78.2158 20.372 78.0878 20.508C77.9598 20.644 77.8958 20.824 77.8958 21.048C77.8958 21.176 77.9158 21.3 77.9558 21.42C78.0038 21.54 78.0918 21.688 78.2198 21.864C78.3558 22.04 78.5478 22.268 78.7958 22.548C79.0438 22.828 79.3678 23.192 79.7678 23.64C80.1678 24.072 80.5038 24.432 80.7758 24.72C81.0478 25 81.2838 25.216 81.4838 25.368C81.6918 25.52 81.8918 25.62 82.0838 25.668C82.2758 25.708 82.4958 25.716 82.7438 25.692L82.5638 27.12C82.2358 27.12 81.9438 27.096 81.6878 27.048C81.4318 27 81.1718 26.9 80.9078 26.748C80.6438 26.588 80.3438 26.356 80.0078 26.052C79.6718 25.748 79.2598 25.34 78.7718 24.828C78.2198 24.252 77.7718 23.776 77.4278 23.4C77.0838 23.016 76.8198 22.692 76.6358 22.428C76.4518 22.164 76.3238 21.92 76.2518 21.696C76.1878 21.472 76.1558 21.236 76.1558 20.988C76.1558 20.652 76.2398 20.332 76.4078 20.028C76.5838 19.716 76.8518 19.46 77.2118 19.26C77.5718 19.06 78.0398 18.96 78.6158 18.96C79.1518 18.96 79.5878 19.048 79.9238 19.224C80.2678 19.4 80.5198 19.632 80.6798 19.92C80.8478 20.2 80.9318 20.5 80.9318 20.82C80.9318 21.18 80.8478 21.512 80.6798 21.816C80.5118 22.12 80.2518 22.388 79.8998 22.62C79.5478 22.844 79.0878 23.032 78.5198 23.184L78.1478 23.388C77.8758 23.548 77.6598 23.696 77.4998 23.832C77.3478 23.968 77.2398 24.112 77.1758 24.264C77.1198 24.408 77.0918 24.58 77.0918 24.78C77.0918 24.98 77.1478 25.156 77.2598 25.308C77.3718 25.46 77.5238 25.58 77.7158 25.668C77.9158 25.748 78.1438 25.788 78.3998 25.788C78.7758 25.788 79.1038 25.728 79.3838 25.608C79.6638 25.488 79.9358 25.332 80.1998 25.14L80.3678 24.888C80.5198 24.632 80.6398 24.348 80.7278 24.036C80.8238 23.724 80.8638 23.356 80.8478 22.932L82.2158 22.968C82.2158 23.48 82.1318 23.96 81.9638 24.408C81.8038 24.848 81.5638 25.232 81.2438 25.56L80.8838 25.848C80.6198 26.24 80.2558 26.552 79.7918 26.784C79.3278 27.008 78.7718 27.12 78.1238 27.12ZM89.6033 27V21H91.4273L91.4873 22.164C91.6793 21.74 91.9473 21.42 92.2913 21.204C92.6433 20.988 93.0473 20.88 93.5033 20.88C93.9513 20.88 94.3393 20.98 94.6673 21.18C94.9953 21.38 95.2393 21.676 95.3993 22.068C95.5273 21.804 95.6913 21.584 95.8913 21.408C96.0993 21.232 96.3353 21.1 96.5993 21.012C96.8633 20.924 97.1353 20.88 97.4153 20.88C97.8153 20.88 98.1673 20.96 98.4713 21.12C98.7753 21.272 99.0153 21.508 99.1913 21.828C99.3753 22.14 99.4673 22.532 99.4673 23.004V27H97.4273V23.472C97.4273 23.088 97.3513 22.82 97.1993 22.668C97.0553 22.516 96.8593 22.44 96.6113 22.44C96.4113 22.44 96.2273 22.492 96.0593 22.596C95.8993 22.692 95.7753 22.84 95.6873 23.04C95.5993 23.24 95.5553 23.492 95.5553 23.796V27H93.5153V23.472C93.5153 23.088 93.4393 22.82 93.2873 22.668C93.1353 22.516 92.9393 22.44 92.6993 22.44C92.5153 22.44 92.3393 22.488 92.1713 22.584C92.0113 22.68 91.8833 22.832 91.7873 23.04C91.6913 23.24 91.6433 23.504 91.6433 23.832V27H89.6033ZM104.248 27.12C103.84 27.12 103.48 27.052 103.168 26.916C102.864 26.772 102.624 26.544 102.448 26.232C102.272 25.92 102.184 25.512 102.184 25.008V21H104.224V24.528C104.224 24.912 104.3 25.18 104.452 25.332C104.604 25.484 104.82 25.56 105.1 25.56C105.244 25.56 105.38 25.536 105.508 25.488C105.636 25.432 105.748 25.352 105.844 25.248C105.94 25.136 106.012 24.996 106.06 24.828C106.116 24.652 106.144 24.448 106.144 24.216V21H108.184V27H106.36L106.3 25.872C106.108 26.296 105.84 26.612 105.496 26.82C105.152 27.02 104.736 27.12 104.248 27.12ZM112.986 18.456V24.96C112.986 25.224 113.03 25.412 113.118 25.524C113.206 25.636 113.354 25.692 113.562 25.692C113.682 25.692 113.782 25.684 113.862 25.668C113.942 25.652 114.038 25.628 114.15 25.596L114.018 26.82C113.874 26.908 113.686 26.98 113.454 27.036C113.222 27.092 112.994 27.12 112.77 27.12C112.13 27.12 111.666 26.972 111.378 26.676C111.09 26.38 110.946 25.896 110.946 25.224V18.456H112.986ZM118.524 19.092V24.864C118.524 25.152 118.592 25.36 118.728 25.488C118.872 25.608 119.068 25.668 119.316 25.668C119.508 25.668 119.672 25.648 119.808 25.608C119.952 25.56 120.08 25.492 120.192 25.404L120.408 26.664C120.208 26.808 119.956 26.92 119.652 27C119.348 27.08 119.036 27.12 118.716 27.12C118.26 27.12 117.864 27.056 117.528 26.928C117.2 26.8 116.944 26.596 116.76 26.316C116.584 26.036 116.492 25.664 116.484 25.2V19.656L118.524 19.092ZM120.312 21V22.452H115.452V21H120.312ZM123.595 20.304C123.179 20.304 122.875 20.228 122.683 20.076C122.499 19.916 122.407 19.668 122.407 19.332C122.407 18.988 122.499 18.74 122.683 18.588C122.875 18.428 123.179 18.348 123.595 18.348C124.003 18.348 124.303 18.428 124.495 18.588C124.687 18.74 124.783 18.988 124.783 19.332C124.783 19.668 124.687 19.916 124.495 20.076C124.303 20.228 124.003 20.304 123.595 20.304ZM124.615 21V27H122.575V21H124.615ZM132.019 22.956V24.624H127.627V22.956H132.019ZM0.732 45V39H2.556L2.616 40.164C2.808 39.74 3.076 39.42 3.42 39.204C3.772 38.988 4.176 38.88 4.632 38.88C5.08 38.88 5.468 38.98 5.796 39.18C6.124 39.38 6.368 39.676 6.528 40.068C6.656 39.804 6.82 39.584 7.02 39.408C7.228 39.232 7.464 39.1 7.728 39.012C7.992 38.924 8.264 38.88 8.544 38.88C8.944 38.88 9.296 38.96 9.6 39.12C9.904 39.272 10.144 39.508 10.32 39.828C10.504 40.14 10.596 40.532 10.596 41.004V45H8.556V41.472C8.556 41.088 8.48 40.82 8.328 40.668C8.184 40.516 7.988 40.44 7.74 40.44C7.54 40.44 7.356 40.492 7.188 40.596C7.028 40.692 6.904 40.84 6.816 41.04C6.728 41.24 6.684 41.492 6.684 41.796V45H4.644V41.472C4.644 41.088 4.568 40.82 4.416 40.668C4.264 40.516 4.068 40.44 3.828 40.44C3.644 40.44 3.468 40.488 3.3 40.584C3.14 40.68 3.012 40.832 2.916 41.04C2.82 41.24 2.772 41.504 2.772 41.832V45H0.732ZM16.2769 45.12C15.6129 45.12 15.0369 44.996 14.5489 44.748C14.0689 44.5 13.6969 44.144 13.4329 43.68C13.1689 43.216 13.0369 42.656 13.0369 42C13.0369 41.344 13.1689 40.784 13.4329 40.32C13.6969 39.856 14.0649 39.5 14.5369 39.252C15.0169 39.004 15.5649 38.88 16.1809 38.88C16.8129 38.88 17.3489 39.004 17.7889 39.252C18.2369 39.492 18.5769 39.828 18.8089 40.26C19.0409 40.684 19.1569 41.172 19.1569 41.724C19.1569 41.868 19.1529 42.012 19.1449 42.156C19.1369 42.3 19.1249 42.42 19.1089 42.516H14.3569V41.424H18.2089L17.2369 41.796C17.2369 41.316 17.1489 40.948 16.9729 40.692C16.8049 40.436 16.5409 40.308 16.1809 40.308C15.9249 40.308 15.7049 40.368 15.5209 40.488C15.3449 40.608 15.2089 40.796 15.1129 41.052C15.0249 41.308 14.9809 41.636 14.9809 42.036C14.9809 42.428 15.0329 42.748 15.1369 42.996C15.2409 43.236 15.3889 43.412 15.5809 43.524C15.7729 43.628 16.0049 43.68 16.2769 43.68C16.5809 43.68 16.8209 43.62 16.9969 43.5C17.1809 43.38 17.3169 43.212 17.4049 42.996L19.0369 43.536C18.9249 43.88 18.7289 44.172 18.4489 44.412C18.1769 44.644 17.8489 44.82 17.4649 44.94C17.0889 45.06 16.6929 45.12 16.2769 45.12ZM23.8261 45.12C23.3301 45.12 22.8941 45 22.5181 44.76C22.1501 44.512 21.8621 44.156 21.6541 43.692C21.4541 43.228 21.3541 42.672 21.3541 42.024C21.3541 41.352 21.4581 40.784 21.6661 40.32C21.8821 39.856 22.1781 39.5 22.5541 39.252C22.9381 39.004 23.3781 38.88 23.8741 38.88C24.4181 38.88 24.8541 39.048 25.1821 39.384C25.5181 39.712 25.7341 40.132 25.8301 40.644L25.6381 40.896V36.456H27.6781V45H25.8541L25.7221 42.96L25.9621 43.14C25.9141 43.54 25.7901 43.888 25.5901 44.184C25.3981 44.48 25.1501 44.712 24.8461 44.88C24.5501 45.04 24.2101 45.12 23.8261 45.12ZM24.5341 43.62C24.7661 43.62 24.9621 43.56 25.1221 43.44C25.2901 43.312 25.4181 43.124 25.5061 42.876C25.5941 42.628 25.6381 42.324 25.6381 41.964C25.6381 41.628 25.5941 41.344 25.5061 41.112C25.4261 40.872 25.3021 40.692 25.1341 40.572C24.9741 40.444 24.7781 40.38 24.5461 40.38C24.1941 40.38 23.9141 40.512 23.7061 40.776C23.5061 41.032 23.4061 41.44 23.4061 42C23.4061 42.56 23.5061 42.972 23.7061 43.236C23.9061 43.492 24.1821 43.62 24.5341 43.62ZM31.4815 38.304C31.0655 38.304 30.7615 38.228 30.5695 38.076C30.3855 37.916 30.2935 37.668 30.2935 37.332C30.2935 36.988 30.3855 36.74 30.5695 36.588C30.7615 36.428 31.0655 36.348 31.4815 36.348C31.8895 36.348 32.1895 36.428 32.3815 36.588C32.5735 36.74 32.6695 36.988 32.6695 37.332C32.6695 37.668 32.5735 37.916 32.3815 38.076C32.1895 38.228 31.8895 38.304 31.4815 38.304ZM32.5015 39V45H30.4615V39H32.5015ZM38.6217 41.196C38.6217 40.916 38.5417 40.696 38.3817 40.536C38.2297 40.368 38.0217 40.284 37.7577 40.284C37.4937 40.284 37.2657 40.352 37.0737 40.488C36.8897 40.616 36.7617 40.848 36.6897 41.184L34.9617 40.776C35.0737 40.2 35.3697 39.74 35.8497 39.396C36.3297 39.052 37.0057 38.88 37.8777 38.88C38.4617 38.88 38.9577 38.968 39.3657 39.144C39.7817 39.312 40.0977 39.568 40.3137 39.912C40.5377 40.248 40.6497 40.664 40.6497 41.16V43.356C40.6497 43.668 40.7897 43.824 41.0697 43.824C41.2137 43.824 41.3297 43.808 41.4177 43.776L41.2977 44.94C41.0577 45.052 40.7657 45.108 40.4217 45.108C40.1097 45.108 39.8337 45.06 39.5937 44.964C39.3537 44.86 39.1657 44.708 39.0297 44.508C38.8937 44.3 38.8257 44.04 38.8257 43.728V43.656L39.0537 43.572C39.0537 43.916 38.9497 44.204 38.7417 44.436C38.5417 44.668 38.2777 44.84 37.9497 44.952C37.6297 45.064 37.2937 45.12 36.9417 45.12C36.5337 45.12 36.1777 45.056 35.8737 44.928C35.5697 44.8 35.3337 44.616 35.1657 44.376C35.0057 44.128 34.9257 43.824 34.9257 43.464C34.9257 43.032 35.0537 42.676 35.3097 42.396C35.5737 42.108 35.9857 41.908 36.5457 41.796L38.8137 41.328L38.8017 42.408L37.6497 42.648C37.4097 42.696 37.2297 42.768 37.1097 42.864C36.9977 42.952 36.9417 43.088 36.9417 43.272C36.9417 43.448 37.0057 43.58 37.1337 43.668C37.2617 43.756 37.4137 43.8 37.5897 43.8C37.7257 43.8 37.8537 43.78 37.9737 43.74C38.1017 43.7 38.2137 43.64 38.3097 43.56C38.4057 43.472 38.4817 43.364 38.5377 43.236C38.5937 43.108 38.6217 42.956 38.6217 42.78V41.196ZM51.5273 41.196C51.5273 40.916 51.4473 40.696 51.2873 40.536C51.1353 40.368 50.9273 40.284 50.6633 40.284C50.3993 40.284 50.1713 40.352 49.9793 40.488C49.7953 40.616 49.6673 40.848 49.5953 41.184L47.8673 40.776C47.9793 40.2 48.2753 39.74 48.7553 39.396C49.2353 39.052 49.9113 38.88 50.7833 38.88C51.3673 38.88 51.8633 38.968 52.2713 39.144C52.6873 39.312 53.0033 39.568 53.2193 39.912C53.4433 40.248 53.5553 40.664 53.5553 41.16V43.356C53.5553 43.668 53.6953 43.824 53.9753 43.824C54.1193 43.824 54.2353 43.808 54.3233 43.776L54.2033 44.94C53.9633 45.052 53.6713 45.108 53.3273 45.108C53.0153 45.108 52.7393 45.06 52.4993 44.964C52.2593 44.86 52.0713 44.708 51.9353 44.508C51.7993 44.3 51.7313 44.04 51.7313 43.728V43.656L51.9593 43.572C51.9593 43.916 51.8553 44.204 51.6473 44.436C51.4473 44.668 51.1833 44.84 50.8553 44.952C50.5353 45.064 50.1993 45.12 49.8473 45.12C49.4393 45.12 49.0833 45.056 48.7793 44.928C48.4753 44.8 48.2393 44.616 48.0713 44.376C47.9113 44.128 47.8313 43.824 47.8313 43.464C47.8313 43.032 47.9593 42.676 48.2153 42.396C48.4793 42.108 48.8913 41.908 49.4513 41.796L51.7193 41.328L51.7073 42.408L50.5553 42.648C50.3153 42.696 50.1353 42.768 50.0153 42.864C49.9033 42.952 49.8473 43.088 49.8473 43.272C49.8473 43.448 49.9113 43.58 50.0393 43.668C50.1673 43.756 50.3193 43.8 50.4953 43.8C50.6313 43.8 50.7593 43.78 50.8793 43.74C51.0073 43.7 51.1193 43.64 51.2153 43.56C51.3113 43.472 51.3873 43.364 51.4433 43.236C51.4993 43.108 51.5273 42.956 51.5273 42.78V41.196ZM56.4486 45V39H58.2486L58.3326 40.296C58.4846 39.848 58.7086 39.5 59.0046 39.252C59.3086 39.004 59.6926 38.88 60.1566 38.88C60.3086 38.88 60.4366 38.892 60.5406 38.916C60.6526 38.94 60.7406 38.972 60.8046 39.012L60.6006 40.692C60.5206 40.66 60.4166 40.636 60.2886 40.62C60.1686 40.596 60.0206 40.584 59.8446 40.584C59.6046 40.584 59.3806 40.636 59.1726 40.74C58.9646 40.844 58.7966 41 58.6686 41.208C58.5486 41.408 58.4886 41.664 58.4886 41.976V45H56.4486ZM65.2805 37.092V42.864C65.2805 43.152 65.3485 43.36 65.4845 43.488C65.6285 43.608 65.8245 43.668 66.0725 43.668C66.2645 43.668 66.4285 43.648 66.5645 43.608C66.7085 43.56 66.8365 43.492 66.9485 43.404L67.1645 44.664C66.9645 44.808 66.7125 44.92 66.4085 45C66.1045 45.08 65.7925 45.12 65.4725 45.12C65.0165 45.12 64.6205 45.056 64.2845 44.928C63.9565 44.8 63.7005 44.596 63.5165 44.316C63.3405 44.036 63.2485 43.664 63.2405 43.2V37.656L65.2805 37.092ZM67.0685 39V40.452H62.2085V39H67.0685ZM70.3507 38.304C69.9347 38.304 69.6307 38.228 69.4387 38.076C69.2547 37.916 69.1627 37.668 69.1627 37.332C69.1627 36.988 69.2547 36.74 69.4387 36.588C69.6307 36.428 69.9347 36.348 70.3507 36.348C70.7587 36.348 71.0587 36.428 71.2507 36.588C71.4427 36.74 71.5387 36.988 71.5387 37.332C71.5387 37.668 71.4427 37.916 71.2507 38.076C71.0587 38.228 70.7587 38.304 70.3507 38.304ZM71.3707 39V45H69.3307V39H71.3707ZM76.6629 45.12C76.0629 45.12 75.5029 45.024 74.9829 44.832C74.4709 44.632 74.0469 44.348 73.7109 43.98L74.6709 42.852C74.8709 43.108 75.1349 43.324 75.4629 43.5C75.7989 43.668 76.1709 43.752 76.5789 43.752C76.8269 43.752 77.0309 43.716 77.1909 43.644C77.3509 43.572 77.4309 43.46 77.4309 43.308C77.4309 43.196 77.3909 43.108 77.3109 43.044C77.2309 42.972 77.0709 42.912 76.8309 42.864L75.9909 42.696C75.2389 42.544 74.7029 42.32 74.3829 42.024C74.0709 41.72 73.9149 41.324 73.9149 40.836C73.9149 40.508 74.0149 40.196 74.2149 39.9C74.4149 39.596 74.7229 39.352 75.1389 39.168C75.5549 38.976 76.0869 38.88 76.7349 38.88C77.3429 38.88 77.8789 38.968 78.3429 39.144C78.8069 39.32 79.1749 39.576 79.4469 39.912L78.4749 41.016C78.2829 40.776 78.0349 40.588 77.7309 40.452C77.4269 40.316 77.1229 40.248 76.8189 40.248C76.6269 40.248 76.4629 40.268 76.3269 40.308C76.1989 40.34 76.1029 40.388 76.0389 40.452C75.9749 40.516 75.9429 40.596 75.9429 40.692C75.9429 40.796 75.9909 40.888 76.0869 40.968C76.1909 41.04 76.3789 41.104 76.6509 41.16L77.7429 41.376C78.3589 41.488 78.8029 41.692 79.0749 41.988C79.3469 42.284 79.4829 42.64 79.4829 43.056C79.4829 43.448 79.3789 43.8 79.1709 44.112C78.9629 44.424 78.6509 44.672 78.2349 44.856C77.8189 45.032 77.2949 45.12 76.6629 45.12ZM84.3694 37.092V42.864C84.3694 43.152 84.4374 43.36 84.5734 43.488C84.7174 43.608 84.9134 43.668 85.1614 43.668C85.3534 43.668 85.5174 43.648 85.6534 43.608C85.7974 43.56 85.9254 43.492 86.0374 43.404L86.2534 44.664C86.0534 44.808 85.8014 44.92 85.4974 45C85.1934 45.08 84.8814 45.12 84.5614 45.12C84.1054 45.12 83.7094 45.056 83.3734 44.928C83.0454 44.8 82.7894 44.596 82.6054 44.316C82.4294 44.036 82.3374 43.664 82.3294 43.2V37.656L84.3694 37.092ZM86.1574 39V40.452H81.2974V39H86.1574Z" fill="#F9F9F9"/>
</svg>
