<svg width="152" height="110" viewBox="0 0 152 110" fill="none" xmlns="http://www.w3.org/2000/svg">
<path d="M12.008 47.456H65.64V92H77.288V2.39999H65.64V41.568H12.008V2.39999H0.360001V92H12.008V47.456ZM106.961 28V92H117.841V28H106.961ZM105.425 7.77599C105.425 9.65333 106.108 11.2747 107.473 12.64C108.838 14.0053 110.46 14.688 112.337 14.688C114.214 14.688 115.836 14.0053 117.201 12.64C118.566 11.2747 119.249 9.65333 119.249 7.77599C119.249 5.89866 118.566 4.27733 117.201 2.91199C115.836 1.54666 114.214 0.863998 112.337 0.863998C110.46 0.863998 108.838 1.54666 107.473 2.91199C106.108 4.27733 105.425 5.89866 105.425 7.77599ZM143.904 109.408H139.68V76.384H151.712L143.904 109.408Z" fill="#F8FEFF"/>
</svg>
